<svg width="59" height="59" viewBox="0 0 59 59" fill="none" xmlns="http://www.w3.org/2000/svg">
  <rect width="59" height="59" rx="29.5" fill="#F1C004"/>
  <path d="M26.6427 19.6254C26.6427 17.7739 28.149 16.2678 29.9999 16.2678C31.8517 16.2678 33.358 17.7739 33.358 19.6254C33.358 21.4769 31.8517 22.9829 29.9999 22.9829C28.149 22.9829 26.6427 21.4769 26.6427 19.6254ZM38.6789 27.712C40.0875 27.712 40.8251 26.6215 40.8251 25.5446C40.8251 24.4677 40.0874 23.3772 38.6789 23.3772H21.3218C19.913 23.3772 19.1753 24.4677 19.1753 25.5446C19.1753 26.6215 19.913 27.712 21.3218 27.712H26.3537V31.7244L21.6772 39.8251C21.1981 40.6541 21.1805 41.5764 21.6291 42.3535C22.1131 43.1914 23.0507 43.7321 24.0181 43.7321C24.9158 43.7321 25.7045 43.2563 26.1836 42.4265L29.9998 35.816L33.8166 42.4265C34.2955 43.2563 35.0853 43.7321 35.9824 43.7321C36.9498 43.7321 37.8879 43.1908 38.3711 42.3529C38.8195 41.5759 38.8024 40.6541 38.3231 39.8251L33.6461 31.7244V27.712H38.6789Z" fill="#111111"/>
</svg>
