<svg preserveAspectRatio="none" width="100%" height="100%" overflow="visible" style="display: block;" viewBox="0 0 140.981 16.8848" fill="none" xmlns="http://www.w3.org/2000/svg">
<g id="Group 1">
<path id="Vector" d="M16.4484 16.8842H9.45149V10.1263L16.4484 16.8842Z" fill="white"/>
<path id="Vector_2" d="M100.89 16.8848H93.4581V8.56236H100.542L100.89 8.8883V16.8848Z" fill="white"/>
<path id="Vector_3" d="M92.329 0L92.5463 16.8838H84.0066V0H92.329Z" fill="white"/>
<path id="Vector_4" d="M8.3224 0H0V16.8838H8.3224V0Z" fill="white"/>
<path id="Vector_5" d="M47.523 0L47.284 16.8838H39.1789V0H47.523Z" fill="white"/>
<path id="Vector_6" d="M70.0343 0V16.8838C66.4489 16.8404 63.3633 14.7761 62.1465 11.3863C62.0161 10.9951 61.4729 9.14813 61.4729 8.9091V0.347672L61.8205 0H70.0343Z" fill="white"/>
<path id="Vector_7" d="M78.5965 0V8.21376C78.5965 12.4076 75.3153 16.2754 71.165 16.8838C71.2302 16.6665 70.9477 16.4058 70.9477 16.3189V0.564967C70.9477 0.564967 71.2519 0.217295 71.165 0H78.5965Z" fill="white"/>
<path id="Vector_8" d="M132.419 16.8837H124.075V0.456235L132.419 8.66999V16.8837Z" fill="white"/>
<path id="Vector_9" d="M140.981 16.8837H133.549V7.75735L140.981 0.456235V16.8837Z" fill="white"/>
<path id="Vector_10" d="M27.9221 0H24.0977V16.8838H27.9221V0Z" fill="white"/>
<path id="Vector_11" d="M112.364 0H108.539V16.8838H112.364V0Z" fill="white"/>
<path id="Vector_12" d="M55.5187 0C55.7359 0.0651885 56.0184 0.521508 56.0836 0.803992C56.2792 1.86874 56.1923 5.6714 56.0836 6.88826C56.0402 7.36631 55.9532 8.34413 55.2796 8.34413H48.6304V0H55.4969H55.5187Z" fill="white"/>
<path id="Vector_13" d="M31.9645 0H28.5964V16.8838H31.9645V0Z" fill="white"/>
<path id="Vector_14" d="M116.404 0H113.036V16.8838H116.404V0Z" fill="white"/>
<path id="Vector_15" d="M16.4484 0L9.45149 6.75788V0H16.4484Z" fill="white"/>
</g>
</svg>
