<svg width="444" height="621" viewBox="0 0 444 621" fill="none" xmlns="http://www.w3.org/2000/svg">
<rect width="444" height="621" fill="#F5F5F5"/>
<g id=" for codex &#215;&#161;&#215;&#168;&#215;&#152;&#215;&#149;&#215;&#159; &#215;&#158;&#215;&#167;&#215;&#149;&#215;&#168;&#215;&#153;">
<rect width="1512" height="16008" transform="translate(-932 -14211.8)" fill="white"/>
<g id="&#215;&#148;&#215;&#151;&#215;&#145;&#215;&#153;&#215;&#156;&#215;&#149;&#215;&#170; &#215;&#169;&#215;&#156;&#215;&#160;&#215;&#149;">
<g id="Frame 26">
<g id="packges">
<g id="single" filter="url(#filter0_d_26_6541)">
<rect x="35" y="35" width="374" height="551" rx="20" fill="white"/>
<path id="&#215;&#169;&#215;&#153;&#215;&#168;&#215;&#149;&#215;&#170; &#215;&#145;&#215;&#149;&#215;&#147;&#215;&#147;" d="M149.373 103.47V98.73H165.573L164.973 103.47H149.373ZM156.783 117V106.92C156.783 106.62 156.833 106.25 156.933 105.81C157.033 105.35 157.213 104.91 157.473 104.49C157.733 104.05 158.103 103.71 158.583 103.47H163.173C162.853 103.65 162.663 103.91 162.603 104.25C162.563 104.59 162.543 105 162.543 105.48V117H156.783ZM166.069 103.47V98.73H182.269L181.669 103.47H166.069ZM173.479 117V106.92C173.479 106.62 173.529 106.25 173.629 105.81C173.729 105.35 173.909 104.91 174.169 104.49C174.429 104.05 174.799 103.71 175.279 103.47H179.869C179.549 103.65 179.359 103.91 179.299 104.25C179.259 104.59 179.239 105 179.239 105.48V117H173.479ZM185.014 117V98.73H190.774V117H185.014ZM182.764 103.47L183.364 98.73H188.824V103.47H182.764ZM201.363 117V105.63C201.363 104.91 201.173 104.37 200.793 104.01C200.433 103.65 199.933 103.47 199.293 103.47H193.233L193.833 98.73H199.563C202.063 98.73 203.943 99.3 205.203 100.44C206.483 101.58 207.123 103.28 207.123 105.54V112.59C206.923 113.33 206.573 114.08 206.073 114.84C205.573 115.6 205.073 116.32 204.573 117H201.363ZM192.333 117V112.26H209.403L208.803 117H192.333ZM230.92 117V105.63C230.92 104.91 230.73 104.37 230.35 104.01C229.99 103.65 229.49 103.47 228.85 103.47H220.09V98.73H229.12C231.62 98.73 233.5 99.3 234.76 100.44C236.04 101.58 236.68 103.28 236.68 105.54V117H230.92ZM217 117L217.6 112.26H218.68C219 112.26 219.26 112.2 219.46 112.08C219.66 111.96 219.81 111.78 219.91 111.54C220.03 111.3 220.09 111.01 220.09 110.67V99.78H225.85V110.37C225.85 112.55 225.35 114.2 224.35 115.32C223.35 116.44 221.87 117 219.91 117H217ZM217.36 103.47L217.96 98.73H223.42V103.47H217.36ZM240.633 117V98.73H246.393V117H240.633ZM238.383 103.47L238.983 98.73H244.443V103.47H238.383ZM256.412 117V105.63C256.412 104.91 256.222 104.37 255.842 104.01C255.482 103.65 254.982 103.47 254.342 103.47H248.252L248.852 98.73H254.612C257.112 98.73 258.992 99.3 260.252 100.44C261.532 101.58 262.172 103.28 262.172 105.54V117H256.412ZM265.528 109.56V98.73H271.288V109.56H265.528ZM263.278 103.47L263.878 98.73H268.738V103.47H263.278ZM284.4 117.27C282.18 117.27 280.26 116.86 278.64 116.04C277.04 115.22 275.8 113.98 274.92 112.32C274.04 110.64 273.6 108.51 273.6 105.93V98.73H279.33V105.84C279.33 107.52 279.52 108.86 279.9 109.86C280.3 110.86 280.87 111.58 281.61 112.02C282.35 112.46 283.24 112.68 284.28 112.68H284.31C285.37 112.66 286.27 112.44 287.01 112.02C287.75 111.58 288.31 110.87 288.69 109.89C289.09 108.89 289.29 107.56 289.29 105.9V98.73H295.02V105.96C295.02 108.54 294.59 110.66 293.73 112.32C292.87 113.98 291.65 115.22 290.07 116.04C288.51 116.84 286.64 117.25 284.46 117.27H284.4ZM277.68 109.77L277.38 105.96C278.66 106.04 279.58 105.9 280.14 105.54C280.72 105.16 281.09 104.58 281.25 103.8C281.41 103 281.49 102.01 281.49 100.83V98.73H287.22V100.56C287.22 101.98 287.07 103.27 286.77 104.43C286.49 105.59 286 106.58 285.3 107.4C284.6 108.2 283.63 108.81 282.39 109.23C281.15 109.65 279.58 109.83 277.68 109.77Z" fill="#111111"/>
<path id="&#215;&#144;&#215;&#168;&#215;&#153;&#215;&#150;&#215;&#148; / &#215;&#164;&#215;&#168;&#215;&#153;&#215;&#167;&#215;&#148; / &#215;&#161;&#215;&#153;&#215;&#147;&#215;&#149;&#215;&#168;" d="M123.512 156V146.688C123.512 145.968 123.336 145.432 122.984 145.08C122.632 144.712 122.12 144.528 121.448 144.528H116.552L116.936 141.528H121.64C123.464 141.528 124.84 141.96 125.768 142.824C126.696 143.672 127.16 144.936 127.16 146.616V156H123.512ZM129.965 156V141.528H133.613V156H129.965ZM127.997 144.528L128.405 141.528H132.365V144.528H127.997ZM135.106 144.528V141.528H147.442L147.034 144.528H135.106ZM141.394 156V146.904C141.394 146.68 141.426 146.416 141.49 146.112C141.554 145.792 141.666 145.488 141.826 145.2C142.002 144.912 142.242 144.688 142.546 144.528H145.45C145.258 144.672 145.138 144.872 145.09 145.128C145.058 145.384 145.042 145.688 145.042 146.04V156H141.394ZM149.785 149.904V141.528H153.433V149.904H149.785ZM147.817 144.528L148.225 141.528H151.825V144.528H147.817ZM162.322 156.216C160.034 156.216 158.314 155.64 157.162 154.488C156.026 153.32 155.458 151.672 155.458 149.544V149.328C155.458 148.208 155.65 147.24 156.034 146.424C156.434 145.608 156.93 145.024 157.522 144.672V144.336L160.618 144.264L160.498 144.576C159.986 144.784 159.618 145.24 159.394 145.944C159.186 146.648 159.082 147.528 159.082 148.584C159.082 150.104 159.33 151.272 159.826 152.088C160.338 152.904 161.17 153.312 162.322 153.312C163.49 153.312 164.33 152.872 164.842 151.992C165.354 151.112 165.61 149.856 165.61 148.224C165.61 147.04 165.41 146.128 165.01 145.488C164.626 144.848 163.914 144.528 162.874 144.528H154.858L155.242 141.528H162.898C165.074 141.528 166.674 142.112 167.698 143.28C168.738 144.448 169.258 146.104 169.258 148.248C169.258 150.776 168.674 152.736 167.506 154.128C166.354 155.52 164.626 156.216 162.322 156.216ZM184.471 138.672L178.087 156.168H174.871L181.279 138.672H184.471ZM199.815 156V146.688C199.815 145.968 199.631 145.432 199.263 145.08C198.911 144.712 198.407 144.528 197.751 144.528H190.287L190.695 141.528H197.943C199.767 141.528 201.143 141.96 202.071 142.824C202.999 143.672 203.463 144.936 203.463 146.616V156H199.815ZM190.599 156V148.2L194.247 148.008V156H190.599ZM211.491 156L214.827 144.504H204.987L205.371 141.528H218.955L218.715 143.688L215.139 156H211.491ZM205.563 160.416V147.576L209.211 147.36V160.224L205.563 160.416ZM221.395 149.904V141.528H225.043V149.904H221.395ZM219.427 144.528L219.835 141.528H223.435V144.528H219.427ZM233.379 156V146.688C233.379 145.968 233.203 145.432 232.851 145.08C232.499 144.712 231.987 144.528 231.315 144.528H226.419L226.803 141.528H231.507C233.331 141.528 234.707 141.96 235.635 142.824C236.563 143.672 237.027 144.936 237.027 146.616V156H233.379ZM238.907 156V153H243.995C244.859 153 245.587 152.824 246.179 152.472C246.771 152.104 247.219 151.6 247.523 150.96C247.843 150.304 248.003 149.528 248.003 148.632C248.003 147.288 247.739 146.232 247.211 145.464C246.683 144.68 245.835 144.288 244.667 144.288C243.723 144.288 243.035 144.488 242.603 144.888C242.187 145.288 241.979 145.808 241.979 146.448C241.979 146.896 242.083 147.28 242.291 147.6C242.515 147.92 242.835 148.136 243.251 148.248C243.395 148.296 243.539 148.344 243.683 148.392C243.827 148.424 243.947 148.44 244.043 148.44L243.755 151.056C243.531 151.088 243.275 151.096 242.987 151.08C242.699 151.048 242.339 150.992 241.907 150.912C240.851 150.704 240.011 150.2 239.387 149.4C238.779 148.584 238.475 147.56 238.475 146.328C238.475 145.352 238.707 144.488 239.171 143.736C239.635 142.968 240.323 142.368 241.235 141.936C242.163 141.504 243.307 141.288 244.667 141.288C246.907 141.288 248.643 141.944 249.875 143.256C251.107 144.552 251.723 146.344 251.723 148.632C251.723 150.152 251.403 151.464 250.763 152.568C250.139 153.672 249.219 154.52 248.003 155.112C246.803 155.704 245.347 156 243.635 156H238.907ZM266.846 138.672L260.462 156.168H257.246L263.654 138.672H266.846ZM282.19 156V146.688C282.19 145.968 282.006 145.432 281.638 145.08C281.286 144.712 280.782 144.528 280.126 144.528H272.662L273.07 141.528H280.318C282.142 141.528 283.518 141.96 284.446 142.824C285.374 143.672 285.838 144.936 285.838 146.616V156H282.19ZM272.974 156V148.2L276.622 148.008V156H272.974ZM288.874 155.952C288.762 155.36 288.65 154.744 288.538 154.104C288.426 153.448 288.33 152.808 288.25 152.184C288.17 151.544 288.106 150.952 288.058 150.408C288.026 149.864 288.01 149.392 288.01 148.992C288.01 148.464 288.074 147.92 288.202 147.36C288.346 146.8 288.626 146.272 289.042 145.776C289.474 145.264 290.122 144.824 290.986 144.456L294.226 144.528C293.378 144.8 292.754 145.144 292.354 145.56C291.97 145.976 291.73 146.44 291.634 146.952C291.554 147.464 291.53 147.984 291.562 148.512C291.578 148.912 291.634 149.448 291.73 150.12C291.826 150.776 291.938 151.48 292.066 152.232C292.194 152.968 292.306 153.672 292.402 154.344C292.514 155 292.602 155.536 292.666 155.952H288.874ZM287.17 144.528V141.528H294.61L294.226 144.528H287.17ZM296.973 149.904V141.528H300.621V149.904H296.973ZM295.005 144.528L295.413 141.528H299.013V144.528H295.005ZM308.957 156V146.688C308.957 145.968 308.781 145.432 308.429 145.08C308.077 144.712 307.565 144.528 306.893 144.528H301.997L302.381 141.528H307.085C308.909 141.528 310.285 141.96 311.213 142.824C312.141 143.672 312.605 144.936 312.605 146.616V156H308.957ZM324.493 156C323.789 154.784 323.101 153.656 322.429 152.616C321.773 151.56 321.101 150.552 320.413 149.592C319.741 148.616 319.021 147.664 318.253 146.736C317.933 146.336 317.573 145.888 317.173 145.392C316.789 144.88 316.397 144.376 315.997 143.88C315.613 143.384 315.261 142.928 314.941 142.512C314.621 142.096 314.357 141.768 314.149 141.528H318.613C318.917 141.896 319.253 142.336 319.621 142.848C319.989 143.344 320.357 143.848 320.725 144.36C321.109 144.872 321.445 145.336 321.733 145.752C322.469 146.856 323.229 147.968 324.013 149.088C324.797 150.192 325.589 151.32 326.389 152.472C327.189 153.608 327.965 154.784 328.717 156H324.493ZM313.741 156L314.317 152.136C314.461 151.256 314.677 150.432 314.965 149.664C315.253 148.88 315.701 148.184 316.309 147.576C316.917 146.968 317.757 146.512 318.829 146.208L319.909 148.56C319.429 148.736 319.061 149.016 318.805 149.4C318.549 149.784 318.365 150.232 318.253 150.744C318.141 151.24 318.037 151.776 317.941 152.352L317.389 156H313.741ZM323.605 150.144L322.525 147.792C323.085 147.6 323.501 147.312 323.773 146.928C324.061 146.544 324.269 146.096 324.397 145.584C324.541 145.072 324.637 144.544 324.685 144L324.997 141.528H328.621L328.333 144.216C328.253 145.08 328.045 145.904 327.709 146.688C327.389 147.472 326.893 148.16 326.221 148.752C325.549 149.344 324.677 149.808 323.605 150.144Z" fill="#F1C004"/>
<g id="Frame 16">
<path id="&#215;&#144;&#215;&#170; &#215;&#145;&#215;&#149;&#215;&#151;&#215;&#168;&#215;&#170; &#215;&#169;&#215;&#153;&#215;&#168;&#215;&#149;&#215;&#170; &#215;&#144;&#215;&#151;&#215;&#147; &#215;&#145;&#215;&#156;&#215;&#145;&#215;&#147;: &#215;&#144;&#215;&#168;&#215;&#153;&#215;&#150;&#215;&#148;, &#215;&#164;&#215;&#168;&#215;&#153;&#215;&#167;&#215;&#148;, &#215;&#144;&#215;&#149; &#215;&#161;&#215;&#153;&#215;&#147;&#215;&#149;&#215;&#168; &#215;&#148;&#215;&#145;&#215;&#153;&#215;&#170; &#215;&#144;&#215;&#157; &#215;&#160;&#215;&#145;&#215;&#151;&#215;&#168;&#215;&#148; &#215;&#144;&#215;&#168;&#215;&#153;&#215;&#150;&#215;&#148;, &#215;&#160;&#215;&#162;&#215;&#169;&#215;&#153;&#215;&#170; &#215;&#162;&#215;&#157; &#215;&#167;&#215;&#168;&#215;&#152;&#215;&#149;&#215;&#160;&#215;&#153;&#215;&#157; &#215;&#168;&#215;&#146;&#215;&#153;&#215;&#156;&#215;&#153;&#215;&#157; (&#215;&#156;&#215;&#144; &#215;&#144;&#215;&#168;&#215;&#146;&#215;&#150;&#215;&#153;&#215;&#157; &#215;&#168;&#215;&#145; &#215;&#164;&#215;&#162;&#215;&#158;&#215;&#153;&#215;&#153;&#215;&#157;) &#215;&#155;&#215;&#149;&#215;&#156;&#215;&#156; &#215;&#161;&#215;&#153;&#215;&#147;&#215;&#149;&#215;&#168; &#215;&#145;&#215;&#161;&#215;&#153;&#215;&#161;&#215;&#153; &#215;&#169;&#215;&#156;&#215;&#160;&#215;&#149;: &#215;&#169;&#215;&#158;&#215;&#153;&#215;&#168;&#215;&#148; &#215;&#162;&#215;&#156; &#215;&#161;&#215;&#147;&#215;&#168; &#215;&#149;&#215;&#170;&#215;&#155;&#215;&#149;&#215;&#156;&#215;&#148; &#215;&#158;&#215;&#161;&#215;&#149;&#215;&#147;&#215;&#168;&#215;&#170; &#215;&#156;&#215;&#164;&#215;&#153; &#215;&#167;&#215;&#152;&#215;&#146;&#215;&#149;&#215;&#168;&#215;&#153;&#215;&#149;&#215;&#170;" d="M91.9947 217.714C91.8867 218.146 91.7547 218.65 91.5987 219.226C91.4427 219.79 91.2747 220.36 91.0947 220.936C90.9147 221.512 90.7287 222.016 90.5367 222.448H88.6107C88.7427 221.896 88.8627 221.326 88.9707 220.738C89.0907 220.162 89.1927 219.598 89.2767 219.046C89.3727 218.494 89.4507 217.978 89.5107 217.498H91.8867L91.9947 217.714ZM100.127 220V213.016C100.127 212.476 99.9885 212.074 99.7125 211.81C99.4485 211.534 99.0705 211.396 98.5785 211.396H92.9805L93.2865 209.146H98.7225C100.091 209.146 101.123 209.47 101.819 210.118C102.515 210.754 102.863 211.702 102.863 212.962V220H100.127ZM93.2145 220V214.15L95.9505 214.006V220H93.2145ZM104.89 219.964C104.806 219.52 104.722 219.058 104.638 218.578C104.554 218.086 104.482 217.606 104.422 217.138C104.362 216.658 104.314 216.214 104.278 215.806C104.254 215.398 104.242 215.044 104.242 214.744C104.242 214.348 104.29 213.94 104.386 213.52C104.494 213.1 104.704 212.704 105.016 212.332C105.34 211.948 105.826 211.618 106.474 211.342L108.904 211.396C108.268 211.6 107.8 211.858 107.5 212.17C107.212 212.482 107.032 212.83 106.96 213.214C106.9 213.598 106.882 213.988 106.906 214.384C106.918 214.684 106.96 215.086 107.032 215.59C107.104 216.082 107.188 216.61 107.284 217.174C107.38 217.726 107.464 218.254 107.536 218.758C107.62 219.25 107.686 219.652 107.734 219.964H104.89ZM103.612 211.396V209.146H109.192L108.904 211.396H103.612ZM110.714 215.428V209.146H113.45V215.428H110.714ZM109.238 211.396L109.544 209.146H112.244V211.396H109.238ZM119.452 220V213.016C119.452 212.476 119.32 212.074 119.056 211.81C118.792 211.534 118.408 211.396 117.904 211.396H114.232L114.52 209.146H118.048C119.416 209.146 120.448 209.47 121.144 210.118C121.84 210.754 122.188 211.702 122.188 212.962V220H119.452ZM130.854 220C130.326 219.088 129.81 218.242 129.306 217.462C128.814 216.67 128.31 215.914 127.794 215.194C127.29 214.462 126.75 213.748 126.174 213.052C125.934 212.752 125.664 212.416 125.364 212.044C125.076 211.66 124.782 211.282 124.482 210.91C124.194 210.538 123.93 210.196 123.69 209.884C123.45 209.572 123.252 209.326 123.096 209.146H126.444C126.672 209.422 126.924 209.752 127.2 210.136C127.476 210.508 127.752 210.886 128.028 211.27C128.316 211.654 128.568 212.002 128.784 212.314C129.336 213.142 129.906 213.976 130.494 214.816C131.082 215.644 131.676 216.49 132.276 217.354C132.876 218.206 133.458 219.088 134.022 220H130.854ZM122.79 220L123.222 217.102C123.33 216.442 123.492 215.824 123.708 215.248C123.924 214.66 124.26 214.138 124.716 213.682C125.172 213.226 125.802 212.884 126.606 212.656L127.416 214.42C127.056 214.552 126.78 214.762 126.588 215.05C126.396 215.338 126.258 215.674 126.174 216.058C126.09 216.43 126.012 216.832 125.94 217.264L125.526 220H122.79ZM130.188 215.608L129.378 213.844C129.798 213.7 130.11 213.484 130.314 213.196C130.53 212.908 130.686 212.572 130.782 212.188C130.89 211.804 130.962 211.408 130.998 211L131.232 209.146H133.95L133.734 211.162C133.674 211.81 133.518 212.428 133.266 213.016C133.026 213.604 132.654 214.12 132.15 214.564C131.646 215.008 130.992 215.356 130.188 215.608ZM138.58 219.19C138.58 218.866 138.664 218.626 138.832 218.47C139.012 218.302 139.258 218.218 139.57 218.218C139.882 218.218 140.122 218.302 140.29 218.47C140.458 218.626 140.542 218.866 140.542 219.19C140.542 219.514 140.458 219.76 140.29 219.928C140.122 220.084 139.882 220.162 139.57 220.162C139.258 220.162 139.012 220.084 138.832 219.928C138.664 219.76 138.58 219.514 138.58 219.19ZM138.58 211.216C138.58 210.892 138.664 210.646 138.832 210.478C139.012 210.31 139.258 210.226 139.57 210.226C139.882 210.226 140.122 210.31 140.29 210.478C140.458 210.646 140.542 210.892 140.542 211.216C140.542 211.54 140.458 211.786 140.29 211.954C140.122 212.11 139.882 212.188 139.57 212.188C139.258 212.188 139.012 212.11 138.832 211.954C138.664 211.786 138.58 211.54 138.58 211.216ZM141.452 210.694V209.326H149.966L149.786 210.694H141.452ZM146.564 220V212.008C146.564 211.864 146.582 211.708 146.618 211.54C146.654 211.36 146.708 211.192 146.78 211.036C146.864 210.88 146.978 210.766 147.122 210.694H148.418C148.334 210.778 148.28 210.91 148.256 211.09C148.232 211.27 148.22 211.468 148.22 211.684V220H146.564ZM155.955 220V212.764C155.955 212.068 155.787 211.552 155.451 211.216C155.127 210.868 154.629 210.694 153.957 210.694H150.591L150.771 209.326H154.083C155.247 209.326 156.123 209.614 156.711 210.19C157.311 210.754 157.611 211.594 157.611 212.71V218.812C157.563 219.028 157.473 219.232 157.341 219.424C157.221 219.616 157.083 219.808 156.927 220H155.955ZM150.051 220V218.632H158.943L158.745 220H150.051ZM160.161 209.326H166.659L166.479 210.37L163.257 220H161.547L164.697 210.694H158.505V206.518L160.161 206.32V209.326ZM172.939 220V212.764C172.939 212.068 172.771 211.552 172.435 211.216C172.111 210.868 171.613 210.694 170.941 210.694H167.575L167.755 209.326H171.067C172.231 209.326 173.107 209.614 173.695 210.19C174.295 210.754 174.595 211.594 174.595 212.71V218.812C174.547 219.028 174.457 219.232 174.325 219.424C174.205 219.616 174.067 219.808 173.911 220H172.939ZM167.035 220V218.632H175.927L175.729 220H167.035ZM180.133 210.694V209.326H188.647L188.467 210.694H180.133ZM185.245 220V212.008C185.245 211.864 185.263 211.708 185.299 211.54C185.335 211.36 185.389 211.192 185.461 211.036C185.545 210.88 185.659 210.766 185.803 210.694H187.099C187.015 210.778 186.961 210.91 186.937 211.09C186.913 211.27 186.901 211.468 186.901 211.684V220H185.245ZM195.261 209.326C196.425 209.326 197.301 209.614 197.889 210.19C198.489 210.754 198.789 211.594 198.789 212.71V220H197.133V212.764C197.133 212.068 196.965 211.552 196.629 211.216C196.305 210.868 195.813 210.694 195.153 210.694H191.949C191.877 210.802 191.799 211.006 191.715 211.306C191.631 211.606 191.589 212.074 191.589 212.71V220H189.933V213.124C189.933 212.596 189.987 212.122 190.095 211.702C190.203 211.27 190.359 210.94 190.563 210.712L190.203 210.64V209.326H195.261ZM188.997 210.694L189.177 209.326H193.137V210.694H188.997ZM207.961 220C207.433 219.1 206.893 218.23 206.341 217.39C205.789 216.55 205.237 215.758 204.685 215.014C204.145 214.258 203.611 213.556 203.083 212.908C202.783 212.536 202.489 212.176 202.201 211.828C201.913 211.468 201.643 211.132 201.391 210.82C201.151 210.508 200.923 210.226 200.707 209.974C200.503 209.722 200.323 209.506 200.167 209.326H202.165C202.393 209.59 202.633 209.884 202.885 210.208C203.137 210.532 203.413 210.886 203.713 211.27C204.013 211.642 204.343 212.056 204.703 212.512C205.219 213.22 205.771 213.982 206.359 214.798C206.947 215.614 207.541 216.46 208.141 217.336C208.741 218.212 209.311 219.1 209.851 220H207.961ZM199.771 220L200.203 217.012C200.299 216.316 200.449 215.68 200.653 215.104C200.869 214.516 201.181 214.006 201.589 213.574C201.997 213.13 202.543 212.77 203.227 212.494L203.767 213.574C203.335 213.778 202.993 214.054 202.741 214.402C202.489 214.738 202.297 215.134 202.165 215.59C202.033 216.034 201.925 216.526 201.841 217.066L201.409 220H199.771ZM206.395 215.572L205.855 214.492C206.311 214.276 206.683 214 206.971 213.664C207.259 213.328 207.475 212.938 207.619 212.494C207.775 212.05 207.877 211.558 207.925 211.018L208.087 209.326H209.743L209.581 211.072C209.521 211.768 209.371 212.404 209.131 212.98C208.891 213.556 208.543 214.06 208.087 214.492C207.643 214.924 207.079 215.284 206.395 215.572ZM222.69 220V212.764C222.69 212.068 222.522 211.552 222.186 211.216C221.862 210.868 221.364 210.694 220.692 210.694H216.03V209.326H220.818C221.982 209.326 222.858 209.614 223.446 210.19C224.046 210.754 224.346 211.594 224.346 212.71V220H222.69ZM213.978 220L214.176 218.632H214.824C215.1 218.632 215.322 218.578 215.49 218.47C215.67 218.35 215.802 218.176 215.886 217.948C215.982 217.72 216.03 217.426 216.03 217.066V209.686H217.686V217.156C217.686 218.08 217.464 218.788 217.02 219.28C216.576 219.76 215.934 220 215.094 220H213.978ZM214.338 210.694L214.536 209.326H216.822V210.694H214.338ZM226.992 220V209.326H228.648V220H226.992ZM225.354 210.694L225.552 209.326H228.072V210.694H225.354ZM235.492 220V212.764C235.492 212.068 235.324 211.552 234.988 211.216C234.664 210.868 234.172 210.694 233.512 210.694H229.804L230.002 209.326H233.62C234.784 209.326 235.66 209.614 236.248 210.19C236.848 210.754 237.148 211.594 237.148 212.71V220H235.492ZM239.476 215.284V209.326H241.132V215.284H239.476ZM237.838 210.694L238.036 209.326H240.412V210.694H237.838ZM247.925 220.054C246.797 220.054 245.837 219.814 245.045 219.334C244.265 218.854 243.665 218.152 243.245 217.228C242.825 216.292 242.615 215.146 242.615 213.79V209.326H244.271V213.79C244.271 214.882 244.409 215.8 244.685 216.544C244.973 217.276 245.387 217.828 245.927 218.2C246.467 218.56 247.127 218.74 247.907 218.74H248.087C248.891 218.74 249.569 218.56 250.121 218.2C250.673 217.828 251.087 217.276 251.363 216.544C251.651 215.812 251.795 214.9 251.795 213.808V209.326H253.433V213.79C253.433 215.146 253.223 216.292 252.803 217.228C252.395 218.152 251.795 218.854 251.003 219.334C250.211 219.814 249.251 220.054 248.123 220.054H247.925ZM243.839 215.86L243.713 214.708C244.517 214.744 245.177 214.636 245.693 214.384C246.209 214.12 246.587 213.718 246.827 213.178C247.079 212.638 247.205 211.984 247.205 211.216V209.326H248.861V211.108C248.861 211.864 248.759 212.542 248.555 213.142C248.351 213.73 248.039 214.234 247.619 214.654C247.211 215.062 246.689 215.368 246.053 215.572C245.429 215.776 244.691 215.872 243.839 215.86ZM266.805 220V212.764C266.805 212.068 266.637 211.552 266.301 211.216C265.977 210.868 265.479 210.694 264.807 210.694H260.145V209.326H264.933C266.097 209.326 266.973 209.614 267.561 210.19C268.161 210.754 268.461 211.594 268.461 212.71V220H266.805ZM258.093 220L258.291 218.632H258.939C259.215 218.632 259.437 218.578 259.605 218.47C259.785 218.35 259.917 218.176 260.001 217.948C260.097 217.72 260.145 217.426 260.145 217.066V209.686H261.801V217.156C261.801 218.08 261.579 218.788 261.135 219.28C260.691 219.76 260.049 220 259.209 220H258.093ZM258.453 210.694L258.651 209.326H260.937V210.694H258.453ZM274.806 220V212.764C274.806 212.068 274.638 211.552 274.302 211.216C273.978 210.868 273.486 210.694 272.826 210.694H269.118L269.316 209.326H272.934C274.098 209.326 274.974 209.614 275.562 210.19C276.162 210.754 276.462 211.594 276.462 212.71V220H274.806ZM283.876 209.326C285.04 209.326 285.916 209.614 286.504 210.19C287.104 210.754 287.404 211.594 287.404 212.71V220H285.748V212.764C285.748 212.068 285.58 211.552 285.244 211.216C284.92 210.868 284.428 210.694 283.768 210.694H280.564C280.492 210.802 280.414 211.006 280.33 211.306C280.246 211.606 280.204 212.074 280.204 212.71V220H278.548V213.124C278.548 212.596 278.602 212.122 278.71 211.702C278.818 211.27 278.974 210.94 279.178 210.712L278.818 210.64V209.326H283.876ZM277.612 210.694L277.792 209.326H281.752V210.694H277.612ZM290.06 220V209.326H291.716V220H290.06ZM288.422 210.694L288.62 209.326H291.14V210.694H288.422ZM298.794 220V212.764C298.794 212.068 298.626 211.552 298.29 211.216C297.966 210.868 297.468 210.694 296.796 210.694H293.43L293.61 209.326H296.922C298.086 209.326 298.962 209.614 299.55 210.19C300.15 210.754 300.45 211.594 300.45 212.71V218.812C300.402 219.028 300.312 219.232 300.18 219.424C300.06 219.616 299.922 219.808 299.766 220H298.794ZM292.89 220V218.632H301.782L301.584 220H292.89ZM314.647 220V212.764C314.647 212.068 314.479 211.552 314.143 211.216C313.819 210.868 313.321 210.694 312.649 210.694H307.987V209.326H312.775C313.939 209.326 314.815 209.614 315.403 210.19C316.003 210.754 316.303 211.594 316.303 212.71V220H314.647ZM305.935 220L306.133 218.632H306.781C307.057 218.632 307.279 218.578 307.447 218.47C307.627 218.35 307.759 218.176 307.843 217.948C307.939 217.72 307.987 217.426 307.987 217.066V209.686H309.643V217.156C309.643 218.08 309.421 218.788 308.977 219.28C308.533 219.76 307.891 220 307.051 220H305.935ZM306.295 210.694L306.493 209.326H308.779V210.694H306.295ZM325.465 220C324.937 219.1 324.397 218.23 323.845 217.39C323.293 216.55 322.741 215.758 322.189 215.014C321.649 214.258 321.115 213.556 320.587 212.908C320.287 212.536 319.993 212.176 319.705 211.828C319.417 211.468 319.147 211.132 318.895 210.82C318.655 210.508 318.427 210.226 318.211 209.974C318.007 209.722 317.827 209.506 317.671 209.326H319.669C319.897 209.59 320.137 209.884 320.389 210.208C320.641 210.532 320.917 210.886 321.217 211.27C321.517 211.642 321.847 212.056 322.207 212.512C322.723 213.22 323.275 213.982 323.863 214.798C324.451 215.614 325.045 216.46 325.645 217.336C326.245 218.212 326.815 219.1 327.355 220H325.465ZM317.275 220L317.707 217.012C317.803 216.316 317.953 215.68 318.157 215.104C318.373 214.516 318.685 214.006 319.093 213.574C319.501 213.13 320.047 212.77 320.731 212.494L321.271 213.574C320.839 213.778 320.497 214.054 320.245 214.402C319.993 214.738 319.801 215.134 319.669 215.59C319.537 216.034 319.429 216.526 319.345 217.066L318.913 220H317.275ZM323.899 215.572L323.359 214.492C323.815 214.276 324.187 214 324.475 213.664C324.763 213.328 324.979 212.938 325.123 212.494C325.279 212.05 325.381 211.558 325.429 211.018L325.591 209.326H327.247L327.085 211.072C327.025 211.768 326.875 212.404 326.635 212.98C326.395 213.556 326.047 214.06 325.591 214.492C325.147 214.924 324.583 215.284 323.899 215.572ZM182.577 246V239.016C182.577 238.476 182.445 238.074 182.181 237.81C181.917 237.534 181.533 237.396 181.029 237.396H176.007V235.146H181.173C182.541 235.146 183.573 235.47 184.269 236.118C184.965 236.754 185.313 237.702 185.313 238.962V246H182.577ZM174.081 246L174.369 243.75H175.017C175.245 243.75 175.431 243.708 175.575 243.624C175.719 243.528 175.827 243.39 175.899 243.21C175.971 243.03 176.007 242.808 176.007 242.544V235.668H178.743V242.472C178.743 243.624 178.473 244.5 177.933 245.1C177.405 245.7 176.619 246 175.575 246H174.081ZM174.351 237.396L174.657 235.146H177.537V237.396H174.351ZM187.214 241.428V235.146H189.95V241.428H187.214ZM185.738 237.396L186.044 235.146H188.744V237.396H185.738ZM196.24 246V239.016C196.24 238.476 196.108 238.074 195.844 237.81C195.58 237.534 195.202 237.396 194.71 237.396H191.164L191.47 235.146H194.854C196.21 235.146 197.236 235.47 197.932 236.118C198.628 236.754 198.976 237.702 198.976 238.962V243.93C198.892 244.29 198.73 244.644 198.49 244.992C198.262 245.34 198.028 245.676 197.788 246H196.24ZM190.624 246V243.75H200.326L200.038 246H190.624ZM207.818 246V239.016C207.818 238.476 207.68 238.074 207.404 237.81C207.14 237.534 206.762 237.396 206.27 237.396H200.672L200.978 235.146H206.414C207.782 235.146 208.814 235.47 209.51 236.118C210.206 236.754 210.554 237.702 210.554 238.962V246H207.818ZM200.906 246V240.15L203.642 240.006V246H200.906ZM220.339 246V239.016C220.339 238.476 220.207 238.074 219.943 237.81C219.679 237.534 219.295 237.396 218.791 237.396H215.119L215.407 235.146H218.935C220.303 235.146 221.335 235.47 222.031 236.118C222.727 236.754 223.075 237.702 223.075 238.962V246H220.339ZM224.929 246V235.146H227.665V246H224.929ZM223.453 237.396L223.759 235.146H226.729V237.396H223.453ZM228.535 237.396V235.146H237.787L237.481 237.396H228.535ZM233.251 246V239.178C233.251 239.01 233.275 238.812 233.323 238.584C233.371 238.344 233.455 238.116 233.575 237.9C233.707 237.684 233.887 237.516 234.115 237.396H236.293C236.149 237.504 236.059 237.654 236.023 237.846C235.999 238.038 235.987 238.266 235.987 238.53V246H233.251ZM239.294 241.428V235.146H242.03V241.428H239.294ZM237.818 237.396L238.124 235.146H240.824V237.396H237.818ZM248.446 246.162C246.73 246.162 245.44 245.73 244.576 244.866C243.724 243.99 243.298 242.754 243.298 241.158V240.996C243.298 240.156 243.442 239.43 243.73 238.818C244.03 238.206 244.402 237.768 244.846 237.504V237.252L247.168 237.198L247.078 237.432C246.694 237.588 246.418 237.93 246.25 238.458C246.094 238.986 246.016 239.646 246.016 240.438C246.016 241.578 246.202 242.454 246.574 243.066C246.958 243.678 247.582 243.984 248.446 243.984C249.322 243.984 249.952 243.654 250.336 242.994C250.72 242.334 250.912 241.392 250.912 240.168C250.912 239.28 250.762 238.596 250.462 238.116C250.174 237.636 249.64 237.396 248.86 237.396H242.848L243.136 235.146H248.878C250.51 235.146 251.71 235.584 252.478 236.46C253.258 237.336 253.648 238.578 253.648 240.186C253.648 242.082 253.21 243.552 252.334 244.596C251.47 245.64 250.174 246.162 248.446 246.162ZM259.356 246V235.146H262.092V246H259.356ZM257.88 237.396L258.186 235.146H261.156V237.396H257.88ZM270.846 246C270.318 245.088 269.802 244.242 269.298 243.462C268.806 242.67 268.302 241.914 267.786 241.194C267.282 240.462 266.742 239.748 266.166 239.052C265.926 238.752 265.656 238.416 265.356 238.044C265.068 237.66 264.774 237.282 264.474 236.91C264.186 236.538 263.922 236.196 263.682 235.884C263.442 235.572 263.244 235.326 263.088 235.146H266.436C266.664 235.422 266.916 235.752 267.192 236.136C267.468 236.508 267.744 236.886 268.02 237.27C268.308 237.654 268.56 238.002 268.776 238.314C269.328 239.142 269.898 239.976 270.486 240.816C271.074 241.644 271.668 242.49 272.268 243.354C272.868 244.206 273.45 245.088 274.014 246H270.846ZM262.782 246L263.214 243.102C263.322 242.442 263.484 241.824 263.7 241.248C263.916 240.66 264.252 240.138 264.708 239.682C265.164 239.226 265.794 238.884 266.598 238.656L267.408 240.42C267.048 240.552 266.772 240.762 266.58 241.05C266.388 241.338 266.25 241.674 266.166 242.058C266.082 242.43 266.004 242.832 265.932 243.264L265.518 246H262.782ZM270.18 241.608L269.37 239.844C269.79 239.7 270.102 239.484 270.306 239.196C270.522 238.908 270.678 238.572 270.774 238.188C270.882 237.804 270.954 237.408 270.99 237L271.224 235.146H273.942L273.726 237.162C273.666 237.81 273.51 238.428 273.258 239.016C273.018 239.604 272.646 240.12 272.142 240.564C271.638 241.008 270.984 241.356 270.18 241.608ZM281.272 243.714C281.164 244.146 281.032 244.65 280.876 245.226C280.72 245.79 280.552 246.36 280.372 246.936C280.192 247.512 280.006 248.016 279.814 248.448H277.888C278.02 247.896 278.14 247.326 278.248 246.738C278.368 246.162 278.47 245.598 278.554 245.046C278.65 244.494 278.728 243.978 278.788 243.498H281.164L281.272 243.714ZM289.404 246V239.016C289.404 238.476 289.266 238.074 288.99 237.81C288.726 237.534 288.348 237.396 287.856 237.396H282.258L282.564 235.146H288C289.368 235.146 290.4 235.47 291.096 236.118C291.792 236.754 292.14 237.702 292.14 238.962V246H289.404ZM282.492 246V240.15L285.228 240.006V246H282.492ZM297.912 246L300.414 237.378H293.034L293.322 235.146H303.51L303.33 236.766L300.648 246H297.912ZM293.466 249.312V239.682L296.202 239.52V249.168L293.466 249.312ZM305.089 241.428V235.146H307.825V241.428H305.089ZM303.613 237.396L303.919 235.146H306.619V237.396H303.613ZM313.827 246V239.016C313.827 238.476 313.695 238.074 313.431 237.81C313.167 237.534 312.783 237.396 312.279 237.396H308.607L308.895 235.146H312.423C313.791 235.146 314.823 235.47 315.519 236.118C316.215 236.754 316.563 237.702 316.563 238.962V246H313.827ZM317.723 246V243.75H321.539C322.187 243.75 322.733 243.618 323.177 243.354C323.621 243.078 323.957 242.7 324.185 242.22C324.425 241.728 324.545 241.146 324.545 240.474C324.545 239.466 324.347 238.674 323.951 238.098C323.555 237.51 322.919 237.216 322.043 237.216C321.335 237.216 320.819 237.366 320.495 237.666C320.183 237.966 320.027 238.356 320.027 238.836C320.027 239.172 320.105 239.46 320.261 239.7C320.429 239.94 320.669 240.102 320.981 240.186C321.089 240.222 321.197 240.258 321.305 240.294C321.413 240.318 321.503 240.33 321.575 240.33L321.359 242.292C321.191 242.316 320.999 242.322 320.783 242.31C320.567 242.286 320.297 242.244 319.973 242.184C319.181 242.028 318.551 241.65 318.083 241.05C317.627 240.438 317.399 239.67 317.399 238.746C317.399 238.014 317.573 237.366 317.921 236.802C318.269 236.226 318.785 235.776 319.469 235.452C320.165 235.128 321.023 234.966 322.043 234.966C323.723 234.966 325.025 235.458 325.949 236.442C326.873 237.414 327.335 238.758 327.335 240.474C327.335 241.614 327.095 242.598 326.615 243.426C326.147 244.254 325.457 244.89 324.545 245.334C323.645 245.778 322.553 246 321.269 246H317.723ZM85.7274 287.326C86.8914 287.326 87.7674 287.614 88.3554 288.19C88.9554 288.754 89.2554 289.594 89.2554 290.71V298H80.2734V290.008C80.2734 289.864 80.2914 289.708 80.3274 289.54C80.3634 289.36 80.4174 289.192 80.4894 289.036C80.5734 288.88 80.6874 288.766 80.8314 288.694H79.1574L79.3374 287.326H85.7274ZM87.5994 296.632V290.764C87.5994 290.068 87.4314 289.552 87.0954 289.216C86.7714 288.868 86.2734 288.694 85.6014 288.694H82.0554C82.0074 288.814 81.9714 288.964 81.9474 289.144C81.9354 289.324 81.9294 289.504 81.9294 289.684V296.632H87.5994ZM91.3572 293.284V287.326H93.0132V293.284H91.3572ZM89.7192 288.694L89.9172 287.326H92.2932V288.694H89.7192ZM96.9317 298V289.99C96.9317 289.69 96.8837 289.444 96.7877 289.252C96.7037 289.048 96.5717 288.904 96.3917 288.82C96.2117 288.736 95.9897 288.694 95.7257 288.694H94.5017L94.6817 287.326H96.1397C96.9317 287.326 97.5377 287.542 97.9577 287.974C98.3777 288.394 98.5877 289.012 98.5877 289.828V298H96.9317ZM93.9617 298V296.632H97.7237V298H93.9617ZM101.24 298V287.326H102.896V298H101.24ZM99.602 288.694L99.8 287.326H102.32V288.694H99.602ZM109.02 298.18C107.532 298.18 106.38 297.676 105.564 296.668C104.76 295.648 104.358 294.148 104.358 292.168V287.326H106.014V292.168C106.014 293.704 106.278 294.874 106.806 295.678C107.334 296.47 108.06 296.866 108.984 296.866C109.98 296.866 110.76 296.47 111.324 295.678C111.888 294.874 112.17 293.704 112.17 292.168C112.17 291.016 112.014 290.128 111.702 289.504C111.39 288.868 110.85 288.556 110.082 288.568C109.818 288.568 109.566 288.586 109.326 288.622C109.098 288.658 108.858 288.706 108.606 288.766V287.434C108.906 287.374 109.194 287.326 109.47 287.29C109.758 287.254 110.052 287.236 110.352 287.236C111.588 287.224 112.476 287.65 113.016 288.514C113.556 289.366 113.826 290.584 113.826 292.168C113.826 294.148 113.406 295.648 112.566 296.668C111.726 297.676 110.544 298.18 109.02 298.18ZM119.797 298V290.764C119.797 290.068 119.629 289.552 119.293 289.216C118.969 288.868 118.477 288.694 117.817 288.694H114.109L114.307 287.326H117.925C119.089 287.326 119.965 287.614 120.553 288.19C121.153 288.754 121.453 289.594 121.453 290.71V298H119.797ZM127.715 298L130.595 288.676H122.963L123.161 287.326H132.485L132.341 288.37L129.371 298H127.715ZM123.503 301.438V291.286L125.159 291.16V301.348L123.503 301.438ZM143.399 287.326C144.563 287.326 145.439 287.614 146.027 288.19C146.627 288.754 146.927 289.594 146.927 290.71V298H137.945V290.008C137.945 289.864 137.963 289.708 137.999 289.54C138.035 289.36 138.089 289.192 138.161 289.036C138.245 288.88 138.359 288.766 138.503 288.694H136.829L137.009 287.326H143.399ZM145.271 296.632V290.764C145.271 290.068 145.103 289.552 144.767 289.216C144.443 288.868 143.945 288.694 143.273 288.694H139.727C139.679 288.814 139.643 288.964 139.619 289.144C139.607 289.324 139.601 289.504 139.601 289.684V296.632H145.271ZM147.936 298.648V297.262L151.572 296.452C152.1 296.32 152.574 296.146 152.994 295.93C153.426 295.702 153.792 295.366 154.092 294.922C154.404 294.478 154.656 293.872 154.848 293.104C155.04 292.336 155.166 291.34 155.226 290.116L155.406 287.326H157.062L156.9 290.116C156.852 291.112 156.75 291.994 156.594 292.762C156.45 293.518 156.246 294.178 155.982 294.742C155.718 295.306 155.382 295.786 154.974 296.182C154.578 296.578 154.098 296.908 153.534 297.172C152.982 297.436 152.334 297.652 151.59 297.82L147.936 298.648ZM150.78 297.244L148.422 287.434L150.024 287.218L151.878 294.886C151.938 295.126 151.956 295.384 151.932 295.66C151.908 295.924 151.848 296.194 151.752 296.47C151.668 296.734 151.554 296.992 151.41 297.244H150.78ZM170.115 298V290.764C170.115 290.068 169.947 289.552 169.611 289.216C169.287 288.868 168.789 288.694 168.117 288.694H163.455V287.326H168.243C169.407 287.326 170.283 287.614 170.871 288.19C171.471 288.754 171.771 289.594 171.771 290.71V298H170.115ZM161.403 298L161.601 296.632H162.249C162.525 296.632 162.747 296.578 162.915 296.47C163.095 296.35 163.227 296.176 163.311 295.948C163.407 295.72 163.455 295.426 163.455 295.066V287.686H165.111V295.156C165.111 296.08 164.889 296.788 164.445 297.28C164.001 297.76 163.359 298 162.519 298H161.403ZM161.763 288.694L161.961 287.326H164.247V288.694H161.763ZM174.066 293.284V287.326H175.722V293.284H174.066ZM172.428 288.694L172.626 287.326H175.002V288.694H172.428ZM182.515 298.054C181.387 298.054 180.427 297.814 179.635 297.334C178.855 296.854 178.255 296.152 177.835 295.228C177.415 294.292 177.205 293.146 177.205 291.79V287.326H178.861V291.79C178.861 292.882 178.999 293.8 179.275 294.544C179.563 295.276 179.977 295.828 180.517 296.2C181.057 296.56 181.717 296.74 182.497 296.74H182.677C183.481 296.74 184.159 296.56 184.711 296.2C185.263 295.828 185.677 295.276 185.953 294.544C186.241 293.812 186.385 292.9 186.385 291.808V287.326H188.023V291.79C188.023 293.146 187.813 294.292 187.393 295.228C186.985 296.152 186.385 296.854 185.593 297.334C184.801 297.814 183.841 298.054 182.713 298.054H182.515ZM178.429 293.86L178.303 292.708C179.107 292.744 179.767 292.636 180.283 292.384C180.799 292.12 181.177 291.718 181.417 291.178C181.669 290.638 181.795 289.984 181.795 289.216V287.326H183.451V289.108C183.451 289.864 183.349 290.542 183.145 291.142C182.941 291.73 182.629 292.234 182.209 292.654C181.801 293.062 181.279 293.368 180.643 293.572C180.019 293.776 179.281 293.872 178.429 293.86ZM188.885 298.648V297.262L192.521 296.452C193.049 296.32 193.523 296.146 193.943 295.93C194.375 295.702 194.741 295.366 195.041 294.922C195.353 294.478 195.605 293.872 195.797 293.104C195.989 292.336 196.115 291.34 196.175 290.116L196.355 287.326H198.011L197.849 290.116C197.801 291.112 197.699 291.994 197.543 292.762C197.399 293.518 197.195 294.178 196.931 294.742C196.667 295.306 196.331 295.786 195.923 296.182C195.527 296.578 195.047 296.908 194.483 297.172C193.931 297.436 193.283 297.652 192.539 297.82L188.885 298.648ZM191.729 297.244L189.371 287.434L190.973 287.218L192.827 294.886C192.887 295.126 192.905 295.384 192.881 295.66C192.857 295.924 192.797 296.194 192.701 296.47C192.617 296.734 192.503 296.992 192.359 297.244H191.729ZM201.705 298V289.99C201.705 289.69 201.657 289.444 201.561 289.252C201.477 289.048 201.345 288.904 201.165 288.82C200.985 288.736 200.763 288.694 200.499 288.694H199.275L199.455 287.326H200.913C201.705 287.326 202.311 287.542 202.731 287.974C203.151 288.394 203.361 289.012 203.361 289.828V298H201.705ZM198.735 298V296.632H202.497V298H198.735ZM210.639 295.912C210.543 296.356 210.423 296.848 210.279 297.388C210.147 297.916 209.997 298.438 209.829 298.954C209.673 299.482 209.505 299.962 209.325 300.394H208.155C208.311 299.818 208.449 299.26 208.569 298.72C208.689 298.192 208.797 297.676 208.893 297.172C208.989 296.656 209.061 296.17 209.109 295.714H210.549L210.639 295.912ZM219.025 298V290.764C219.025 290.068 218.857 289.552 218.521 289.216C218.197 288.868 217.699 288.694 217.027 288.694H211.645L211.843 287.326H217.153C218.317 287.326 219.193 287.614 219.781 288.19C220.381 288.754 220.681 289.594 220.681 290.71V298H219.025ZM211.933 298V291.934L213.589 291.808V298H211.933ZM223.155 297.982C223.071 297.466 222.987 296.92 222.903 296.344C222.819 295.768 222.747 295.204 222.687 294.652C222.627 294.088 222.579 293.572 222.543 293.104C222.519 292.636 222.507 292.246 222.507 291.934C222.507 291.55 222.561 291.148 222.669 290.728C222.777 290.308 222.975 289.918 223.263 289.558C223.551 289.186 223.953 288.886 224.469 288.658L226.161 288.694C225.549 288.874 225.093 289.132 224.793 289.468C224.505 289.804 224.319 290.176 224.235 290.584C224.151 290.98 224.115 291.37 224.127 291.754C224.139 292.066 224.169 292.48 224.217 292.996C224.277 293.5 224.343 294.052 224.415 294.652C224.487 295.24 224.565 295.828 224.649 296.416C224.733 297.004 224.805 297.526 224.865 297.982H223.155ZM221.733 288.694V287.326H226.359L226.161 288.694H221.733ZM228.24 293.284V287.326H229.896V293.284H228.24ZM226.602 288.694L226.8 287.326H229.176V288.694H226.602ZM236.635 298V290.764C236.635 290.068 236.467 289.552 236.131 289.216C235.807 288.868 235.315 288.694 234.655 288.694H230.947L231.145 287.326H234.763C235.927 287.326 236.803 287.614 237.391 288.19C237.991 288.754 238.291 289.594 238.291 290.71V298H236.635ZM247.486 298C246.958 297.1 246.418 296.23 245.866 295.39C245.314 294.55 244.762 293.758 244.21 293.014C243.67 292.258 243.136 291.556 242.608 290.908C242.308 290.536 242.014 290.176 241.726 289.828C241.438 289.468 241.168 289.132 240.916 288.82C240.676 288.508 240.448 288.226 240.232 287.974C240.028 287.722 239.848 287.506 239.692 287.326H241.69C241.918 287.59 242.158 287.884 242.41 288.208C242.662 288.532 242.938 288.886 243.238 289.27C243.538 289.642 243.868 290.056 244.228 290.512C244.744 291.22 245.296 291.982 245.884 292.798C246.472 293.614 247.066 294.46 247.666 295.336C248.266 296.212 248.836 297.1 249.376 298H247.486ZM239.296 298L239.728 295.012C239.824 294.316 239.974 293.68 240.178 293.104C240.394 292.516 240.706 292.006 241.114 291.574C241.522 291.13 242.068 290.77 242.752 290.494L243.292 291.574C242.86 291.778 242.518 292.054 242.266 292.402C242.014 292.738 241.822 293.134 241.69 293.59C241.558 294.034 241.45 294.526 241.366 295.066L240.934 298H239.296ZM245.92 293.572L245.38 292.492C245.836 292.276 246.208 292 246.496 291.664C246.784 291.328 247 290.938 247.144 290.494C247.3 290.05 247.402 289.558 247.45 289.018L247.612 287.326H249.268L249.106 289.072C249.046 289.768 248.896 290.404 248.656 290.98C248.416 291.556 248.068 292.06 247.612 292.492C247.168 292.924 246.604 293.284 245.92 293.572ZM261.207 298V290.764C261.207 290.068 261.039 289.552 260.703 289.216C260.379 288.868 259.881 288.694 259.209 288.694H253.827L254.025 287.326H259.335C260.499 287.326 261.375 287.614 261.963 288.19C262.563 288.754 262.863 289.594 262.863 290.71V298H261.207ZM254.115 298V291.934L255.771 291.808V298H254.115ZM269.566 298V290.764C269.566 290.068 269.398 289.552 269.062 289.216C268.738 288.868 268.246 288.694 267.586 288.694H263.878L264.076 287.326H267.694C268.858 287.326 269.734 287.614 270.322 288.19C270.922 288.754 271.222 289.594 271.222 290.71V298H269.566ZM278.636 287.326C279.8 287.326 280.676 287.614 281.264 288.19C281.864 288.754 282.164 289.594 282.164 290.71V298H280.508V290.764C280.508 290.068 280.34 289.552 280.004 289.216C279.68 288.868 279.188 288.694 278.528 288.694H275.324C275.252 288.802 275.174 289.006 275.09 289.306C275.006 289.606 274.964 290.074 274.964 290.71V298H273.308V291.124C273.308 290.596 273.362 290.122 273.47 289.702C273.578 289.27 273.734 288.94 273.938 288.712L273.578 288.64V287.326H278.636ZM272.372 288.694L272.552 287.326H276.512V288.694H272.372ZM289.14 298V290.764C289.14 290.068 288.972 289.552 288.636 289.216C288.312 288.868 287.814 288.694 287.142 288.694H283.776L283.956 287.326H287.268C288.432 287.326 289.308 287.614 289.896 288.19C290.496 288.754 290.796 289.594 290.796 290.71V296.812C290.748 297.028 290.658 297.232 290.526 297.424C290.406 297.616 290.268 297.808 290.112 298H289.14ZM283.236 298V296.632H292.128L291.93 298H283.236ZM295.633 298V289.99C295.633 289.69 295.585 289.444 295.489 289.252C295.405 289.048 295.273 288.904 295.093 288.82C294.913 288.736 294.691 288.694 294.427 288.694H293.203L293.383 287.326H294.841C295.633 287.326 296.239 287.542 296.659 287.974C297.079 288.394 297.289 289.012 297.289 289.828V298H295.633ZM292.663 298V296.632H296.425V298H292.663ZM308.923 287.326C310.087 287.326 310.963 287.614 311.551 288.19C312.151 288.754 312.451 289.594 312.451 290.71V298H303.469V290.008C303.469 289.864 303.487 289.708 303.523 289.54C303.559 289.36 303.613 289.192 303.685 289.036C303.769 288.88 303.883 288.766 304.027 288.694H302.353L302.533 287.326H308.923ZM310.795 296.632V290.764C310.795 290.068 310.627 289.552 310.291 289.216C309.967 288.868 309.469 288.694 308.797 288.694H305.251C305.203 288.814 305.167 288.964 305.143 289.144C305.131 289.324 305.125 289.504 305.125 289.684V296.632H310.795ZM321.613 298C321.085 297.1 320.545 296.23 319.993 295.39C319.441 294.55 318.889 293.758 318.337 293.014C317.797 292.258 317.263 291.556 316.735 290.908C316.435 290.536 316.141 290.176 315.853 289.828C315.565 289.468 315.295 289.132 315.043 288.82C314.803 288.508 314.575 288.226 314.359 287.974C314.155 287.722 313.975 287.506 313.819 287.326H315.817C316.045 287.59 316.285 287.884 316.537 288.208C316.789 288.532 317.065 288.886 317.365 289.27C317.665 289.642 317.995 290.056 318.355 290.512C318.871 291.22 319.423 291.982 320.011 292.798C320.599 293.614 321.193 294.46 321.793 295.336C322.393 296.212 322.963 297.1 323.503 298H321.613ZM313.423 298L313.855 295.012C313.951 294.316 314.101 293.68 314.305 293.104C314.521 292.516 314.833 292.006 315.241 291.574C315.649 291.13 316.195 290.77 316.879 290.494L317.419 291.574C316.987 291.778 316.645 292.054 316.393 292.402C316.141 292.738 315.949 293.134 315.817 293.59C315.685 294.034 315.577 294.526 315.493 295.066L315.061 298H313.423ZM320.047 293.572L319.507 292.492C319.963 292.276 320.335 292 320.623 291.664C320.911 291.328 321.127 290.938 321.271 290.494C321.427 290.05 321.529 289.558 321.577 289.018L321.739 287.326H323.395L323.233 289.072C323.173 289.768 323.023 290.404 322.783 290.98C322.543 291.556 322.195 292.06 321.739 292.492C321.295 292.924 320.731 293.284 320.047 293.572ZM132.32 318.996C132.32 317.964 132.41 316.968 132.59 316.008C132.782 315.036 133.07 314.13 133.454 313.29C133.838 312.45 134.312 311.688 134.876 311.004H136.316C135.44 312.096 134.792 313.332 134.372 314.712C133.964 316.08 133.76 317.502 133.76 318.978C133.76 319.95 133.85 320.904 134.03 321.84C134.21 322.764 134.492 323.646 134.876 324.486C135.26 325.338 135.74 326.124 136.316 326.844H134.876C134.312 326.16 133.838 325.404 133.454 324.576C133.07 323.748 132.782 322.866 132.59 321.93C132.41 320.994 132.32 320.016 132.32 318.996ZM143.343 313.326C144.507 313.326 145.383 313.614 145.971 314.19C146.571 314.754 146.871 315.594 146.871 316.71V324H137.889V316.008C137.889 315.864 137.907 315.708 137.943 315.54C137.979 315.36 138.033 315.192 138.105 315.036C138.189 314.88 138.303 314.766 138.447 314.694H136.773L136.953 313.326H143.343ZM145.215 322.632V316.764C145.215 316.068 145.047 315.552 144.711 315.216C144.387 314.868 143.889 314.694 143.217 314.694H139.671C139.623 314.814 139.587 314.964 139.563 315.144C139.551 315.324 139.545 315.504 139.545 315.684V322.632H145.215ZM148.972 319.284V313.326H150.628V319.284H148.972ZM147.334 314.694L147.532 313.326H149.908V314.694H147.334ZM153.281 319.284V313.326H154.937V319.284H153.281ZM151.643 314.694L151.841 313.326H154.217V314.694H151.643ZM156.348 324L157.59 317.61L156.114 313.326H157.77L158.652 316.17H158.706C158.838 315.774 158.994 315.396 159.174 315.036C159.354 314.676 159.588 314.358 159.876 314.082C160.164 313.794 160.518 313.566 160.938 313.398C161.358 313.23 161.85 313.146 162.414 313.146C163.218 313.146 163.92 313.338 164.52 313.722C165.12 314.094 165.588 314.658 165.924 315.414C166.272 316.158 166.446 317.106 166.446 318.258V318.51C166.446 319.614 166.266 320.58 165.906 321.408C165.558 322.224 165.042 322.86 164.358 323.316C163.686 323.772 162.858 324 161.874 324H160.074L160.254 322.632H161.802C162.762 322.632 163.5 322.254 164.016 321.498C164.532 320.742 164.79 319.746 164.79 318.51V318.258C164.79 317.394 164.67 316.692 164.43 316.152C164.202 315.6 163.89 315.192 163.494 314.928C163.098 314.664 162.642 314.532 162.126 314.532C161.622 314.532 161.196 314.622 160.848 314.802C160.5 314.982 160.218 315.228 160.002 315.54C159.786 315.84 159.612 316.176 159.48 316.548C159.36 316.908 159.27 317.28 159.21 317.664L158.058 324H156.348ZM166.834 324.648V323.262L170.47 322.452C170.998 322.32 171.472 322.146 171.892 321.93C172.324 321.702 172.69 321.366 172.99 320.922C173.302 320.478 173.554 319.872 173.746 319.104C173.938 318.336 174.064 317.34 174.124 316.116L174.304 313.326H175.96L175.798 316.116C175.75 317.112 175.648 317.994 175.492 318.762C175.348 319.518 175.144 320.178 174.88 320.742C174.616 321.306 174.28 321.786 173.872 322.182C173.476 322.578 172.996 322.908 172.432 323.172C171.88 323.436 171.232 323.652 170.488 323.82L166.834 324.648ZM169.678 323.244L167.32 313.434L168.922 313.218L170.776 320.886C170.836 321.126 170.854 321.384 170.83 321.66C170.806 321.924 170.746 322.194 170.65 322.47C170.566 322.734 170.452 322.992 170.308 323.244H169.678ZM177.062 324V322.632H180.374C181.142 322.632 181.802 322.464 182.354 322.128C182.906 321.78 183.326 321.3 183.614 320.688C183.914 320.076 184.064 319.368 184.064 318.564C184.064 317.292 183.806 316.302 183.29 315.594C182.774 314.874 182 314.514 180.968 314.514C180.128 314.514 179.486 314.73 179.042 315.162C178.598 315.594 178.376 316.146 178.376 316.818C178.376 317.346 178.502 317.796 178.754 318.168C179.006 318.54 179.396 318.768 179.924 318.852C180.02 318.876 180.11 318.9 180.194 318.924C180.278 318.936 180.35 318.942 180.41 318.942L180.302 320.166C180.194 320.178 180.062 320.178 179.906 320.166C179.75 320.154 179.558 320.13 179.33 320.094C178.49 319.962 177.854 319.602 177.422 319.014C176.99 318.414 176.774 317.67 176.774 316.782C176.774 316.074 176.936 315.444 177.26 314.892C177.584 314.34 178.058 313.914 178.682 313.614C179.306 313.302 180.068 313.146 180.968 313.146C182.492 313.146 183.668 313.626 184.496 314.586C185.336 315.546 185.756 316.872 185.756 318.564C185.756 319.656 185.534 320.61 185.09 321.426C184.658 322.242 184.028 322.878 183.2 323.334C182.384 323.778 181.394 324 180.23 324H177.062ZM196.124 324V316.764C196.124 316.068 195.956 315.552 195.62 315.216C195.296 314.868 194.798 314.694 194.126 314.694H190.76L190.94 313.326H194.252C195.416 313.326 196.292 313.614 196.88 314.19C197.48 314.754 197.78 315.594 197.78 316.71V322.812C197.732 323.028 197.642 323.232 197.51 323.424C197.39 323.616 197.252 323.808 197.096 324H196.124ZM190.22 324V322.632H199.112L198.914 324H190.22ZM204.471 324V316.764C204.471 316.068 204.303 315.552 203.967 315.216C203.643 314.868 203.151 314.694 202.491 314.694H198.783L198.981 313.326H202.599C203.763 313.326 204.639 313.614 205.227 314.19C205.827 314.754 206.127 315.594 206.127 316.71V324H204.471ZM217.788 313.326C218.952 313.326 219.828 313.614 220.416 314.19C221.016 314.754 221.316 315.594 221.316 316.71V324H212.334V316.008C212.334 315.864 212.352 315.708 212.388 315.54C212.424 315.36 212.478 315.192 212.55 315.036C212.634 314.88 212.748 314.766 212.892 314.694H211.218L211.398 313.326H217.788ZM219.66 322.632V316.764C219.66 316.068 219.492 315.552 219.156 315.216C218.832 314.868 218.334 314.694 217.662 314.694H214.116C214.068 314.814 214.032 314.964 214.008 315.144C213.996 315.324 213.99 315.504 213.99 315.684V322.632H219.66ZM223.418 319.284V313.326H225.074V319.284H223.418ZM221.78 314.694L221.978 313.326H224.354V314.694H221.78ZM227.582 323.982C227.498 323.466 227.414 322.92 227.33 322.344C227.246 321.768 227.174 321.204 227.114 320.652C227.054 320.088 227.006 319.572 226.97 319.104C226.946 318.636 226.934 318.246 226.934 317.934C226.934 317.55 226.988 317.148 227.096 316.728C227.204 316.308 227.402 315.918 227.69 315.558C227.978 315.186 228.38 314.886 228.896 314.658L230.588 314.694C229.976 314.874 229.52 315.132 229.22 315.468C228.932 315.804 228.746 316.176 228.662 316.584C228.578 316.98 228.542 317.37 228.554 317.754C228.566 318.066 228.596 318.48 228.644 318.996C228.704 319.5 228.77 320.052 228.842 320.652C228.914 321.24 228.992 321.828 229.076 322.416C229.16 323.004 229.232 323.526 229.292 323.982H227.582ZM226.16 314.694V313.326H230.786L230.588 314.694H226.16ZM235.188 324.09L234.504 321.696H234.378C234.162 322.068 233.934 322.398 233.694 322.686C233.466 322.962 233.214 323.202 232.938 323.406C232.674 323.598 232.386 323.748 232.074 323.856C231.762 323.952 231.414 324 231.03 324H230.76V322.596H230.994C231.366 322.596 231.72 322.53 232.056 322.398C232.404 322.254 232.722 322.068 233.01 321.84C233.31 321.612 233.562 321.378 233.766 321.138C233.982 320.886 234.144 320.646 234.252 320.418V316.008C234.252 315.54 234.144 315.204 233.928 315C233.712 314.796 233.358 314.694 232.866 314.694H231.75L231.93 313.326H233.28C233.868 313.326 234.354 313.422 234.738 313.614C235.122 313.806 235.41 314.088 235.602 314.46C235.806 314.832 235.908 315.294 235.908 315.846V321.102L236.664 323.766L235.188 324.09ZM242.486 324V316.764C242.486 316.068 242.318 315.552 241.982 315.216C241.658 314.868 241.166 314.694 240.506 314.694H236.798L236.996 313.326H240.614C241.778 313.326 242.654 313.614 243.242 314.19C243.842 314.754 244.142 315.594 244.142 316.71V324H242.486ZM253.338 324C252.81 323.1 252.27 322.23 251.718 321.39C251.166 320.55 250.614 319.758 250.062 319.014C249.522 318.258 248.988 317.556 248.46 316.908C248.16 316.536 247.866 316.176 247.578 315.828C247.29 315.468 247.02 315.132 246.768 314.82C246.528 314.508 246.3 314.226 246.084 313.974C245.88 313.722 245.7 313.506 245.544 313.326H247.542C247.77 313.59 248.01 313.884 248.262 314.208C248.514 314.532 248.79 314.886 249.09 315.27C249.39 315.642 249.72 316.056 250.08 316.512C250.596 317.22 251.148 317.982 251.736 318.798C252.324 319.614 252.918 320.46 253.518 321.336C254.118 322.212 254.688 323.1 255.228 324H253.338ZM245.148 324L245.58 321.012C245.676 320.316 245.826 319.68 246.03 319.104C246.246 318.516 246.558 318.006 246.966 317.574C247.374 317.13 247.92 316.77 248.604 316.494L249.144 317.574C248.712 317.778 248.37 318.054 248.118 318.402C247.866 318.738 247.674 319.134 247.542 319.59C247.41 320.034 247.302 320.526 247.218 321.066L246.786 324H245.148ZM251.772 319.572L251.232 318.492C251.688 318.276 252.06 318 252.348 317.664C252.636 317.328 252.852 316.938 252.996 316.494C253.152 316.05 253.254 315.558 253.302 315.018L253.464 313.326H255.12L254.958 315.072C254.898 315.768 254.748 316.404 254.508 316.98C254.268 317.556 253.92 318.06 253.464 318.492C253.02 318.924 252.456 319.284 251.772 319.572ZM267.563 324C267.035 323.1 266.495 322.23 265.943 321.39C265.391 320.55 264.839 319.758 264.287 319.014C263.747 318.258 263.213 317.556 262.685 316.908C262.385 316.536 262.091 316.176 261.803 315.828C261.515 315.468 261.245 315.132 260.993 314.82C260.753 314.508 260.525 314.226 260.309 313.974C260.105 313.722 259.925 313.506 259.769 313.326H261.767C261.995 313.59 262.235 313.884 262.487 314.208C262.739 314.532 263.015 314.886 263.315 315.27C263.615 315.642 263.945 316.056 264.305 316.512C264.821 317.22 265.373 317.982 265.961 318.798C266.549 319.614 267.143 320.46 267.743 321.336C268.343 322.212 268.913 323.1 269.453 324H267.563ZM259.373 324L259.805 321.012C259.901 320.316 260.051 319.68 260.255 319.104C260.471 318.516 260.783 318.006 261.191 317.574C261.599 317.13 262.145 316.77 262.829 316.494L263.369 317.574C262.937 317.778 262.595 318.054 262.343 318.402C262.091 318.738 261.899 319.134 261.767 319.59C261.635 320.034 261.527 320.526 261.443 321.066L261.011 324H259.373ZM265.997 319.572L265.457 318.492C265.913 318.276 266.285 318 266.573 317.664C266.861 317.328 267.077 316.938 267.221 316.494C267.377 316.05 267.479 315.558 267.527 315.018L267.689 313.326H269.345L269.183 315.072C269.123 315.768 268.973 316.404 268.733 316.98C268.493 317.556 268.145 318.06 267.689 318.492C267.245 318.924 266.681 319.284 265.997 319.572ZM271.366 313.326H277.864L277.684 314.37L274.462 324H272.752L275.902 314.694H269.71V310.518L271.366 310.32V313.326ZM282.092 318.906C282.092 319.926 281.996 320.916 281.804 321.876C281.612 322.836 281.33 323.736 280.958 324.576C280.586 325.416 280.112 326.172 279.536 326.844H278.096C278.684 326.124 279.164 325.338 279.536 324.486C279.92 323.634 280.202 322.74 280.382 321.804C280.562 320.856 280.652 319.89 280.652 318.906C280.652 317.934 280.562 316.986 280.382 316.062C280.202 315.126 279.92 314.232 279.536 313.38C279.152 312.528 278.672 311.736 278.096 311.004H279.536C280.112 311.7 280.586 312.468 280.958 313.308C281.33 314.136 281.612 315.018 281.804 315.954C281.996 316.89 282.092 317.874 282.092 318.906ZM293.097 313.326C294.261 313.326 295.137 313.614 295.725 314.19C296.325 314.754 296.625 315.594 296.625 316.71V324H287.643V316.008C287.643 315.864 287.661 315.708 287.697 315.54C287.733 315.36 287.787 315.192 287.859 315.036C287.943 314.88 288.057 314.766 288.201 314.694H286.527L286.707 313.326H293.097ZM294.969 322.632V316.764C294.969 316.068 294.801 315.552 294.465 315.216C294.141 314.868 293.643 314.694 292.971 314.694H289.425C289.377 314.814 289.341 314.964 289.317 315.144C289.305 315.324 289.299 315.504 289.299 315.684V322.632H294.969ZM298.726 319.284V313.326H300.382V319.284H298.726ZM297.088 314.694L297.286 313.326H299.662V314.694H297.088ZM302.981 313.326H309.479L309.299 314.37L306.077 324H304.367L307.517 314.694H301.325V310.518L302.981 310.32V313.326ZM311.439 319.284V313.326H313.095V319.284H311.439ZM309.801 314.694L309.999 313.326H312.375V314.694H309.801ZM317.688 324.09L317.004 321.696H316.878C316.662 322.068 316.434 322.398 316.194 322.686C315.966 322.962 315.714 323.202 315.438 323.406C315.174 323.598 314.886 323.748 314.574 323.856C314.262 323.952 313.914 324 313.53 324H313.26V322.596H313.494C313.866 322.596 314.22 322.53 314.556 322.398C314.904 322.254 315.222 322.068 315.51 321.84C315.81 321.612 316.062 321.378 316.266 321.138C316.482 320.886 316.644 320.646 316.752 320.418V316.008C316.752 315.54 316.644 315.204 316.428 315C316.212 314.796 315.858 314.694 315.366 314.694H314.25L314.43 313.326H315.78C316.368 313.326 316.854 313.422 317.238 313.614C317.622 313.806 317.91 314.088 318.102 314.46C318.306 314.832 318.408 315.294 318.408 315.846V321.102L319.164 323.766L317.688 324.09ZM324.986 324V316.764C324.986 316.068 324.818 315.552 324.482 315.216C324.158 314.868 323.666 314.694 323.006 314.694H319.298L319.496 313.326H323.114C324.278 313.326 325.154 313.614 325.742 314.19C326.342 314.754 326.642 315.594 326.642 316.71V324H324.986ZM98.3696 365.326H104.868L104.688 366.37L101.466 376H99.7556L102.906 366.694H96.7136V362.518L98.3696 362.32V365.326ZM105.19 376.648V375.262L108.826 374.452C109.354 374.32 109.828 374.146 110.248 373.93C110.68 373.702 111.046 373.366 111.346 372.922C111.658 372.478 111.91 371.872 112.102 371.104C112.294 370.336 112.42 369.34 112.48 368.116L112.66 365.326H114.316L114.154 368.116C114.106 369.112 114.004 369.994 113.848 370.762C113.704 371.518 113.5 372.178 113.236 372.742C112.972 373.306 112.636 373.786 112.228 374.182C111.832 374.578 111.352 374.908 110.788 375.172C110.236 375.436 109.588 375.652 108.844 375.82L105.19 376.648ZM108.034 375.244L105.676 365.434L107.278 365.218L109.132 372.886C109.192 373.126 109.21 373.384 109.186 373.66C109.162 373.924 109.102 374.194 109.006 374.47C108.922 374.734 108.808 374.992 108.664 375.244H108.034ZM126.361 376V368.764C126.361 368.068 126.193 367.552 125.857 367.216C125.533 366.868 125.035 366.694 124.363 366.694H118.981L119.179 365.326H124.489C125.653 365.326 126.529 365.614 127.117 366.19C127.717 366.754 128.017 367.594 128.017 368.71V376H126.361ZM119.269 376V369.934L120.925 369.808V376H119.269ZM134.721 376V368.764C134.721 368.068 134.553 367.552 134.217 367.216C133.893 366.868 133.401 366.694 132.741 366.694H129.033L129.231 365.326H132.849C134.013 365.326 134.889 365.614 135.477 366.19C136.077 366.754 136.377 367.594 136.377 368.71V376H134.721ZM138.705 371.284V365.326H140.361V371.284H138.705ZM137.067 366.694L137.265 365.326H139.641V366.694H137.067ZM141.771 376L143.013 369.61L141.537 365.326H143.193L144.075 368.17H144.129C144.261 367.774 144.417 367.396 144.597 367.036C144.777 366.676 145.011 366.358 145.299 366.082C145.587 365.794 145.941 365.566 146.361 365.398C146.781 365.23 147.273 365.146 147.837 365.146C148.641 365.146 149.343 365.338 149.943 365.722C150.543 366.094 151.011 366.658 151.347 367.414C151.695 368.158 151.869 369.106 151.869 370.258V370.51C151.869 371.614 151.689 372.58 151.329 373.408C150.981 374.224 150.465 374.86 149.781 375.316C149.109 375.772 148.281 376 147.297 376H145.497L145.677 374.632H147.225C148.185 374.632 148.923 374.254 149.439 373.498C149.955 372.742 150.213 371.746 150.213 370.51V370.258C150.213 369.394 150.093 368.692 149.853 368.152C149.625 367.6 149.313 367.192 148.917 366.928C148.521 366.664 148.065 366.532 147.549 366.532C147.045 366.532 146.619 366.622 146.271 366.802C145.923 366.982 145.641 367.228 145.425 367.54C145.209 367.84 145.035 368.176 144.903 368.548C144.783 368.908 144.693 369.28 144.633 369.664L143.481 376H141.771ZM158.036 376.054C156.908 376.054 155.948 375.814 155.156 375.334C154.376 374.854 153.776 374.152 153.356 373.228C152.936 372.292 152.726 371.146 152.726 369.79V365.326H154.382V369.79C154.382 370.882 154.52 371.8 154.796 372.544C155.084 373.276 155.498 373.828 156.038 374.2C156.578 374.56 157.238 374.74 158.018 374.74H158.198C159.002 374.74 159.68 374.56 160.232 374.2C160.784 373.828 161.198 373.276 161.474 372.544C161.762 371.812 161.906 370.9 161.906 369.808V365.326H163.544V369.79C163.544 371.146 163.334 372.292 162.914 373.228C162.506 374.152 161.906 374.854 161.114 375.334C160.322 375.814 159.362 376.054 158.234 376.054H158.036ZM153.95 371.86L153.824 370.708C154.628 370.744 155.288 370.636 155.804 370.384C156.32 370.12 156.698 369.718 156.938 369.178C157.19 368.638 157.316 367.984 157.316 367.216V365.326H158.972V367.108C158.972 367.864 158.87 368.542 158.666 369.142C158.462 369.73 158.15 370.234 157.73 370.654C157.322 371.062 156.8 371.368 156.164 371.572C155.54 371.776 154.802 371.872 153.95 371.86ZM168.816 375.19C168.816 374.866 168.9 374.626 169.068 374.47C169.248 374.302 169.494 374.218 169.806 374.218C170.118 374.218 170.358 374.302 170.526 374.47C170.694 374.626 170.778 374.866 170.778 375.19C170.778 375.514 170.694 375.76 170.526 375.928C170.358 376.084 170.118 376.162 169.806 376.162C169.494 376.162 169.248 376.084 169.068 375.928C168.9 375.76 168.816 375.514 168.816 375.19ZM168.816 367.216C168.816 366.892 168.9 366.646 169.068 366.478C169.248 366.31 169.494 366.226 169.806 366.226C170.118 366.226 170.358 366.31 170.526 366.478C170.694 366.646 170.778 366.892 170.778 367.216C170.778 367.54 170.694 367.786 170.526 367.954C170.358 368.11 170.118 368.188 169.806 368.188C169.494 368.188 169.248 368.11 169.068 367.954C168.9 367.786 168.816 367.54 168.816 367.216ZM173.128 376V365.146H175.864V376H173.128ZM171.652 367.396L171.958 365.146H174.928V367.396H171.652ZM179.506 376V368.566C179.506 368.266 179.464 368.032 179.38 367.864C179.296 367.696 179.158 367.576 178.966 367.504C178.786 367.432 178.546 367.396 178.246 367.396H177.238L177.526 365.146H178.984C180.088 365.146 180.904 365.416 181.432 365.956C181.972 366.484 182.242 367.264 182.242 368.296V376H179.506ZM176.806 376V373.75H180.82V376H176.806ZM185.567 365.146H191.849L191.651 366.748L188.411 376H185.567L188.645 367.396H182.831V362.608L185.567 362.32V365.146ZM198.439 376.126C197.191 376.126 196.117 375.88 195.217 375.388C194.317 374.896 193.627 374.164 193.147 373.192C192.667 372.22 192.427 370.996 192.427 369.52V365.146H195.145V369.502C195.145 370.546 195.271 371.398 195.523 372.058C195.775 372.706 196.141 373.186 196.621 373.498C197.113 373.798 197.701 373.948 198.385 373.948H198.457C199.165 373.936 199.759 373.78 200.239 373.48C200.731 373.18 201.103 372.706 201.355 372.058C201.607 371.398 201.733 370.552 201.733 369.52V365.146H204.469V369.538C204.469 371.014 204.229 372.238 203.749 373.21C203.269 374.17 202.585 374.896 201.697 375.388C200.821 375.868 199.765 376.114 198.529 376.126H198.439ZM194.371 371.734L194.227 369.898C195.007 369.946 195.601 369.856 196.009 369.628C196.417 369.388 196.699 369.016 196.855 368.512C197.023 368.008 197.107 367.39 197.107 366.658V365.146H199.825V366.532C199.825 367.336 199.729 368.068 199.537 368.728C199.357 369.388 199.057 369.946 198.637 370.402C198.217 370.858 197.659 371.206 196.963 371.446C196.267 371.674 195.403 371.77 194.371 371.734ZM210.509 371.428V365.146H213.245V371.428H210.509ZM209.033 367.396L209.339 365.146H212.039V367.396H209.033ZM219.661 376.162C217.945 376.162 216.655 375.73 215.791 374.866C214.939 373.99 214.513 372.754 214.513 371.158V370.996C214.513 370.156 214.657 369.43 214.945 368.818C215.245 368.206 215.617 367.768 216.061 367.504V367.252L218.383 367.198L218.293 367.432C217.909 367.588 217.633 367.93 217.465 368.458C217.309 368.986 217.231 369.646 217.231 370.438C217.231 371.578 217.417 372.454 217.789 373.066C218.173 373.678 218.797 373.984 219.661 373.984C220.537 373.984 221.167 373.654 221.551 372.994C221.935 372.334 222.127 371.392 222.127 370.168C222.127 369.28 221.977 368.596 221.677 368.116C221.389 367.636 220.855 367.396 220.075 367.396H214.063L214.351 365.146H220.093C221.725 365.146 222.925 365.584 223.693 366.46C224.473 367.336 224.863 368.578 224.863 370.186C224.863 372.082 224.425 373.552 223.549 374.596C222.685 375.64 221.389 376.162 219.661 376.162ZM226.456 371.428V365.146H229.192V371.428H226.456ZM224.98 367.396L225.286 365.146H227.986V367.396H224.98ZM235.609 376.162C233.893 376.162 232.603 375.73 231.739 374.866C230.887 373.99 230.461 372.754 230.461 371.158V370.996C230.461 370.156 230.605 369.43 230.893 368.818C231.193 368.206 231.565 367.768 232.009 367.504V367.252L234.331 367.198L234.241 367.432C233.857 367.588 233.581 367.93 233.413 368.458C233.257 368.986 233.179 369.646 233.179 370.438C233.179 371.578 233.365 372.454 233.737 373.066C234.121 373.678 234.745 373.984 235.609 373.984C236.485 373.984 237.115 373.654 237.499 372.994C237.883 372.334 238.075 371.392 238.075 370.168C238.075 369.28 237.925 368.596 237.625 368.116C237.337 367.636 236.803 367.396 236.023 367.396H230.011L230.299 365.146H236.041C237.673 365.146 238.873 365.584 239.641 366.46C240.421 367.336 240.811 368.578 240.811 370.186C240.811 372.082 240.373 373.552 239.497 374.596C238.633 375.64 237.337 376.162 235.609 376.162ZM246.26 376V369.016C246.26 368.476 246.128 368.074 245.864 367.81C245.6 367.534 245.222 367.396 244.73 367.396H241.184L241.49 365.146H244.874C246.23 365.146 247.256 365.47 247.952 366.118C248.648 366.754 248.996 367.702 248.996 368.962V373.93C248.912 374.29 248.75 374.644 248.51 374.992C248.282 375.34 248.048 375.676 247.808 376H246.26ZM240.644 376V373.75H250.346L250.058 376H240.644ZM259.511 376V369.016C259.511 368.476 259.379 368.074 259.115 367.81C258.851 367.534 258.467 367.396 257.963 367.396H254.291L254.579 365.146H258.107C259.475 365.146 260.507 365.47 261.203 366.118C261.899 366.754 262.247 367.702 262.247 368.962V376H259.511ZM264.101 376V365.146H266.837V376H264.101ZM262.625 367.396L262.931 365.146H265.901V367.396H262.625ZM267.707 367.396V365.146H276.959L276.653 367.396H267.707ZM272.423 376V369.178C272.423 369.01 272.447 368.812 272.495 368.584C272.543 368.344 272.627 368.116 272.747 367.9C272.879 367.684 273.059 367.516 273.287 367.396H275.465C275.321 367.504 275.231 367.654 275.195 367.846C275.171 368.038 275.159 368.266 275.159 368.53V376H272.423ZM278.466 371.428V365.146H281.202V371.428H278.466ZM276.99 367.396L277.296 365.146H279.996V367.396H276.99ZM287.618 376.162C285.902 376.162 284.612 375.73 283.748 374.866C282.896 373.99 282.47 372.754 282.47 371.158V370.996C282.47 370.156 282.614 369.43 282.902 368.818C283.202 368.206 283.574 367.768 284.018 367.504V367.252L286.34 367.198L286.25 367.432C285.866 367.588 285.59 367.93 285.422 368.458C285.266 368.986 285.188 369.646 285.188 370.438C285.188 371.578 285.374 372.454 285.746 373.066C286.13 373.678 286.754 373.984 287.618 373.984C288.494 373.984 289.124 373.654 289.508 372.994C289.892 372.334 290.084 371.392 290.084 370.168C290.084 369.28 289.934 368.596 289.634 368.116C289.346 367.636 288.812 367.396 288.032 367.396H282.02L282.308 365.146H288.05C289.682 365.146 290.882 365.584 291.65 366.46C292.43 367.336 292.82 368.578 292.82 370.186C292.82 372.082 292.382 373.552 291.506 374.596C290.642 375.64 289.346 376.162 287.618 376.162ZM299.608 365.146H305.89L305.692 366.748L302.452 376H299.608L302.686 367.396H296.872V362.608L299.608 362.32V365.146ZM308.61 365.146H314.892L314.694 366.748L311.454 376H308.61L311.688 367.396H305.874V362.608L308.61 362.32V365.146ZM316.532 376V365.146H319.268V376H316.532ZM315.056 367.396L315.362 365.146H318.332V367.396H315.056ZM320.084 376V373.75H323.288C324.08 373.75 324.662 373.48 325.034 372.94C325.418 372.4 325.61 371.644 325.61 370.672C325.61 369.628 325.418 368.824 325.034 368.26C324.662 367.684 324.08 367.396 323.288 367.396H320.084L320.372 365.146H323.288C324.956 365.146 326.222 365.632 327.086 366.604C327.962 367.564 328.4 368.92 328.4 370.672C328.4 372.364 327.962 373.678 327.086 374.614C326.222 375.538 324.956 376 323.288 376H320.084ZM112.795 402V394.764C112.795 394.068 112.627 393.552 112.291 393.216C111.967 392.868 111.469 392.694 110.797 392.694H106.135V391.326H110.923C112.087 391.326 112.963 391.614 113.551 392.19C114.151 392.754 114.451 393.594 114.451 394.71V402H112.795ZM104.083 402L104.281 400.632H104.929C105.205 400.632 105.427 400.578 105.595 400.47C105.775 400.35 105.907 400.176 105.991 399.948C106.087 399.72 106.135 399.426 106.135 399.066V391.686H107.791V399.156C107.791 400.08 107.569 400.788 107.125 401.28C106.681 401.76 106.039 402 105.199 402H104.083ZM104.443 392.694L104.641 391.326H106.927V392.694H104.443ZM117.097 402V391.326H118.753V402H117.097ZM115.459 392.694L115.657 391.326H118.177V392.694H115.459ZM121.511 397.284V391.326H123.167V397.284H121.511ZM119.873 392.694L120.071 391.326H122.447V392.694H119.873ZM129.906 402V394.764C129.906 394.068 129.738 393.552 129.402 393.216C129.078 392.868 128.586 392.694 127.926 392.694H124.218L124.416 391.326H128.034C129.198 391.326 130.074 391.614 130.662 392.19C131.262 392.754 131.562 393.594 131.562 394.71V402H129.906ZM134.031 402V391.326H135.687V402H134.031ZM132.393 392.694L132.591 391.326H135.111V392.694H132.393ZM140.965 402.09L140.281 399.696H140.155C139.939 400.068 139.711 400.398 139.471 400.686C139.243 400.962 138.991 401.202 138.715 401.406C138.451 401.598 138.163 401.748 137.851 401.856C137.539 401.952 137.191 402 136.807 402H136.537V400.596H136.771C137.143 400.596 137.497 400.53 137.833 400.398C138.181 400.254 138.499 400.068 138.787 399.84C139.087 399.612 139.339 399.378 139.543 399.138C139.759 398.886 139.921 398.646 140.029 398.418V394.008C140.029 393.54 139.921 393.204 139.705 393C139.489 392.796 139.135 392.694 138.643 392.694H137.527L137.707 391.326H139.057C139.645 391.326 140.131 391.422 140.515 391.614C140.899 391.806 141.187 392.088 141.379 392.46C141.583 392.832 141.685 393.294 141.685 393.846V399.102L142.441 401.766L140.965 402.09ZM147.543 402.18C146.055 402.18 144.903 401.676 144.087 400.668C143.283 399.648 142.881 398.148 142.881 396.168V391.326H144.537V396.168C144.537 397.704 144.801 398.874 145.329 399.678C145.857 400.47 146.583 400.866 147.507 400.866C148.503 400.866 149.283 400.47 149.847 399.678C150.411 398.874 150.693 397.704 150.693 396.168C150.693 395.016 150.537 394.128 150.225 393.504C149.913 392.868 149.373 392.556 148.605 392.568C148.341 392.568 148.089 392.586 147.849 392.622C147.621 392.658 147.381 392.706 147.129 392.766V391.434C147.429 391.374 147.717 391.326 147.993 391.29C148.281 391.254 148.575 391.236 148.875 391.236C150.111 391.224 150.999 391.65 151.539 392.514C152.079 393.366 152.349 394.584 152.349 396.168C152.349 398.148 151.929 399.648 151.089 400.668C150.249 401.676 149.067 402.18 147.543 402.18ZM158.168 402L161.048 392.676H153.416L153.614 391.326H162.938L162.794 392.37L159.824 402H158.168ZM153.956 405.438V395.286L155.612 395.16V405.348L153.956 405.438ZM168.722 397.284V391.326H170.378V397.284H168.722ZM167.084 392.694L167.282 391.326H169.658V392.694H167.084ZM171.951 402V400.632H175.263C176.031 400.632 176.691 400.464 177.243 400.128C177.795 399.78 178.215 399.3 178.503 398.688C178.803 398.076 178.953 397.368 178.953 396.564C178.953 395.292 178.695 394.302 178.179 393.594C177.663 392.874 176.889 392.514 175.857 392.514C175.017 392.514 174.375 392.73 173.931 393.162C173.487 393.594 173.265 394.146 173.265 394.818C173.265 395.346 173.391 395.796 173.643 396.168C173.895 396.54 174.285 396.768 174.813 396.852C174.909 396.876 174.999 396.9 175.083 396.924C175.167 396.936 175.239 396.942 175.299 396.942L175.191 398.166C175.083 398.178 174.951 398.178 174.795 398.166C174.639 398.154 174.447 398.13 174.219 398.094C173.379 397.962 172.743 397.602 172.311 397.014C171.879 396.414 171.663 395.67 171.663 394.782C171.663 394.074 171.825 393.444 172.149 392.892C172.473 392.34 172.947 391.914 173.571 391.614C174.195 391.302 174.957 391.146 175.857 391.146C177.381 391.146 178.557 391.626 179.385 392.586C180.225 393.546 180.645 394.872 180.645 396.564C180.645 397.656 180.423 398.61 179.979 399.426C179.547 400.242 178.917 400.878 178.089 401.334C177.273 401.778 176.283 402 175.119 402H171.951ZM182.506 391.326H189.004L188.824 392.37L185.602 402H183.892L187.042 392.694H180.85V388.518L182.506 388.32V391.326ZM201.836 402V394.764C201.836 394.068 201.668 393.552 201.332 393.216C201.008 392.868 200.51 392.694 199.838 392.694H195.176V391.326H199.964C201.128 391.326 202.004 391.614 202.592 392.19C203.192 392.754 203.492 393.594 203.492 394.71V402H201.836ZM193.124 402L193.322 400.632H193.97C194.246 400.632 194.468 400.578 194.636 400.47C194.816 400.35 194.948 400.176 195.032 399.948C195.128 399.72 195.176 399.426 195.176 399.066V391.686H196.832V399.156C196.832 400.08 196.61 400.788 196.166 401.28C195.722 401.76 195.08 402 194.24 402H193.124ZM193.484 392.694L193.682 391.326H195.968V392.694H193.484ZM209.838 402V394.764C209.838 394.068 209.67 393.552 209.334 393.216C209.01 392.868 208.518 392.694 207.858 392.694H204.15L204.348 391.326H207.966C209.13 391.326 210.006 391.614 210.594 392.19C211.194 392.754 211.494 393.594 211.494 394.71V402H209.838ZM211.885 392.694V391.326H220.399L220.219 392.694H211.885ZM216.997 402V394.008C216.997 393.864 217.015 393.708 217.051 393.54C217.087 393.36 217.141 393.192 217.213 393.036C217.297 392.88 217.411 392.766 217.555 392.694H218.851C218.767 392.778 218.713 392.91 218.689 393.09C218.665 393.27 218.653 393.468 218.653 393.684V402H216.997ZM222.279 402V391.326H223.935V402H222.279ZM220.641 392.694L220.839 391.326H223.359V392.694H220.641ZM230.311 402.18C228.775 402.18 227.629 401.736 226.873 400.848C226.129 399.96 225.757 398.652 225.757 396.924V396.726C225.757 395.898 225.883 395.142 226.135 394.458C226.399 393.774 226.723 393.216 227.107 392.784V392.568L228.673 392.46L228.475 392.748C228.127 393.144 227.863 393.678 227.683 394.35C227.503 395.022 227.413 395.76 227.413 396.564C227.413 397.992 227.641 399.066 228.097 399.786C228.565 400.506 229.303 400.866 230.311 400.866C231.379 400.866 232.159 400.464 232.651 399.66C233.143 398.844 233.389 397.668 233.389 396.132C233.389 395.016 233.203 394.164 232.831 393.576C232.459 392.988 231.823 392.694 230.923 392.694H225.163L225.361 391.326H230.977C232.381 391.326 233.407 391.74 234.055 392.568C234.715 393.384 235.045 394.566 235.045 396.114C235.045 398.07 234.655 399.57 233.875 400.614C233.095 401.658 231.907 402.18 230.311 402.18ZM235.631 402L236.873 395.61L235.397 391.326H237.053L237.935 394.17H237.989C238.121 393.774 238.277 393.396 238.457 393.036C238.637 392.676 238.871 392.358 239.159 392.082C239.447 391.794 239.801 391.566 240.221 391.398C240.641 391.23 241.133 391.146 241.697 391.146C242.501 391.146 243.203 391.338 243.803 391.722C244.403 392.094 244.871 392.658 245.207 393.414C245.555 394.158 245.729 395.106 245.729 396.258V396.51C245.729 397.614 245.549 398.58 245.189 399.408C244.841 400.224 244.325 400.86 243.641 401.316C242.969 401.772 242.141 402 241.157 402H239.357L239.537 400.632H241.085C242.045 400.632 242.783 400.254 243.299 399.498C243.815 398.742 244.073 397.746 244.073 396.51V396.258C244.073 395.394 243.953 394.692 243.713 394.152C243.485 393.6 243.173 393.192 242.777 392.928C242.381 392.664 241.925 392.532 241.409 392.532C240.905 392.532 240.479 392.622 240.131 392.802C239.783 392.982 239.501 393.228 239.285 393.54C239.069 393.84 238.895 394.176 238.763 394.548C238.643 394.908 238.553 395.28 238.493 395.664L237.341 402H235.631ZM257.619 402V394.764C257.619 394.068 257.451 393.552 257.115 393.216C256.791 392.868 256.293 392.694 255.621 392.694H250.239L250.437 391.326H255.747C256.911 391.326 257.787 391.614 258.375 392.19C258.975 392.754 259.275 393.594 259.275 394.71V402H257.619ZM250.527 402V395.934L252.183 395.808V402H250.527ZM261.838 391.326H268.336L268.156 392.37L264.934 402H263.224L266.374 392.694H260.182V388.518L261.838 388.32V391.326ZM270.297 402V391.326H271.953V402H270.297ZM268.659 392.694L268.857 391.326H271.377V392.694H268.659ZM273.199 402V400.632H276.151C277.147 400.632 277.891 400.296 278.383 399.624C278.887 398.952 279.139 397.98 279.139 396.708C279.139 395.4 278.887 394.404 278.383 393.72C277.891 393.036 277.147 392.694 276.151 392.694H273.199L273.397 391.326H276.151C277.687 391.326 278.851 391.788 279.643 392.712C280.447 393.636 280.849 394.968 280.849 396.708C280.849 398.424 280.447 399.738 279.643 400.65C278.851 401.55 277.687 402 276.151 402H273.199ZM289.66 402V394.764C289.66 394.068 289.492 393.552 289.156 393.216C288.832 392.868 288.334 392.694 287.662 392.694H283V391.326H287.788C288.952 391.326 289.828 391.614 290.416 392.19C291.016 392.754 291.316 393.594 291.316 394.71V402H289.66ZM280.948 402L281.146 400.632H281.794C282.07 400.632 282.292 400.578 282.46 400.47C282.64 400.35 282.772 400.176 282.856 399.948C282.952 399.72 283 399.426 283 399.066V391.686H284.656V399.156C284.656 400.08 284.434 400.788 283.99 401.28C283.546 401.76 282.904 402 282.064 402H280.948ZM281.308 392.694L281.506 391.326H283.792V392.694H281.308ZM293.963 402V391.326H295.619V402H293.963ZM292.325 392.694L292.523 391.326H295.043V392.694H292.325ZM306.314 402V394.764C306.314 394.068 306.146 393.552 305.81 393.216C305.486 392.868 304.994 392.694 304.334 392.694H300.626L300.824 391.326H304.442C305.606 391.326 306.482 391.614 307.07 392.19C307.67 392.754 307.97 393.594 307.97 394.71V402H306.314ZM308.362 392.694V391.326H316.876L316.696 392.694H308.362ZM313.474 402V394.008C313.474 393.864 313.492 393.708 313.528 393.54C313.564 393.36 313.618 393.192 313.69 393.036C313.774 392.88 313.888 392.766 314.032 392.694H315.328C315.244 392.778 315.19 392.91 315.166 393.09C315.142 393.27 315.13 393.468 315.13 393.684V402H313.474ZM322.374 402.18C320.838 402.18 319.692 401.736 318.936 400.848C318.192 399.96 317.82 398.652 317.82 396.924V396.726C317.82 395.898 317.946 395.142 318.198 394.458C318.462 393.774 318.786 393.216 319.17 392.784V392.568L320.736 392.46L320.538 392.748C320.19 393.144 319.926 393.678 319.746 394.35C319.566 395.022 319.476 395.76 319.476 396.564C319.476 397.992 319.704 399.066 320.16 399.786C320.628 400.506 321.366 400.866 322.374 400.866C323.442 400.866 324.222 400.464 324.714 399.66C325.206 398.844 325.452 397.668 325.452 396.132C325.452 395.016 325.266 394.164 324.894 393.576C324.522 392.988 323.886 392.694 322.986 392.694H317.226L317.424 391.326H323.04C324.444 391.326 325.47 391.74 326.118 392.568C326.778 393.384 327.108 394.566 327.108 396.114C327.108 398.07 326.718 399.57 325.938 400.614C325.158 401.658 323.97 402.18 322.374 402.18Z" fill="#111111" fill-opacity="0.65"/>
<g id="fi_11170325">
<g id="Group">
<path id="Vector" d="M353 225C352.6 225 352.333 224.867 352.067 224.6L345.4 217.934C344.867 217.4 344.867 216.6 345.4 216.067C345.933 215.534 346.733 215.534 347.267 216.067L353 221.8L366.733 208.067C367.267 207.534 368.067 207.534 368.6 208.067C369.133 208.6 369.133 209.4 368.6 209.934L353.933 224.6C353.667 224.867 353.4 225 353 225Z" fill="#F1C004"/>
</g>
</g>
<g id="fi_11170325_2">
<g id="Group_2">
<path id="Vector_2" d="M353 303C352.6 303 352.333 302.867 352.067 302.6L345.4 295.934C344.867 295.4 344.867 294.6 345.4 294.067C345.933 293.534 346.733 293.534 347.267 294.067L353 299.8L366.733 286.067C367.267 285.534 368.067 285.534 368.6 286.067C369.133 286.6 369.133 287.4 368.6 287.934L353.933 302.6C353.667 302.867 353.4 303 353 303Z" fill="#F1C004"/>
</g>
</g>
<g id="fi_11170325_3">
<g id="Group_3">
<path id="Vector_3" d="M353 381C352.6 381 352.333 380.867 352.067 380.6L345.4 373.934C344.867 373.4 344.867 372.6 345.4 372.067C345.933 371.534 346.733 371.534 347.267 372.067L353 377.8L366.733 364.067C367.267 363.534 368.067 363.534 368.6 364.067C369.133 364.6 369.133 365.4 368.6 365.934L353.933 380.6C353.667 380.867 353.4 381 353 381Z" fill="#F1C004"/>
</g>
</g>
</g>
<g id="Link">
<path d="M135 516C135 502.745 145.745 492 159 492H285C298.255 492 309 502.745 309 516C309 529.255 298.255 540 285 540H159C145.745 540 135 529.255 135 516Z" fill="#F1C004"/>
<path id="&#215;&#156;&#215;&#164;&#215;&#168;&#215;&#152;&#215;&#153;&#215;&#157; &#215;&#160;&#215;&#149;&#215;&#161;&#215;&#164;&#215;&#153;&#215;&#157;" d="M180.74 512.558C181.804 512.558 182.607 512.81 183.148 513.314C183.689 513.809 183.96 514.546 183.96 515.526V521H176.344V515.694C176.344 515.563 176.363 515.409 176.4 515.232C176.437 515.045 176.503 514.868 176.596 514.7C176.689 514.532 176.829 514.401 177.016 514.308H175.574L175.798 512.558H180.74ZM181.832 519.25V515.568C181.832 515.148 181.725 514.835 181.51 514.63C181.305 514.415 181.011 514.308 180.628 514.308H178.584C178.537 514.439 178.505 514.579 178.486 514.728C178.477 514.877 178.472 515.031 178.472 515.19V519.25H181.832ZM186.058 517.444V512.558H188.186V517.444H186.058ZM184.91 514.308L185.148 512.558H187.248V514.308H184.91ZM189.853 521V519.25H192.821C193.325 519.25 193.749 519.147 194.095 518.942C194.44 518.727 194.701 518.433 194.879 518.06C195.065 517.677 195.159 517.225 195.159 516.702C195.159 515.918 195.005 515.302 194.697 514.854C194.389 514.397 193.894 514.168 193.213 514.168C192.662 514.168 192.261 514.285 192.009 514.518C191.766 514.751 191.645 515.055 191.645 515.428C191.645 515.689 191.705 515.913 191.827 516.1C191.957 516.287 192.144 516.413 192.387 516.478C192.471 516.506 192.555 516.534 192.639 516.562C192.723 516.581 192.793 516.59 192.849 516.59L192.681 518.116C192.55 518.135 192.401 518.139 192.233 518.13C192.065 518.111 191.855 518.079 191.603 518.032C190.987 517.911 190.497 517.617 190.133 517.15C189.778 516.674 189.601 516.077 189.601 515.358C189.601 514.789 189.736 514.285 190.007 513.846C190.277 513.398 190.679 513.048 191.211 512.796C191.752 512.544 192.419 512.418 193.213 512.418C194.519 512.418 195.532 512.801 196.251 513.566C196.969 514.322 197.329 515.367 197.329 516.702C197.329 517.589 197.142 518.354 196.769 518.998C196.405 519.642 195.868 520.137 195.159 520.482C194.459 520.827 193.609 521 192.611 521H189.853ZM202.677 521.126C201.343 521.126 200.339 520.79 199.667 520.118C199.005 519.437 198.673 518.475 198.673 517.234V517.108C198.673 516.455 198.785 515.89 199.009 515.414C199.243 514.938 199.532 514.597 199.877 514.392V514.196L201.683 514.154L201.613 514.336C201.315 514.457 201.1 514.723 200.969 515.134C200.848 515.545 200.787 516.058 200.787 516.674C200.787 517.561 200.932 518.242 201.221 518.718C201.52 519.194 202.005 519.432 202.677 519.432C203.359 519.432 203.849 519.175 204.147 518.662C204.446 518.149 204.595 517.416 204.595 516.464C204.595 515.773 204.479 515.241 204.245 514.868C204.021 514.495 203.606 514.308 202.999 514.308H198.323L198.547 512.558H203.013C204.283 512.558 205.216 512.899 205.813 513.58C206.42 514.261 206.723 515.227 206.723 516.478C206.723 517.953 206.383 519.096 205.701 519.908C205.029 520.72 204.021 521.126 202.677 521.126ZM208.74 521V512.558H210.868V521H208.74ZM207.592 514.308L207.83 512.558H210.14V514.308H207.592ZM214.478 521V515.218C214.478 514.985 214.446 514.803 214.38 514.672C214.315 514.541 214.208 514.448 214.058 514.392C213.918 514.336 213.732 514.308 213.498 514.308H212.714L212.938 512.558H214.072C214.931 512.558 215.566 512.768 215.976 513.188C216.396 513.599 216.606 514.205 216.606 515.008V521H214.478ZM212.378 521V519.25H215.5V521H212.378ZM226.992 512.558C228.056 512.558 228.859 512.81 229.4 513.314C229.941 513.809 230.212 514.546 230.212 515.526V521H222.596V515.694C222.596 515.563 222.615 515.409 222.652 515.232C222.689 515.045 222.755 514.868 222.848 514.7C222.941 514.532 223.081 514.401 223.268 514.308H221.826L222.05 512.558H226.992ZM228.084 519.25V515.568C228.084 515.148 227.977 514.835 227.762 514.63C227.557 514.415 227.263 514.308 226.88 514.308H224.836C224.789 514.439 224.757 514.579 224.738 514.728C224.729 514.877 224.724 515.031 224.724 515.19V519.25H228.084ZM232.31 517.444V512.558H234.438V517.444H232.31ZM231.162 514.308L231.4 512.558H233.5V514.308H231.162ZM239.955 521.126C238.657 521.126 237.659 520.729 236.959 519.936C236.268 519.133 235.923 517.957 235.923 516.408V512.558H238.037V516.408C238.037 517.397 238.2 518.149 238.527 518.662C238.863 519.175 239.325 519.432 239.913 519.432C240.519 519.432 240.995 519.175 241.341 518.662C241.686 518.149 241.859 517.397 241.859 516.408C241.859 515.708 241.77 515.162 241.593 514.77C241.425 514.378 241.126 514.177 240.697 514.168C240.491 514.159 240.3 514.173 240.123 514.21C239.955 514.247 239.768 514.289 239.563 514.336V512.642C239.833 512.595 240.085 512.553 240.319 512.516C240.552 512.479 240.804 512.46 241.075 512.46C242.073 512.479 242.806 512.829 243.273 513.51C243.739 514.182 243.973 515.148 243.973 516.408C243.973 517.957 243.623 519.133 242.923 519.936C242.232 520.729 241.243 521.126 239.955 521.126ZM248.853 521V515.568C248.853 515.148 248.751 514.835 248.545 514.63C248.34 514.415 248.041 514.308 247.649 514.308H244.793L245.017 512.558H247.761C248.825 512.558 249.628 512.81 250.169 513.314C250.711 513.809 250.981 514.546 250.981 515.526V521H248.853ZM252.661 521V519.25H255.629C256.133 519.25 256.558 519.147 256.903 518.942C257.249 518.727 257.51 518.433 257.687 518.06C257.874 517.677 257.967 517.225 257.967 516.702C257.967 515.918 257.813 515.302 257.505 514.854C257.197 514.397 256.703 514.168 256.021 514.168C255.471 514.168 255.069 514.285 254.817 514.518C254.575 514.751 254.453 515.055 254.453 515.428C254.453 515.689 254.514 515.913 254.635 516.1C254.766 516.287 254.953 516.413 255.195 516.478C255.279 516.506 255.363 516.534 255.447 516.562C255.531 516.581 255.601 516.59 255.657 516.59L255.489 518.116C255.359 518.135 255.209 518.139 255.041 518.13C254.873 518.111 254.663 518.079 254.411 518.032C253.795 517.911 253.305 517.617 252.941 517.15C252.587 516.674 252.409 516.077 252.409 515.358C252.409 514.789 252.545 514.285 252.815 513.846C253.086 513.398 253.487 513.048 254.019 512.796C254.561 512.544 255.228 512.418 256.021 512.418C257.328 512.418 258.341 512.801 259.059 513.566C259.778 514.322 260.137 515.367 260.137 516.702C260.137 517.589 259.951 518.354 259.577 518.998C259.213 519.642 258.677 520.137 257.967 520.482C257.267 520.827 256.418 521 255.419 521H252.661ZM262.982 512.558H267.868L267.714 513.804L265.194 521H262.982L265.376 514.308H260.854V510.584L262.982 510.36V512.558Z" fill="#111111"/>
</g>
</g>
</g>
</g>
</g>
</g>
<defs>
<filter id="filter0_d_26_6541" x="0" y="0" width="444" height="621" filterUnits="userSpaceOnUse" color-interpolation-filters="sRGB">
<feFlood flood-opacity="0" result="BackgroundImageFix"/>
<feColorMatrix in="SourceAlpha" type="matrix" values="0 0 0 0 0 0 0 0 0 0 0 0 0 0 0 0 0 0 127 0" result="hardAlpha"/>
<feMorphology radius="5" operator="dilate" in="SourceAlpha" result="effect1_dropShadow_26_6541"/>
<feOffset/>
<feGaussianBlur stdDeviation="15"/>
<feComposite in2="hardAlpha" operator="out"/>
<feColorMatrix type="matrix" values="0 0 0 0 0 0 0 0 0 0 0 0 0 0 0 0 0 0 0.07 0"/>
<feBlend mode="normal" in2="BackgroundImageFix" result="effect1_dropShadow_26_6541"/>
<feBlend mode="normal" in="SourceGraphic" in2="effect1_dropShadow_26_6541" result="shape"/>
</filter>
</defs>
</svg>
