<svg width="444" height="621" viewBox="0 0 444 621" fill="none" xmlns="http://www.w3.org/2000/svg">
<rect width="444" height="621" fill="#F5F5F5"/>
<g id=" for codex &#215;&#161;&#215;&#168;&#215;&#152;&#215;&#149;&#215;&#159; &#215;&#158;&#215;&#167;&#215;&#149;&#215;&#168;&#215;&#153;">
<rect width="1512" height="16008" transform="translate(-128 -14211.8)" fill="white"/>
<g id="&#215;&#148;&#215;&#151;&#215;&#145;&#215;&#153;&#215;&#156;&#215;&#149;&#215;&#170; &#215;&#169;&#215;&#156;&#215;&#160;&#215;&#149;">
<g id="Frame 26">
<g id="packges">
<g id="premium" filter="url(#filter0_d_26_6541)">
<rect x="35" y="35" width="374" height="551" rx="20" fill="white"/>
<path id="&#215;&#151;&#215;&#145;&#215;&#153;&#215;&#156;&#215;&#170; &#215;&#164;&#215;&#168;&#215;&#153;&#215;&#158;&#215;&#153;&#215;&#149;&#215;&#157;" d="M136.355 98.73C138.855 98.73 140.735 99.3 141.995 100.44C143.275 101.58 143.915 103.28 143.915 105.54V117H126.695V106.92C126.695 106.62 126.745 106.25 126.845 105.81C126.945 105.35 127.115 104.91 127.355 104.49C127.615 104.05 127.995 103.71 128.495 103.47H125.195L125.795 98.73H136.355ZM138.155 112.26V105.63C138.155 104.91 137.965 104.37 137.585 104.01C137.225 103.65 136.725 103.47 136.085 103.47H132.755C132.615 103.79 132.525 104.12 132.485 104.46C132.465 104.8 132.455 105.14 132.455 105.48V112.26H138.155ZM147.568 117V98.73H153.328V117H147.568ZM145.318 103.47L145.918 98.73H151.378V103.47H145.318ZM157.437 109.56V98.73H163.197V109.56H157.437ZM155.187 103.47L155.787 98.73H160.647V103.47H155.187ZM165.179 117L167.159 106.41L164.609 98.73H170.369L171.269 102.42H171.449C171.769 101.64 172.119 100.99 172.499 100.47C172.899 99.95 173.349 99.55 173.849 99.27C174.369 98.97 174.939 98.76 175.559 98.64C176.199 98.5 176.919 98.43 177.719 98.43C179.199 98.43 180.489 98.8 181.589 99.54C182.709 100.26 183.579 101.29 184.199 102.63C184.839 103.97 185.159 105.56 185.159 107.4V107.79C185.159 109.59 184.809 111.19 184.109 112.59C183.429 113.97 182.439 115.05 181.139 115.83C179.839 116.61 178.269 117 176.429 117H173.639L174.299 112.26H176.129C177.149 112.26 177.949 111.84 178.529 111C179.109 110.14 179.399 109.07 179.399 107.79V107.4C179.399 106.54 179.269 105.8 179.009 105.18C178.749 104.56 178.399 104.09 177.959 103.77C177.519 103.43 177.019 103.26 176.459 103.26C175.839 103.26 175.319 103.34 174.899 103.5C174.479 103.66 174.129 103.92 173.849 104.28C173.569 104.64 173.339 105.1 173.159 105.66C172.979 106.2 172.829 106.86 172.709 107.64L171.149 117H165.179ZM187.488 109.56V98.73H193.248V109.56H187.488ZM185.238 103.47L185.838 98.73H190.698V103.47H185.238ZM203.12 117V105.63C203.12 104.91 202.93 104.37 202.55 104.01C202.19 103.65 201.69 103.47 201.05 103.47H194.96L195.56 98.73H201.32C203.82 98.73 205.7 99.3 206.96 100.44C208.24 101.58 208.88 103.28 208.88 105.54V117H203.12ZM210.961 117V112.26H217.921C218.841 112.26 219.611 112.08 220.231 111.72C220.871 111.36 221.351 110.84 221.671 110.16C221.991 109.48 222.151 108.66 222.151 107.7C222.151 106.3 221.891 105.2 221.371 104.4C220.851 103.58 219.941 103.17 218.641 103.17C217.621 103.17 216.911 103.35 216.511 103.71C216.111 104.05 215.911 104.5 215.911 105.06C215.911 105.42 215.991 105.73 216.151 105.99C216.331 106.25 216.571 106.45 216.871 106.59C217.051 106.67 217.241 106.74 217.441 106.8C217.641 106.86 217.811 106.89 217.951 106.89L217.471 110.97C217.151 111.03 216.771 111.04 216.331 111C215.891 110.96 215.351 110.87 214.711 110.73C213.431 110.45 212.391 109.8 211.591 108.78C210.811 107.74 210.421 106.44 210.421 104.88C210.421 103.62 210.721 102.51 211.321 101.55C211.921 100.57 212.831 99.81 214.051 99.27C215.271 98.71 216.801 98.43 218.641 98.43C221.621 98.43 223.921 99.26 225.541 100.92C227.181 102.56 228.001 104.82 228.001 107.7C228.001 109.66 227.581 111.34 226.741 112.74C225.921 114.12 224.711 115.18 223.111 115.92C221.531 116.64 219.601 117 217.321 117H210.961ZM249.972 117V105.63C249.972 104.91 249.782 104.37 249.402 104.01C249.042 103.65 248.542 103.47 247.902 103.47H239.142V98.73H248.172C250.672 98.73 252.552 99.3 253.812 100.44C255.092 101.58 255.732 103.28 255.732 105.54V117H249.972ZM236.052 117L236.652 112.26H237.732C238.052 112.26 238.312 112.2 238.512 112.08C238.712 111.96 238.862 111.78 238.962 111.54C239.082 111.3 239.142 111.01 239.142 110.67V99.78H244.902V110.37C244.902 112.55 244.402 114.2 243.402 115.32C242.402 116.44 240.922 117 238.962 117H236.052ZM236.412 103.47L237.012 98.73H242.472V103.47H236.412ZM262.745 98.73H272.975L272.615 102.03L267.245 117H261.245L266.285 103.47H256.985V94.8L262.745 94.2V98.73ZM276.029 109.56V98.73H281.789V109.56H276.029ZM273.779 103.47L274.379 98.73H279.239V103.47H273.779ZM292.231 117V105.63C292.231 104.91 292.041 104.37 291.661 104.01C291.301 103.65 290.801 103.47 290.161 103.47H284.101L284.701 98.73H290.431C292.931 98.73 294.811 99.3 296.071 100.44C297.351 101.58 297.991 103.28 297.991 105.54V112.59C297.791 113.33 297.441 114.08 296.941 114.84C296.441 115.6 295.941 116.32 295.441 117H292.231ZM283.201 117V112.26H300.271L299.671 117H283.201ZM311.642 98.73C314.142 98.73 316.022 99.3 317.282 100.44C318.562 101.58 319.202 103.28 319.202 105.54V117H313.442V105.63C313.442 104.91 313.252 104.37 312.872 104.01C312.512 103.65 312.012 103.47 311.372 103.47H308.042C307.942 103.61 307.862 103.82 307.802 104.1C307.762 104.38 307.742 104.91 307.742 105.69V117H301.982V107.52C301.982 106.8 302.042 106.13 302.162 105.51C302.302 104.89 302.642 104.25 303.182 103.59V103.29V98.73H311.642ZM300.482 103.47L301.082 98.73H310.742V103.47H300.482Z" fill="#111111"/>
<path id="&#215;&#148;&#215;&#145;&#215;&#151;&#215;&#153;&#215;&#168;&#215;&#148; &#215;&#148;&#215;&#158;&#215;&#164;&#215;&#160;&#215;&#167;&#215;&#170;" d="M151.113 156V146.688C151.113 145.968 150.937 145.432 150.585 145.08C150.233 144.712 149.721 144.528 149.049 144.528H142.353V141.528H149.241C151.065 141.528 152.441 141.96 153.369 142.824C154.297 143.672 154.761 144.936 154.761 146.616V156H151.113ZM139.785 156L140.169 153H141.033C141.337 153 141.585 152.944 141.777 152.832C141.969 152.704 142.113 152.52 142.209 152.28C142.305 152.04 142.353 151.744 142.353 151.392V142.224H146.001V151.296C146.001 152.832 145.641 154 144.921 154.8C144.217 155.6 143.169 156 141.777 156H139.785ZM140.145 144.528L140.553 141.528H144.393V144.528H140.145ZM162.898 156L166.234 144.504H156.394L156.778 141.528H170.362L170.122 143.688L166.546 156H162.898ZM156.97 160.416V147.576L160.618 147.36V160.224L156.97 160.416ZM174.529 156V146.088C174.529 145.688 174.473 145.376 174.361 145.152C174.249 144.928 174.065 144.768 173.809 144.672C173.569 144.576 173.249 144.528 172.849 144.528H171.505L171.889 141.528H173.833C175.305 141.528 176.393 141.888 177.097 142.608C177.817 143.312 178.177 144.352 178.177 145.728V156H174.529ZM170.929 156V153H176.281V156H170.929ZM180.04 156V153H185.128C185.992 153 186.72 152.824 187.312 152.472C187.904 152.104 188.352 151.6 188.656 150.96C188.976 150.304 189.136 149.528 189.136 148.632C189.136 147.288 188.872 146.232 188.344 145.464C187.816 144.68 186.968 144.288 185.8 144.288C184.856 144.288 184.168 144.488 183.736 144.888C183.32 145.288 183.112 145.808 183.112 146.448C183.112 146.896 183.216 147.28 183.424 147.6C183.648 147.92 183.968 148.136 184.384 148.248C184.528 148.296 184.672 148.344 184.816 148.392C184.96 148.424 185.08 148.44 185.176 148.44L184.888 151.056C184.664 151.088 184.408 151.096 184.12 151.08C183.832 151.048 183.472 150.992 183.04 150.912C181.984 150.704 181.144 150.2 180.52 149.4C179.912 148.584 179.608 147.56 179.608 146.328C179.608 145.352 179.84 144.488 180.304 143.736C180.768 142.968 181.456 142.368 182.368 141.936C183.296 141.504 184.44 141.288 185.8 141.288C188.04 141.288 189.776 141.944 191.008 143.256C192.24 144.552 192.856 146.344 192.856 148.632C192.856 150.152 192.536 151.464 191.896 152.568C191.272 153.672 190.352 154.52 189.136 155.112C187.936 155.704 186.48 156 184.768 156H180.04ZM193.333 156L194.941 147.504L192.925 141.528H196.573L197.485 144.816H197.581C197.805 144.24 198.061 143.736 198.349 143.304C198.637 142.856 198.981 142.488 199.381 142.2C199.781 141.896 200.237 141.672 200.749 141.528C201.277 141.368 201.885 141.288 202.573 141.288C203.709 141.288 204.701 141.568 205.549 142.128C206.413 142.672 207.085 143.472 207.565 144.528C208.061 145.568 208.309 146.832 208.309 148.32V148.656C208.309 150.112 208.045 151.392 207.517 152.496C207.005 153.6 206.253 154.464 205.261 155.088C204.269 155.696 203.069 156 201.661 156H199.357L199.789 153H201.493C202.485 153 203.261 152.592 203.821 151.776C204.381 150.96 204.661 149.92 204.661 148.656V148.32C204.661 147.456 204.533 146.728 204.277 146.136C204.021 145.544 203.677 145.104 203.245 144.816C202.829 144.512 202.357 144.36 201.829 144.36C201.253 144.36 200.773 144.448 200.389 144.624C200.005 144.784 199.685 145.032 199.429 145.368C199.189 145.704 198.989 146.104 198.829 146.568C198.669 147.032 198.549 147.552 198.469 148.128L197.101 156H193.333ZM218.713 156V146.688C218.713 145.968 218.529 145.432 218.161 145.08C217.809 144.712 217.305 144.528 216.649 144.528H209.185L209.593 141.528H216.841C218.665 141.528 220.041 141.96 220.969 142.824C221.897 143.672 222.361 144.936 222.361 146.616V156H218.713ZM209.497 156V148.2L213.145 148.008V156H209.497ZM238.979 156V146.688C238.979 145.968 238.795 145.432 238.427 145.08C238.075 144.712 237.571 144.528 236.915 144.528H229.451L229.859 141.528H237.107C238.931 141.528 240.307 141.96 241.235 142.824C242.163 143.672 242.627 144.936 242.627 146.616V156H238.979ZM229.763 156V148.2L233.411 148.008V156H229.763ZM250.871 156V146.688C250.871 145.968 250.695 145.432 250.343 145.08C249.991 144.712 249.479 144.528 248.807 144.528H243.911L244.295 141.528H248.999C250.823 141.528 252.199 141.96 253.127 142.824C254.055 143.672 254.519 144.936 254.519 146.616V156H250.871ZM257.395 149.904V141.528H261.043V149.904H257.395ZM255.427 144.528L255.835 141.528H259.435V144.528H255.427ZM271.011 141.528C272.835 141.528 274.211 141.96 275.139 142.824C276.067 143.672 276.531 144.936 276.531 146.616V156H272.883V146.688C272.883 145.968 272.707 145.432 272.355 145.08C272.003 144.712 271.491 144.528 270.819 144.528H267.507C267.427 144.656 267.347 144.872 267.267 145.176C267.203 145.464 267.171 145.968 267.171 146.688V156H263.523V147.792C263.523 147.152 263.579 146.576 263.691 146.064C263.819 145.536 264.067 145.048 264.435 144.6L264.243 144.432V141.528H271.011ZM262.323 144.528L262.707 141.528H269.451V144.528H262.323ZM285.24 156V146.688C285.24 145.968 285.064 145.432 284.712 145.08C284.36 144.712 283.856 144.528 283.2 144.528H278.472L278.88 141.528H283.392C285.2 141.528 286.568 141.96 287.496 142.824C288.424 143.672 288.888 144.936 288.888 146.616V153.24C288.776 153.72 288.56 154.192 288.24 154.656C287.936 155.12 287.624 155.568 287.304 156H285.24ZM277.752 156V153H290.688L290.304 156H277.752ZM301.01 156V146.688C301.01 145.968 300.826 145.432 300.458 145.08C300.106 144.712 299.602 144.528 298.946 144.528H291.482L291.89 141.528H299.138C300.962 141.528 302.338 141.96 303.266 142.824C304.194 143.672 304.658 144.936 304.658 146.616V156H301.01ZM291.794 156V148.2L295.442 148.008V156H291.794Z" fill="#F1C004"/>
<g id="Frame 20">
<g id="Frame 17">
<g id="fi_11170325" clip-path="url(#clip0_26_6541)">
<g id="Group">
<path id="Vector" d="M352 220C351.6 220 351.333 219.867 351.067 219.6L344.4 212.934C343.867 212.4 343.867 211.6 344.4 211.067C344.933 210.534 345.733 210.534 346.267 211.067L352 216.8L365.733 203.067C366.267 202.534 367.067 202.534 367.6 203.067C368.133 203.6 368.133 204.4 367.6 204.934L352.933 219.6C352.667 219.867 352.4 220 352 220Z" fill="#F1C004"/>
</g>
</g>
<path id="&#215;&#144;&#215;&#168;&#215;&#153;&#215;&#150;&#215;&#148; &#215;&#158;&#215;&#167;&#215;&#166;&#215;&#149;&#215;&#162;&#215;&#153;&#215;&#170; &#215;&#162;&#215;&#157; &#215;&#144;&#215;&#168;&#215;&#146;&#215;&#150;&#215;&#153;&#215;&#157; &#215;&#144;&#215;&#167;&#215;&#149;&#215;&#156;&#215;&#149;&#215;&#146;&#215;&#153;&#215;&#153;&#215;&#157; &#215;&#144;&#215;&#153;&#215;&#155;&#215;&#149;&#215;&#170;&#215;&#153;&#215;&#153;&#215;&#157;" d="M92.4266 204.326C93.5906 204.326 94.4666 204.614 95.0546 205.19C95.6546 205.754 95.9546 206.594 95.9546 207.71V215H86.9726V207.008C86.9726 206.864 86.9906 206.708 87.0266 206.54C87.0626 206.36 87.1166 206.192 87.1886 206.036C87.2726 205.88 87.3866 205.766 87.5306 205.694H85.8566L86.0366 204.326H92.4266ZM94.2986 213.632V207.764C94.2986 207.068 94.1306 206.552 93.7946 206.216C93.4706 205.868 92.9726 205.694 92.3006 205.694H88.7546C88.7066 205.814 88.6706 205.964 88.6466 206.144C88.6346 206.324 88.6286 206.504 88.6286 206.684V213.632H94.2986ZM98.0564 210.284V204.326H99.7124V210.284H98.0564ZM96.4184 205.694L96.6164 204.326H98.9924V205.694H96.4184ZM102.365 210.284V204.326H104.021V210.284H102.365ZM100.727 205.694L100.925 204.326H103.301V205.694H100.727ZM108.613 215.09L107.929 212.696H107.803C107.587 213.068 107.359 213.398 107.119 213.686C106.891 213.962 106.639 214.202 106.363 214.406C106.099 214.598 105.811 214.748 105.499 214.856C105.187 214.952 104.839 215 104.455 215H104.185V213.596H104.419C104.791 213.596 105.145 213.53 105.481 213.398C105.829 213.254 106.147 213.068 106.435 212.84C106.735 212.612 106.987 212.378 107.191 212.138C107.407 211.886 107.569 211.646 107.677 211.418V207.008C107.677 206.54 107.569 206.204 107.353 206C107.137 205.796 106.783 205.694 106.291 205.694H105.175L105.355 204.326H106.705C107.293 204.326 107.779 204.422 108.163 204.614C108.547 204.806 108.835 205.088 109.027 205.46C109.231 205.832 109.333 206.294 109.333 206.846V212.102L110.089 214.766L108.613 215.09ZM111.826 215V204.326H113.482V215H111.826ZM110.188 205.694L110.386 204.326H112.906V205.694H110.188ZM116.186 204.326H122.684L122.504 205.37L119.282 215H117.572L120.722 205.694H114.53V201.518L116.186 201.32V204.326ZM124.644 215V204.326H126.3V215H124.644ZM123.006 205.694L123.204 204.326H125.724V205.694H123.006ZM132.64 215L135.52 205.676H127.888L128.086 204.326H137.41L137.266 205.37L134.296 215H132.64ZM128.428 218.438V208.286L130.084 208.16V218.348L128.428 218.438ZM145.684 215C145.156 214.1 144.616 213.23 144.064 212.39C143.512 211.55 142.96 210.758 142.408 210.014C141.868 209.258 141.334 208.556 140.806 207.908C140.506 207.536 140.212 207.176 139.924 206.828C139.636 206.468 139.366 206.132 139.114 205.82C138.874 205.508 138.646 205.226 138.43 204.974C138.226 204.722 138.046 204.506 137.89 204.326H139.888C140.116 204.59 140.356 204.884 140.608 205.208C140.86 205.532 141.136 205.886 141.436 206.27C141.736 206.642 142.066 207.056 142.426 207.512C142.942 208.22 143.494 208.982 144.082 209.798C144.67 210.614 145.264 211.46 145.864 212.336C146.464 213.212 147.034 214.1 147.574 215H145.684ZM137.494 215L137.926 212.012C138.022 211.316 138.172 210.68 138.376 210.104C138.592 209.516 138.904 209.006 139.312 208.574C139.72 208.13 140.266 207.77 140.95 207.494L141.49 208.574C141.058 208.778 140.716 209.054 140.464 209.402C140.212 209.738 140.02 210.134 139.888 210.59C139.756 211.034 139.648 211.526 139.564 212.066L139.132 215H137.494ZM144.118 210.572L143.578 209.492C144.034 209.276 144.406 209 144.694 208.664C144.982 208.328 145.198 207.938 145.342 207.494C145.498 207.05 145.6 206.558 145.648 206.018L145.81 204.326H147.466L147.304 206.072C147.244 206.768 147.094 207.404 146.854 207.98C146.614 208.556 146.266 209.06 145.81 209.492C145.366 209.924 144.802 210.284 144.118 210.572ZM158.522 204.326C159.686 204.326 160.562 204.614 161.15 205.19C161.75 205.754 162.05 206.594 162.05 207.71V215H153.068V207.008C153.068 206.864 153.086 206.708 153.122 206.54C153.158 206.36 153.212 206.192 153.284 206.036C153.368 205.88 153.482 205.766 153.626 205.694H151.952L152.132 204.326H158.522ZM160.394 213.632V207.764C160.394 207.068 160.226 206.552 159.89 206.216C159.566 205.868 159.068 205.694 158.396 205.694H154.85C154.802 205.814 154.766 205.964 154.742 206.144C154.73 206.324 154.724 206.504 154.724 206.684V213.632H160.394ZM164.152 210.284V204.326H165.808V210.284H164.152ZM162.514 205.694L162.712 204.326H165.088V205.694H162.514ZM168.317 214.982C168.233 214.466 168.149 213.92 168.065 213.344C167.981 212.768 167.909 212.204 167.849 211.652C167.789 211.088 167.741 210.572 167.705 210.104C167.681 209.636 167.669 209.246 167.669 208.934C167.669 208.55 167.723 208.148 167.831 207.728C167.939 207.308 168.137 206.918 168.425 206.558C168.713 206.186 169.115 205.886 169.631 205.658L171.323 205.694C170.711 205.874 170.255 206.132 169.955 206.468C169.667 206.804 169.481 207.176 169.397 207.584C169.313 207.98 169.277 208.37 169.289 208.754C169.301 209.066 169.331 209.48 169.379 209.996C169.439 210.5 169.505 211.052 169.577 211.652C169.649 212.24 169.727 212.828 169.811 213.416C169.895 214.004 169.967 214.526 170.027 214.982H168.317ZM166.895 205.694V204.326H171.521L171.323 205.694H166.895ZM175.922 215.09L175.238 212.696H175.112C174.896 213.068 174.668 213.398 174.428 213.686C174.2 213.962 173.948 214.202 173.672 214.406C173.408 214.598 173.12 214.748 172.808 214.856C172.496 214.952 172.148 215 171.764 215H171.494V213.596H171.728C172.1 213.596 172.454 213.53 172.79 213.398C173.138 213.254 173.456 213.068 173.744 212.84C174.044 212.612 174.296 212.378 174.5 212.138C174.716 211.886 174.878 211.646 174.986 211.418V207.008C174.986 206.54 174.878 206.204 174.662 206C174.446 205.796 174.092 205.694 173.6 205.694H172.484L172.664 204.326H174.014C174.602 204.326 175.088 204.422 175.472 204.614C175.856 204.806 176.144 205.088 176.336 205.46C176.54 205.832 176.642 206.294 176.642 206.846V212.102L177.398 214.766L175.922 215.09ZM183.221 215V207.764C183.221 207.068 183.053 206.552 182.717 206.216C182.393 205.868 181.901 205.694 181.241 205.694H177.533L177.731 204.326H181.349C182.513 204.326 183.389 204.614 183.977 205.19C184.577 205.754 184.877 206.594 184.877 207.71V215H183.221ZM194.072 215C193.544 214.1 193.004 213.23 192.452 212.39C191.9 211.55 191.348 210.758 190.796 210.014C190.256 209.258 189.722 208.556 189.194 207.908C188.894 207.536 188.6 207.176 188.312 206.828C188.024 206.468 187.754 206.132 187.502 205.82C187.262 205.508 187.034 205.226 186.818 204.974C186.614 204.722 186.434 204.506 186.278 204.326H188.276C188.504 204.59 188.744 204.884 188.996 205.208C189.248 205.532 189.524 205.886 189.824 206.27C190.124 206.642 190.454 207.056 190.814 207.512C191.33 208.22 191.882 208.982 192.47 209.798C193.058 210.614 193.652 211.46 194.252 212.336C194.852 213.212 195.422 214.1 195.962 215H194.072ZM185.882 215L186.314 212.012C186.41 211.316 186.56 210.68 186.764 210.104C186.98 209.516 187.292 209.006 187.7 208.574C188.108 208.13 188.654 207.77 189.338 207.494L189.878 208.574C189.446 208.778 189.104 209.054 188.852 209.402C188.6 209.738 188.408 210.134 188.276 210.59C188.144 211.034 188.036 211.526 187.952 212.066L187.52 215H185.882ZM192.506 210.572L191.966 209.492C192.422 209.276 192.794 209 193.082 208.664C193.37 208.328 193.586 207.938 193.73 207.494C193.886 207.05 193.988 206.558 194.036 206.018L194.198 204.326H195.854L195.692 206.072C195.632 206.768 195.482 207.404 195.242 207.98C195.002 208.556 194.654 209.06 194.198 209.492C193.754 209.924 193.19 210.284 192.506 210.572ZM206.911 204.326C208.075 204.326 208.951 204.614 209.539 205.19C210.139 205.754 210.439 206.594 210.439 207.71V215H201.457V207.008C201.457 206.864 201.475 206.708 201.511 206.54C201.547 206.36 201.601 206.192 201.673 206.036C201.757 205.88 201.871 205.766 202.015 205.694H200.341L200.521 204.326H206.911ZM208.783 213.632V207.764C208.783 207.068 208.615 206.552 208.279 206.216C207.955 205.868 207.457 205.694 206.785 205.694H203.239C203.191 205.814 203.155 205.964 203.131 206.144C203.119 206.324 203.113 206.504 203.113 206.684V213.632H208.783ZM211.448 215.648V214.262L215.084 213.452C215.612 213.32 216.086 213.146 216.506 212.93C216.938 212.702 217.304 212.366 217.604 211.922C217.916 211.478 218.168 210.872 218.36 210.104C218.552 209.336 218.678 208.34 218.738 207.116L218.918 204.326H220.574L220.412 207.116C220.364 208.112 220.262 208.994 220.106 209.762C219.962 210.518 219.758 211.178 219.494 211.742C219.23 212.306 218.894 212.786 218.486 213.182C218.09 213.578 217.61 213.908 217.046 214.172C216.494 214.436 215.846 214.652 215.102 214.82L211.448 215.648ZM214.292 214.244L211.934 204.434L213.536 204.218L215.39 211.886C215.45 212.126 215.468 212.384 215.444 212.66C215.42 212.924 215.36 213.194 215.264 213.47C215.18 213.734 215.066 213.992 214.922 214.244H214.292ZM233.627 215V207.764C233.627 207.068 233.459 206.552 233.123 206.216C232.799 205.868 232.301 205.694 231.629 205.694H226.967V204.326H231.755C232.919 204.326 233.795 204.614 234.383 205.19C234.983 205.754 235.283 206.594 235.283 207.71V215H233.627ZM224.915 215L225.113 213.632H225.761C226.037 213.632 226.259 213.578 226.427 213.47C226.607 213.35 226.739 213.176 226.823 212.948C226.919 212.72 226.967 212.426 226.967 212.066V204.686H228.623V212.156C228.623 213.08 228.401 213.788 227.957 214.28C227.513 214.76 226.871 215 226.031 215H224.915ZM225.275 205.694L225.473 204.326H227.759V205.694H225.275ZM237.578 210.284V204.326H239.234V210.284H237.578ZM235.94 205.694L236.138 204.326H238.514V205.694H235.94ZM240.248 215.648V214.262L243.884 213.452C244.412 213.32 244.886 213.146 245.306 212.93C245.738 212.702 246.104 212.366 246.404 211.922C246.716 211.478 246.968 210.872 247.16 210.104C247.352 209.336 247.478 208.34 247.538 207.116L247.718 204.326H249.374L249.212 207.116C249.164 208.112 249.062 208.994 248.906 209.762C248.762 210.518 248.558 211.178 248.294 211.742C248.03 212.306 247.694 212.786 247.286 213.182C246.89 213.578 246.41 213.908 245.846 214.172C245.294 214.436 244.646 214.652 243.902 214.82L240.248 215.648ZM243.092 214.244L240.734 204.434L242.336 204.218L244.19 211.886C244.25 212.126 244.268 212.384 244.244 212.66C244.22 212.924 244.16 213.194 244.064 213.47C243.98 213.734 243.866 213.992 243.722 214.244H243.092ZM251.556 215V204.326H253.212V215H251.556ZM249.918 205.694L250.116 204.326H252.636V205.694H249.918ZM261.154 214.91L254.44 204.326H256.384L259.678 209.726L262.396 213.956L261.154 214.91ZM254.422 215V213.632H261.82L262.396 213.956L262.198 215H254.422ZM259.444 210.788L258.958 209.654C259.342 209.522 259.654 209.312 259.894 209.024C260.146 208.724 260.344 208.388 260.488 208.016C260.632 207.644 260.734 207.278 260.794 206.918C260.866 206.546 260.92 206.222 260.956 205.946L261.154 204.326H262.81L262.612 206.126C262.576 206.498 262.492 206.912 262.36 207.368C262.24 207.824 262.06 208.28 261.82 208.736C261.58 209.192 261.262 209.606 260.866 209.978C260.482 210.338 260.008 210.608 259.444 210.788ZM268.554 215L271.434 205.676H263.802L264 204.326H273.324L273.18 205.37L270.21 215H268.554ZM264.342 218.438V208.286L265.998 208.16V218.348L264.342 218.438ZM274.016 215L275.258 208.61L273.782 204.326H275.438L276.32 207.17H276.374C276.506 206.774 276.662 206.396 276.842 206.036C277.022 205.676 277.256 205.358 277.544 205.082C277.832 204.794 278.186 204.566 278.606 204.398C279.026 204.23 279.518 204.146 280.082 204.146C280.886 204.146 281.588 204.338 282.188 204.722C282.788 205.094 283.256 205.658 283.592 206.414C283.94 207.158 284.114 208.106 284.114 209.258V209.51C284.114 210.614 283.934 211.58 283.574 212.408C283.226 213.224 282.71 213.86 282.026 214.316C281.354 214.772 280.526 215 279.542 215H277.742L277.922 213.632H279.47C280.43 213.632 281.168 213.254 281.684 212.498C282.2 211.742 282.458 210.746 282.458 209.51V209.258C282.458 208.394 282.338 207.692 282.098 207.152C281.87 206.6 281.558 206.192 281.162 205.928C280.766 205.664 280.31 205.532 279.794 205.532C279.29 205.532 278.864 205.622 278.516 205.802C278.168 205.982 277.886 206.228 277.67 206.54C277.454 206.84 277.28 207.176 277.148 207.548C277.028 207.908 276.938 208.28 276.878 208.664L275.726 215H274.016ZM296.004 215V207.764C296.004 207.068 295.836 206.552 295.5 206.216C295.176 205.868 294.678 205.694 294.006 205.694H288.624L288.822 204.326H294.132C295.296 204.326 296.172 204.614 296.76 205.19C297.36 205.754 297.66 206.594 297.66 207.71V215H296.004ZM288.912 215V208.934L290.568 208.808V215H288.912ZM300.133 214.982C300.049 214.466 299.965 213.92 299.881 213.344C299.797 212.768 299.725 212.204 299.665 211.652C299.605 211.088 299.557 210.572 299.521 210.104C299.497 209.636 299.485 209.246 299.485 208.934C299.485 208.55 299.539 208.148 299.647 207.728C299.755 207.308 299.953 206.918 300.241 206.558C300.529 206.186 300.931 205.886 301.447 205.658L303.139 205.694C302.527 205.874 302.071 206.132 301.771 206.468C301.483 206.804 301.297 207.176 301.213 207.584C301.129 207.98 301.093 208.37 301.105 208.754C301.117 209.066 301.147 209.48 301.195 209.996C301.255 210.5 301.321 211.052 301.393 211.652C301.465 212.24 301.543 212.828 301.627 213.416C301.711 214.004 301.783 214.526 301.843 214.982H300.133ZM298.711 205.694V204.326H303.337L303.139 205.694H298.711ZM305.218 210.284V204.326H306.874V210.284H305.218ZM303.58 205.694L303.778 204.326H306.154V205.694H303.58ZM313.613 215V207.764C313.613 207.068 313.445 206.552 313.109 206.216C312.785 205.868 312.293 205.694 311.633 205.694H307.925L308.123 204.326H311.741C312.905 204.326 313.781 204.614 314.369 205.19C314.969 205.754 315.269 206.594 315.269 207.71V215H313.613ZM324.465 215C323.937 214.1 323.397 213.23 322.845 212.39C322.293 211.55 321.741 210.758 321.189 210.014C320.649 209.258 320.115 208.556 319.587 207.908C319.287 207.536 318.993 207.176 318.705 206.828C318.417 206.468 318.147 206.132 317.895 205.82C317.655 205.508 317.427 205.226 317.211 204.974C317.007 204.722 316.827 204.506 316.671 204.326H318.669C318.897 204.59 319.137 204.884 319.389 205.208C319.641 205.532 319.917 205.886 320.217 206.27C320.517 206.642 320.847 207.056 321.207 207.512C321.723 208.22 322.275 208.982 322.863 209.798C323.451 210.614 324.045 211.46 324.645 212.336C325.245 213.212 325.815 214.1 326.355 215H324.465ZM316.275 215L316.707 212.012C316.803 211.316 316.953 210.68 317.157 210.104C317.373 209.516 317.685 209.006 318.093 208.574C318.501 208.13 319.047 207.77 319.731 207.494L320.271 208.574C319.839 208.778 319.497 209.054 319.245 209.402C318.993 209.738 318.801 210.134 318.669 210.59C318.537 211.034 318.429 211.526 318.345 212.066L317.913 215H316.275ZM322.899 210.572L322.359 209.492C322.815 209.276 323.187 209 323.475 208.664C323.763 208.328 323.979 207.938 324.123 207.494C324.279 207.05 324.381 206.558 324.429 206.018L324.591 204.326H326.247L326.085 206.072C326.025 206.768 325.875 207.404 325.635 207.98C325.395 208.556 325.047 209.06 324.591 209.492C324.147 209.924 323.583 210.284 322.899 210.572ZM276.132 228.326C277.296 228.326 278.172 228.614 278.76 229.19C279.36 229.754 279.66 230.594 279.66 231.71V239H270.678V231.008C270.678 230.864 270.696 230.708 270.732 230.54C270.768 230.36 270.822 230.192 270.894 230.036C270.978 229.88 271.092 229.766 271.236 229.694H269.562L269.742 228.326H276.132ZM278.004 237.632V231.764C278.004 231.068 277.836 230.552 277.5 230.216C277.176 229.868 276.678 229.694 276.006 229.694H272.46C272.412 229.814 272.376 229.964 272.352 230.144C272.34 230.324 272.334 230.504 272.334 230.684V237.632H278.004ZM281.761 234.284V228.326H283.417V234.284H281.761ZM280.123 229.694L280.321 228.326H282.697V229.694H280.123ZM286.07 234.284V228.326H287.726V234.284H286.07ZM284.432 229.694L284.63 228.326H287.006V229.694H284.432ZM297.153 239V231.764C297.153 231.068 296.985 230.552 296.649 230.216C296.325 229.868 295.827 229.694 295.155 229.694H290.493V228.326H295.281C296.445 228.326 297.321 228.614 297.909 229.19C298.509 229.754 298.809 230.594 298.809 231.71V239H297.153ZM288.441 239L288.639 237.632H289.287C289.563 237.632 289.785 237.578 289.953 237.47C290.133 237.35 290.265 237.176 290.349 236.948C290.445 236.72 290.493 236.426 290.493 236.066V228.686H292.149V236.156C292.149 237.08 291.927 237.788 291.483 238.28C291.039 238.76 290.397 239 289.557 239H288.441ZM288.801 229.694L288.999 228.326H291.285V229.694H288.801ZM301.455 239V228.326H303.111V239H301.455ZM299.817 229.694L300.015 228.326H302.535V229.694H299.817ZM304.357 239V237.632H307.309C308.305 237.632 309.049 237.296 309.541 236.624C310.045 235.952 310.297 234.98 310.297 233.708C310.297 232.4 310.045 231.404 309.541 230.72C309.049 230.036 308.305 229.694 307.309 229.694H304.357L304.555 228.326H307.309C308.845 228.326 310.009 228.788 310.801 229.712C311.605 230.636 312.007 231.968 312.007 233.708C312.007 235.424 311.605 236.738 310.801 237.65C310.009 238.55 308.845 239 307.309 239H304.357ZM313.992 234.284V228.326H315.648V234.284H313.992ZM312.354 229.694L312.552 228.326H314.928V229.694H312.354ZM324.465 239C323.937 238.1 323.397 237.23 322.845 236.39C322.293 235.55 321.741 234.758 321.189 234.014C320.649 233.258 320.115 232.556 319.587 231.908C319.287 231.536 318.993 231.176 318.705 230.828C318.417 230.468 318.147 230.132 317.895 229.82C317.655 229.508 317.427 229.226 317.211 228.974C317.007 228.722 316.827 228.506 316.671 228.326H318.669C318.897 228.59 319.137 228.884 319.389 229.208C319.641 229.532 319.917 229.886 320.217 230.27C320.517 230.642 320.847 231.056 321.207 231.512C321.723 232.22 322.275 232.982 322.863 233.798C323.451 234.614 324.045 235.46 324.645 236.336C325.245 237.212 325.815 238.1 326.355 239H324.465ZM316.275 239L316.707 236.012C316.803 235.316 316.953 234.68 317.157 234.104C317.373 233.516 317.685 233.006 318.093 232.574C318.501 232.13 319.047 231.77 319.731 231.494L320.271 232.574C319.839 232.778 319.497 233.054 319.245 233.402C318.993 233.738 318.801 234.134 318.669 234.59C318.537 235.034 318.429 235.526 318.345 236.066L317.913 239H316.275ZM322.899 234.572L322.359 233.492C322.815 233.276 323.187 233 323.475 232.664C323.763 232.328 323.979 231.938 324.123 231.494C324.279 231.05 324.381 230.558 324.429 230.018L324.591 228.326H326.247L326.085 230.072C326.025 230.768 325.875 231.404 325.635 231.98C325.395 232.556 325.047 233.06 324.591 233.492C324.147 233.924 323.583 234.284 322.899 234.572Z" fill="#111111" fill-opacity="0.65"/>
</g>
<g id="Frame 19">
<g id="fi_11170325_2" clip-path="url(#clip1_26_6541)">
<g id="Group_2">
<path id="Vector_2" d="M352 286C351.6 286 351.333 285.867 351.067 285.6L344.4 278.934C343.867 278.4 343.867 277.6 344.4 277.067C344.933 276.534 345.733 276.534 346.267 277.067L352 282.8L365.733 269.067C366.267 268.534 367.067 268.534 367.6 269.067C368.133 269.6 368.133 270.4 367.6 270.934L352.933 285.6C352.667 285.867 352.4 286 352 286Z" fill="#F1C004"/>
</g>
</g>
<path id="&#215;&#164;&#215;&#168;&#215;&#153;&#215;&#167;&#215;&#148; &#215;&#145;&#215;&#145;&#215;&#153;&#215;&#170; &#215;&#148;&#215;&#151;&#215;&#147;&#215;&#169;" d="M201.808 281.054C200.68 281.054 199.72 280.814 198.928 280.334C198.148 279.854 197.548 279.152 197.128 278.228C196.708 277.292 196.498 276.146 196.498 274.79V270.326H198.154V274.79C198.154 275.882 198.292 276.8 198.568 277.544C198.856 278.276 199.27 278.828 199.81 279.2C200.35 279.56 201.01 279.74 201.79 279.74H201.97C202.774 279.74 203.452 279.56 204.004 279.2C204.556 278.828 204.97 278.276 205.246 277.544C205.534 276.812 205.678 275.9 205.678 274.808V270.326H207.316V274.79C207.316 276.146 207.106 277.292 206.686 278.228C206.278 279.152 205.678 279.854 204.886 280.334C204.094 280.814 203.134 281.054 202.006 281.054H201.808ZM197.722 276.86L197.596 275.708C198.4 275.744 199.06 275.636 199.576 275.384C200.092 275.12 200.47 274.718 200.71 274.178C200.962 273.638 201.088 272.984 201.088 272.216V270.326H202.744V272.108C202.744 272.864 202.642 273.542 202.438 274.142C202.234 274.73 201.922 275.234 201.502 275.654C201.094 276.062 200.572 276.368 199.936 276.572C199.312 276.776 198.574 276.872 197.722 276.86ZM208.178 271.694V270.326H216.692L216.512 271.694H208.178ZM213.29 281V273.008C213.29 272.864 213.308 272.708 213.344 272.54C213.38 272.36 213.434 272.192 213.506 272.036C213.59 271.88 213.704 271.766 213.848 271.694H215.144C215.06 271.778 215.006 271.91 214.982 272.09C214.958 272.27 214.946 272.468 214.946 272.684V281H213.29ZM223.306 270.326C224.47 270.326 225.346 270.614 225.934 271.19C226.534 271.754 226.834 272.594 226.834 273.71V281H225.178V273.764C225.178 273.068 225.01 272.552 224.674 272.216C224.35 271.868 223.858 271.694 223.198 271.694H219.994C219.922 271.802 219.844 272.006 219.76 272.306C219.676 272.606 219.634 273.074 219.634 273.71V281H217.978V274.124C217.978 273.596 218.032 273.122 218.14 272.702C218.248 272.27 218.404 271.94 218.608 271.712L218.248 271.64V270.326H223.306ZM217.042 271.694L217.222 270.326H221.182V271.694H217.042ZM235.502 281V273.764C235.502 273.068 235.334 272.552 234.998 272.216C234.674 271.868 234.176 271.694 233.504 271.694H228.122L228.32 270.326H233.63C234.794 270.326 235.67 270.614 236.258 271.19C236.858 271.754 237.158 272.594 237.158 273.71V281H235.502ZM228.41 281V274.934L230.066 274.808V281H228.41ZM250.647 281V273.764C250.647 273.068 250.479 272.552 250.143 272.216C249.819 271.868 249.321 271.694 248.649 271.694H243.987V270.326H248.775C249.939 270.326 250.815 270.614 251.403 271.19C252.003 271.754 252.303 272.594 252.303 273.71V281H250.647ZM241.935 281L242.133 279.632H242.781C243.057 279.632 243.279 279.578 243.447 279.47C243.627 279.35 243.759 279.176 243.843 278.948C243.939 278.72 243.987 278.426 243.987 278.066V270.686H245.643V278.156C245.643 279.08 245.421 279.788 244.977 280.28C244.533 280.76 243.891 281 243.051 281H241.935ZM242.295 271.694L242.493 270.326H244.779V271.694H242.295ZM254.597 276.284V270.326H256.253V276.284H254.597ZM252.959 271.694L253.157 270.326H255.533V271.694H252.959ZM263.226 281V273.764C263.226 273.068 263.058 272.552 262.722 272.216C262.398 271.868 261.9 271.694 261.228 271.694H257.862L258.042 270.326H261.354C262.518 270.326 263.394 270.614 263.982 271.19C264.582 271.754 264.882 272.594 264.882 273.71V279.812C264.834 280.028 264.744 280.232 264.612 280.424C264.492 280.616 264.354 280.808 264.198 281H263.226ZM257.322 281V279.632H266.214L266.016 281H257.322ZM272.527 281V273.764C272.527 273.068 272.359 272.552 272.023 272.216C271.699 271.868 271.201 271.694 270.529 271.694H267.163L267.343 270.326H270.655C271.819 270.326 272.695 270.614 273.283 271.19C273.883 271.754 274.183 272.594 274.183 273.71V279.812C274.135 280.028 274.045 280.232 273.913 280.424C273.793 280.616 273.655 280.808 273.499 281H272.527ZM266.623 281V279.632H275.515L275.317 281H266.623ZM287.371 281V273.764C287.371 273.068 287.203 272.552 286.867 272.216C286.543 271.868 286.045 271.694 285.373 271.694H279.991L280.189 270.326H285.499C286.663 270.326 287.539 270.614 288.127 271.19C288.727 271.754 289.027 272.594 289.027 273.71V281H287.371ZM280.279 281V274.934L281.935 274.808V281H280.279ZM295.226 281L298.106 271.676H290.474L290.672 270.326H299.996L299.852 271.37L296.882 281H295.226ZM291.014 284.438V274.286L292.67 274.16V284.348L291.014 284.438ZM301.929 276.284V270.326H303.585V276.284H301.929ZM300.291 271.694L300.489 270.326H302.865V271.694H300.291ZM310.324 281V273.764C310.324 273.068 310.156 272.552 309.82 272.216C309.496 271.868 309.004 271.694 308.344 271.694H304.636L304.834 270.326H308.452C309.616 270.326 310.492 270.614 311.08 271.19C311.68 271.754 311.98 272.594 311.98 273.71V281H310.324ZM313.58 281V279.632H316.892C317.66 279.632 318.32 279.464 318.872 279.128C319.424 278.78 319.844 278.3 320.132 277.688C320.432 277.076 320.582 276.368 320.582 275.564C320.582 274.292 320.324 273.302 319.808 272.594C319.292 271.874 318.518 271.514 317.486 271.514C316.646 271.514 316.004 271.73 315.56 272.162C315.116 272.594 314.894 273.146 314.894 273.818C314.894 274.346 315.02 274.796 315.272 275.168C315.524 275.54 315.914 275.768 316.442 275.852C316.538 275.876 316.628 275.9 316.712 275.924C316.796 275.936 316.868 275.942 316.928 275.942L316.82 277.166C316.712 277.178 316.58 277.178 316.424 277.166C316.268 277.154 316.076 277.13 315.848 277.094C315.008 276.962 314.372 276.602 313.94 276.014C313.508 275.414 313.292 274.67 313.292 273.782C313.292 273.074 313.454 272.444 313.778 271.892C314.102 271.34 314.576 270.914 315.2 270.614C315.824 270.302 316.586 270.146 317.486 270.146C319.01 270.146 320.186 270.626 321.014 271.586C321.854 272.546 322.274 273.872 322.274 275.564C322.274 276.656 322.052 277.61 321.608 278.426C321.176 279.242 320.546 279.878 319.718 280.334C318.902 280.778 317.912 281 316.748 281H313.58Z" fill="#111111" fill-opacity="0.65"/>
</g>
<g id="Frame 20_2">
<g id="fi_11170325_3">
<g id="Group_3">
<path id="Vector_3" d="M352 330C351.6 330 351.333 329.867 351.067 329.6L344.4 322.934C343.867 322.4 343.867 321.6 344.4 321.067C344.933 320.534 345.733 320.534 346.267 321.067L352 326.8L365.733 313.067C366.267 312.534 367.067 312.534 367.6 313.067C368.133 313.6 368.133 314.4 367.6 314.934L352.933 329.6C352.667 329.867 352.4 330 352 330Z" fill="#F1C004"/>
</g>
</g>
<path id="&#215;&#161;&#215;&#153;&#215;&#147;&#215;&#149;&#215;&#168; &#215;&#158;&#215;&#156;&#215;&#144; &#215;&#145;&#215;&#155;&#215;&#156; &#215;&#148;&#215;&#145;&#215;&#153;&#215;&#170;" d="M197.037 325V317.764C197.037 317.068 196.869 316.552 196.533 316.216C196.209 315.868 195.711 315.694 195.039 315.694H190.377V314.326H195.165C196.329 314.326 197.205 314.614 197.793 315.19C198.393 315.754 198.693 316.594 198.693 317.71V325H197.037ZM188.325 325L188.523 323.632H189.171C189.447 323.632 189.669 323.578 189.837 323.47C190.017 323.35 190.149 323.176 190.233 322.948C190.329 322.72 190.377 322.426 190.377 322.066V314.686H192.033V322.156C192.033 323.08 191.811 323.788 191.367 324.28C190.923 324.76 190.281 325 189.441 325H188.325ZM188.685 315.694L188.883 314.326H191.169V315.694H188.685ZM200.988 320.284V314.326H202.644V320.284H200.988ZM199.35 315.694L199.548 314.326H201.924V315.694H199.35ZM209.617 325V317.764C209.617 317.068 209.449 316.552 209.113 316.216C208.789 315.868 208.291 315.694 207.619 315.694H204.253L204.433 314.326H207.745C208.909 314.326 209.785 314.614 210.373 315.19C210.973 315.754 211.273 316.594 211.273 317.71V323.812C211.225 324.028 211.135 324.232 211.003 324.424C210.883 324.616 210.745 324.808 210.589 325H209.617ZM203.713 325V323.632H212.605L212.407 325H203.713ZM220.609 325V317.764C220.609 317.068 220.441 316.552 220.105 316.216C219.781 315.868 219.283 315.694 218.611 315.694H213.229L213.427 314.326H218.737C219.901 314.326 220.777 314.614 221.365 315.19C221.965 315.754 222.265 316.594 222.265 317.71V325H220.609ZM213.517 325V318.934L215.173 318.808V325H213.517ZM228.68 314.326H235.178L234.998 315.37L231.776 325H230.066L233.216 315.694H227.024V311.518L228.68 311.32V314.326ZM235.626 325V323.632H238.578C239.574 323.632 240.318 323.296 240.81 322.624C241.314 321.952 241.566 320.98 241.566 319.708C241.566 318.4 241.314 317.404 240.81 316.72C240.318 316.036 239.574 315.694 238.578 315.694H235.626L235.824 314.326H238.578C240.114 314.326 241.278 314.788 242.07 315.712C242.874 316.636 243.276 317.968 243.276 319.708C243.276 321.424 242.874 322.738 242.07 323.65C241.278 324.55 240.114 325 238.578 325H235.626ZM249.722 325V317.764C249.722 317.068 249.554 316.552 249.218 316.216C248.894 315.868 248.396 315.694 247.724 315.694H244.358L244.538 314.326H247.85C249.014 314.326 249.89 314.614 250.478 315.19C251.078 315.754 251.378 316.594 251.378 317.71V323.812C251.33 324.028 251.24 324.232 251.108 324.424C250.988 324.616 250.85 324.808 250.694 325H249.722ZM243.818 325V323.632H252.71L252.512 325H243.818ZM265.07 325C264.542 324.1 264.002 323.23 263.45 322.39C262.898 321.55 262.346 320.758 261.794 320.014C261.254 319.258 260.72 318.556 260.192 317.908C259.892 317.536 259.598 317.176 259.31 316.828C259.022 316.468 258.752 316.132 258.5 315.82C258.26 315.508 258.032 315.226 257.816 314.974C257.612 314.722 257.432 314.506 257.276 314.326H259.274C259.502 314.59 259.742 314.884 259.994 315.208C260.246 315.532 260.522 315.886 260.822 316.27C261.122 316.642 261.452 317.056 261.812 317.512C262.328 318.22 262.88 318.982 263.468 319.798C264.056 320.614 264.65 321.46 265.25 322.336C265.85 323.212 266.42 324.1 266.96 325H265.07ZM256.88 325L257.312 322.012C257.408 321.316 257.558 320.68 257.762 320.104C257.978 319.516 258.29 319.006 258.698 318.574C259.106 318.13 259.652 317.77 260.336 317.494L260.876 318.574C260.444 318.778 260.102 319.054 259.85 319.402C259.598 319.738 259.406 320.134 259.274 320.59C259.142 321.034 259.034 321.526 258.95 322.066L258.518 325H256.88ZM263.504 320.572L262.964 319.492C263.42 319.276 263.792 319 264.08 318.664C264.368 318.328 264.584 317.938 264.728 317.494C264.884 317.05 264.986 316.558 265.034 316.018L265.196 314.326H266.852L266.69 316.072C266.63 316.768 266.48 317.404 266.24 317.98C266 318.556 265.652 319.06 265.196 319.492C264.752 319.924 264.188 320.284 263.504 320.572ZM268.873 314.326H275.371L275.191 315.37L271.969 325H270.259L273.409 315.694H267.217V311.518L268.873 311.32V314.326ZM276.09 325L277.332 318.61L275.856 314.326H277.512L278.394 317.17H278.448C278.58 316.774 278.736 316.396 278.916 316.036C279.096 315.676 279.33 315.358 279.618 315.082C279.906 314.794 280.26 314.566 280.68 314.398C281.1 314.23 281.592 314.146 282.156 314.146C282.96 314.146 283.662 314.338 284.262 314.722C284.862 315.094 285.33 315.658 285.666 316.414C286.014 317.158 286.188 318.106 286.188 319.258V319.51C286.188 320.614 286.008 321.58 285.648 322.408C285.3 323.224 284.784 323.86 284.1 324.316C283.428 324.772 282.6 325 281.616 325H279.816L279.996 323.632H281.544C282.504 323.632 283.242 323.254 283.758 322.498C284.274 321.742 284.532 320.746 284.532 319.51V319.258C284.532 318.394 284.412 317.692 284.172 317.152C283.944 316.6 283.632 316.192 283.236 315.928C282.84 315.664 282.384 315.532 281.868 315.532C281.364 315.532 280.938 315.622 280.59 315.802C280.242 315.982 279.96 316.228 279.744 316.54C279.528 316.84 279.354 317.176 279.222 317.548C279.102 317.908 279.012 318.28 278.952 318.664L277.8 325H276.09ZM296.152 325V317.764C296.152 317.068 295.984 316.552 295.648 316.216C295.324 315.868 294.832 315.694 294.172 315.694H290.464L290.662 314.326H294.28C295.444 314.326 296.32 314.614 296.908 315.19C297.508 315.754 297.808 316.594 297.808 317.71V325H296.152ZM300.277 325V314.326H301.933V325H300.277ZM298.639 315.694L298.837 314.326H301.357V315.694H298.639ZM303.053 315.694V314.326H311.567L311.387 315.694H303.053ZM308.165 325V317.008C308.165 316.864 308.183 316.708 308.219 316.54C308.255 316.36 308.309 316.192 308.381 316.036C308.465 315.88 308.579 315.766 308.723 315.694H310.019C309.935 315.778 309.881 315.91 309.857 316.09C309.833 316.27 309.821 316.468 309.821 316.684V325H308.165ZM313.447 320.284V314.326H315.103V320.284H313.447ZM311.809 315.694L312.007 314.326H314.383V315.694H311.809ZM321.374 325.18C319.838 325.18 318.692 324.736 317.936 323.848C317.192 322.96 316.82 321.652 316.82 319.924V319.726C316.82 318.898 316.946 318.142 317.198 317.458C317.462 316.774 317.786 316.216 318.17 315.784V315.568L319.736 315.46L319.538 315.748C319.19 316.144 318.926 316.678 318.746 317.35C318.566 318.022 318.476 318.76 318.476 319.564C318.476 320.992 318.704 322.066 319.16 322.786C319.628 323.506 320.366 323.866 321.374 323.866C322.442 323.866 323.222 323.464 323.714 322.66C324.206 321.844 324.452 320.668 324.452 319.132C324.452 318.016 324.266 317.164 323.894 316.576C323.522 315.988 322.886 315.694 321.986 315.694H316.226L316.424 314.326H322.04C323.444 314.326 324.47 314.74 325.118 315.568C325.778 316.384 326.108 317.566 326.108 319.114C326.108 321.07 325.718 322.57 324.938 323.614C324.158 324.658 322.97 325.18 321.374 325.18Z" fill="#111111" fill-opacity="0.65"/>
</g>
<g id="Frame 21">
<g id="fi_11170325_4">
<g id="Group_4">
<path id="Vector_4" d="M352 374C351.6 374 351.333 373.867 351.067 373.6L344.4 366.934C343.867 366.4 343.867 365.6 344.4 365.067C344.933 364.534 345.733 364.534 346.267 365.067L352 370.8L365.733 357.067C366.267 356.534 367.067 356.534 367.6 357.067C368.133 357.6 368.133 358.4 367.6 358.934L352.933 373.6C352.667 373.867 352.4 374 352 374Z" fill="#F1C004"/>
</g>
</g>
<path id="&#215;&#144;&#215;&#164;&#215;&#169;&#215;&#168;&#215;&#149;&#215;&#170; &#215;&#156;&#215;&#148;&#215;&#149;&#215;&#161;&#215;&#164;&#215;&#170; &#215;&#148;&#215;&#149;&#215;&#145;&#215;&#156;&#215;&#148; &#215;&#156;&#215;&#164;&#215;&#153; &#215;&#148;&#215;&#166;&#215;&#149;&#215;&#168;&#215;&#154;" d="M101.986 372.438V362.232C101.986 361.416 101.806 360.792 101.446 360.36C101.086 359.916 100.582 359.694 99.934 359.694H95.776L95.956 358.326H99.988C101.176 358.326 102.082 358.668 102.706 359.352C103.33 360.024 103.642 360.984 103.642 362.232V372.348L101.986 372.438ZM109.955 369V361.764C109.955 361.068 109.787 360.552 109.451 360.216C109.127 359.868 108.635 359.694 107.975 359.694H104.267L104.465 358.326H108.083C109.247 358.326 110.123 358.614 110.711 359.19C111.311 359.754 111.611 360.594 111.611 361.71V369H109.955ZM114.08 369V358.326H115.736V369H114.08ZM112.442 359.694L112.64 358.326H115.16V359.694H112.442ZM123.678 368.91L116.964 358.326H118.908L122.202 363.726L124.92 367.956L123.678 368.91ZM116.946 369V367.632H124.344L124.92 367.956L124.722 369H116.946ZM121.968 364.788L121.482 363.654C121.866 363.522 122.178 363.312 122.418 363.024C122.67 362.724 122.868 362.388 123.012 362.016C123.156 361.644 123.258 361.278 123.318 360.918C123.39 360.546 123.444 360.222 123.48 359.946L123.678 358.326H125.334L125.136 360.126C125.1 360.498 125.016 360.912 124.884 361.368C124.764 361.824 124.584 362.28 124.344 362.736C124.104 363.192 123.786 363.606 123.39 363.978C123.006 364.338 122.532 364.608 121.968 364.788ZM133.508 369V361.764C133.508 361.068 133.34 360.552 133.004 360.216C132.68 359.868 132.182 359.694 131.51 359.694H126.128L126.326 358.326H131.636C132.8 358.326 133.676 358.614 134.264 359.19C134.864 359.754 135.164 360.594 135.164 361.71V369H133.508ZM126.416 369V362.934L128.072 362.808V369H126.416ZM141.633 364.284V358.326H143.289V364.284H141.633ZM139.995 359.694L140.193 358.326H142.569V359.694H139.995ZM144.861 369V367.632H148.173C148.941 367.632 149.601 367.464 150.153 367.128C150.705 366.78 151.125 366.3 151.413 365.688C151.713 365.076 151.863 364.368 151.863 363.564C151.863 362.292 151.605 361.302 151.089 360.594C150.573 359.874 149.799 359.514 148.767 359.514C147.927 359.514 147.285 359.73 146.841 360.162C146.397 360.594 146.175 361.146 146.175 361.818C146.175 362.346 146.301 362.796 146.553 363.168C146.805 363.54 147.195 363.768 147.723 363.852C147.819 363.876 147.909 363.9 147.993 363.924C148.077 363.936 148.149 363.942 148.209 363.942L148.101 365.166C147.993 365.178 147.861 365.178 147.705 365.166C147.549 365.154 147.357 365.13 147.129 365.094C146.289 364.962 145.653 364.602 145.221 364.014C144.789 363.414 144.573 362.67 144.573 361.782C144.573 361.074 144.735 360.444 145.059 359.892C145.383 359.34 145.857 358.914 146.481 358.614C147.105 358.302 147.867 358.146 148.767 358.146C150.291 358.146 151.467 358.626 152.295 359.586C153.135 360.546 153.555 361.872 153.555 363.564C153.555 364.656 153.333 365.61 152.889 366.426C152.457 367.242 151.827 367.878 150.999 368.334C150.183 368.778 149.193 369 148.029 369H144.861ZM155.416 358.326H161.914L161.734 359.37L158.512 369H156.802L159.952 359.694H153.76V355.518L155.416 355.32V358.326ZM173.738 369V361.764C173.738 361.068 173.57 360.552 173.234 360.216C172.91 359.868 172.412 359.694 171.74 359.694H166.358L166.556 358.326H171.866C173.03 358.326 173.906 358.614 174.494 359.19C175.094 359.754 175.394 360.594 175.394 361.71V369H173.738ZM166.646 369V362.934L168.302 362.808V369H166.646ZM177.957 358.326H184.455L184.275 359.37L181.053 369H179.343L182.493 359.694H176.301V355.518L177.957 355.32V358.326ZM190.736 369V361.764C190.736 361.068 190.568 360.552 190.232 360.216C189.908 359.868 189.41 359.694 188.738 359.694H185.372L185.552 358.326H188.864C190.028 358.326 190.904 358.614 191.492 359.19C192.092 359.754 192.392 360.594 192.392 361.71V367.812C192.344 368.028 192.254 368.232 192.122 368.424C192.002 368.616 191.864 368.808 191.708 369H190.736ZM184.832 369V367.632H193.724L193.526 369H184.832ZM195.611 369V358.326H197.267V369H195.611ZM193.973 359.694L194.171 358.326H196.691V359.694H193.973ZM206.037 369V361.764C206.037 361.068 205.869 360.552 205.533 360.216C205.209 359.868 204.711 359.694 204.039 359.694H198.657L198.855 358.326H204.165C205.329 358.326 206.205 358.614 206.793 359.19C207.393 359.754 207.693 360.594 207.693 361.71V369H206.037ZM198.945 369V362.934L200.601 362.808V369H198.945ZM221.182 369V361.764C221.182 361.068 221.014 360.552 220.678 360.216C220.354 359.868 219.856 359.694 219.184 359.694H214.522V358.326H219.31C220.474 358.326 221.35 358.614 221.938 359.19C222.538 359.754 222.838 360.594 222.838 361.71V369H221.182ZM212.47 369L212.668 367.632H213.316C213.592 367.632 213.814 367.578 213.982 367.47C214.162 367.35 214.294 367.176 214.378 366.948C214.474 366.72 214.522 366.426 214.522 366.066V358.686H216.178V366.156C216.178 367.08 215.956 367.788 215.512 368.28C215.068 368.76 214.426 369 213.586 369H212.47ZM212.83 359.694L213.028 358.326H215.314V359.694H212.83ZM224.404 369V367.632H227.716C228.484 367.632 229.144 367.464 229.696 367.128C230.248 366.78 230.668 366.3 230.956 365.688C231.256 365.076 231.406 364.368 231.406 363.564C231.406 362.292 231.148 361.302 230.632 360.594C230.116 359.874 229.342 359.514 228.31 359.514C227.47 359.514 226.828 359.73 226.384 360.162C225.94 360.594 225.718 361.146 225.718 361.818C225.718 362.346 225.844 362.796 226.096 363.168C226.348 363.54 226.738 363.768 227.266 363.852C227.362 363.876 227.452 363.9 227.536 363.924C227.62 363.936 227.692 363.942 227.752 363.942L227.644 365.166C227.536 365.178 227.404 365.178 227.248 365.166C227.092 365.154 226.9 365.13 226.672 365.094C225.832 364.962 225.196 364.602 224.764 364.014C224.332 363.414 224.116 362.67 224.116 361.782C224.116 361.074 224.278 360.444 224.602 359.892C224.926 359.34 225.4 358.914 226.024 358.614C226.648 358.302 227.41 358.146 228.31 358.146C229.834 358.146 231.01 358.626 231.838 359.586C232.678 360.546 233.098 361.872 233.098 363.564C233.098 364.656 232.876 365.61 232.432 366.426C232 367.242 231.37 367.878 230.542 368.334C229.726 368.778 228.736 369 227.572 369H224.404ZM238.702 369.18C237.166 369.18 236.02 368.736 235.264 367.848C234.52 366.96 234.148 365.652 234.148 363.924V363.726C234.148 362.898 234.274 362.142 234.526 361.458C234.79 360.774 235.114 360.216 235.498 359.784V359.568L237.064 359.46L236.866 359.748C236.518 360.144 236.254 360.678 236.074 361.35C235.894 362.022 235.804 362.76 235.804 363.564C235.804 364.992 236.032 366.066 236.488 366.786C236.956 367.506 237.694 367.866 238.702 367.866C239.77 367.866 240.55 367.464 241.042 366.66C241.534 365.844 241.78 364.668 241.78 363.132C241.78 362.016 241.594 361.164 241.222 360.576C240.85 359.988 240.214 359.694 239.314 359.694H233.554L233.752 358.326H239.368C240.772 358.326 241.798 358.74 242.446 359.568C243.106 360.384 243.436 361.566 243.436 363.114C243.436 365.07 243.046 366.57 242.266 367.614C241.486 368.658 240.298 369.18 238.702 369.18ZM245.51 369V358.326H247.166V369H245.51ZM243.872 359.694L244.07 358.326H246.59V359.694H243.872ZM255.936 369V361.764C255.936 361.068 255.768 360.552 255.432 360.216C255.108 359.868 254.61 359.694 253.938 359.694H248.556L248.754 358.326H254.064C255.228 358.326 256.104 358.614 256.692 359.19C257.292 359.754 257.592 360.594 257.592 361.71V369H255.936ZM248.844 369V362.934L250.5 362.808V369H248.844ZM260.155 358.326H266.653L266.473 359.37L263.251 369H261.541L264.691 359.694H258.499V355.518L260.155 355.32V358.326ZM279.485 369V361.764C279.485 361.068 279.317 360.552 278.981 360.216C278.657 359.868 278.159 359.694 277.487 359.694H272.825V358.326H277.613C278.777 358.326 279.653 358.614 280.241 359.19C280.841 359.754 281.141 360.594 281.141 361.71V369H279.485ZM270.773 369L270.971 367.632H271.619C271.895 367.632 272.117 367.578 272.285 367.47C272.465 367.35 272.597 367.176 272.681 366.948C272.777 366.72 272.825 366.426 272.825 366.066V358.686H274.481V366.156C274.481 367.08 274.259 367.788 273.815 368.28C273.371 368.76 272.729 369 271.889 369H270.773ZM271.133 359.694L271.331 358.326H273.617V359.694H271.133ZM283.787 369V358.326H285.443V369H283.787ZM282.149 359.694L282.347 358.326H284.867V359.694H282.149ZM292.287 369V361.764C292.287 361.068 292.119 360.552 291.783 360.216C291.459 359.868 290.967 359.694 290.307 359.694H286.599L286.797 358.326H290.415C291.579 358.326 292.455 358.614 293.043 359.19C293.643 359.754 293.943 360.594 293.943 361.71V369H292.287ZM300.622 369.054C299.494 369.054 298.534 368.814 297.742 368.334C296.962 367.854 296.362 367.152 295.942 366.228C295.522 365.292 295.312 364.146 295.312 362.79V358.326H296.968V362.79C296.968 363.882 297.106 364.8 297.382 365.544C297.67 366.276 298.084 366.828 298.624 367.2C299.164 367.56 299.824 367.74 300.604 367.74H300.784C301.588 367.74 302.266 367.56 302.818 367.2C303.37 366.828 303.784 366.276 304.06 365.544C304.348 364.812 304.492 363.9 304.492 362.808V358.326H306.13V362.79C306.13 364.146 305.92 365.292 305.5 366.228C305.092 367.152 304.492 367.854 303.7 368.334C302.908 368.814 301.948 369.054 300.82 369.054H300.622ZM296.536 364.86L296.41 363.708C297.214 363.744 297.874 363.636 298.39 363.384C298.906 363.12 299.284 362.718 299.524 362.178C299.776 361.638 299.902 360.984 299.902 360.216V358.326H301.558V360.108C301.558 360.864 301.456 361.542 301.252 362.142C301.048 362.73 300.736 363.234 300.316 363.654C299.908 364.062 299.386 364.368 298.75 364.572C298.126 364.776 297.388 364.872 296.536 364.86ZM307.41 369V367.632H310.722C311.49 367.632 312.15 367.464 312.702 367.128C313.254 366.78 313.674 366.3 313.962 365.688C314.262 365.076 314.412 364.368 314.412 363.564C314.412 362.292 314.154 361.302 313.638 360.594C313.122 359.874 312.348 359.514 311.316 359.514C310.476 359.514 309.834 359.73 309.39 360.162C308.946 360.594 308.724 361.146 308.724 361.818C308.724 362.346 308.85 362.796 309.102 363.168C309.354 363.54 309.744 363.768 310.272 363.852C310.368 363.876 310.458 363.9 310.542 363.924C310.626 363.936 310.698 363.942 310.758 363.942L310.65 365.166C310.542 365.178 310.41 365.178 310.254 365.166C310.098 365.154 309.906 365.13 309.678 365.094C308.838 364.962 308.202 364.602 307.77 364.014C307.338 363.414 307.122 362.67 307.122 361.782C307.122 361.074 307.284 360.444 307.608 359.892C307.932 359.34 308.406 358.914 309.03 358.614C309.654 358.302 310.416 358.146 311.316 358.146C312.84 358.146 314.016 358.626 314.844 359.586C315.684 360.546 316.104 361.872 316.104 363.564C316.104 364.656 315.882 365.61 315.438 366.426C315.006 367.242 314.376 367.878 313.548 368.334C312.732 368.778 311.742 369 310.578 369H307.41ZM324.465 369C323.937 368.1 323.397 367.23 322.845 366.39C322.293 365.55 321.741 364.758 321.189 364.014C320.649 363.258 320.115 362.556 319.587 361.908C319.287 361.536 318.993 361.176 318.705 360.828C318.417 360.468 318.147 360.132 317.895 359.82C317.655 359.508 317.427 359.226 317.211 358.974C317.007 358.722 316.827 358.506 316.671 358.326H318.669C318.897 358.59 319.137 358.884 319.389 359.208C319.641 359.532 319.917 359.886 320.217 360.27C320.517 360.642 320.847 361.056 321.207 361.512C321.723 362.22 322.275 362.982 322.863 363.798C323.451 364.614 324.045 365.46 324.645 366.336C325.245 367.212 325.815 368.1 326.355 369H324.465ZM316.275 369L316.707 366.012C316.803 365.316 316.953 364.68 317.157 364.104C317.373 363.516 317.685 363.006 318.093 362.574C318.501 362.13 319.047 361.77 319.731 361.494L320.271 362.574C319.839 362.778 319.497 363.054 319.245 363.402C318.993 363.738 318.801 364.134 318.669 364.59C318.537 365.034 318.429 365.526 318.345 366.066L317.913 369H316.275ZM322.899 364.572L322.359 363.492C322.815 363.276 323.187 363 323.475 362.664C323.763 362.328 323.979 361.938 324.123 361.494C324.279 361.05 324.381 360.558 324.429 360.018L324.591 358.326H326.247L326.085 360.072C326.025 360.768 325.875 361.404 325.635 361.98C325.395 362.556 325.047 363.06 324.591 363.492C324.147 363.924 323.583 364.284 322.899 364.572Z" fill="#111111" fill-opacity="0.65"/>
</g>
<g id="Frame 22">
<g id="Group_5">
<path id="Vector_5" d="M352 412.333C351.6 412.333 351.333 412.2 351.067 411.933L344.4 405.267C343.867 404.733 343.867 403.933 344.4 403.4C344.933 402.867 345.733 402.867 346.267 403.4L352 409.133L365.733 395.4C366.267 394.867 367.067 394.867 367.6 395.4C368.133 395.933 368.133 396.733 367.6 397.267L352.933 411.933C352.667 412.2 352.4 412.333 352 412.333Z" fill="#F1C004"/>
</g>
<path id="&#215;&#146;&#215;&#153;&#215;&#169;&#215;&#148; &#215;&#156;&#215;&#158;&#215;&#144;&#215;&#146;&#215;&#168; &#215;&#161;&#215;&#164;&#215;&#167;&#215;&#153;&#215;&#157; &#215;&#158;&#215;&#149;&#215;&#145;&#215;&#153;&#215;&#156;&#215;&#153;&#215;&#157;" d="M152.395 397.326C153.559 397.326 154.435 397.614 155.023 398.19C155.623 398.754 155.923 399.594 155.923 400.71V408H146.941V400.008C146.941 399.864 146.959 399.708 146.995 399.54C147.031 399.36 147.085 399.192 147.157 399.036C147.241 398.88 147.355 398.766 147.499 398.694H145.825L146.005 397.326H152.395ZM154.267 406.632V400.764C154.267 400.068 154.099 399.552 153.763 399.216C153.439 398.868 152.941 398.694 152.269 398.694H148.723C148.675 398.814 148.639 398.964 148.615 399.144C148.603 399.324 148.597 399.504 148.597 399.684V406.632H154.267ZM158.025 403.284V397.326H159.681V403.284H158.025ZM156.387 398.694L156.585 397.326H158.961V398.694H156.387ZM162.28 397.326H168.778L168.598 398.37L165.376 408H163.666L166.816 398.694H160.624V394.518L162.28 394.32V397.326ZM170.738 403.284V397.326H172.394V403.284H170.738ZM169.1 398.694L169.298 397.326H171.674V398.694H169.1ZM179.367 408V400.764C179.367 400.068 179.199 399.552 178.863 399.216C178.539 398.868 178.041 398.694 177.369 398.694H174.003L174.183 397.326H177.495C178.659 397.326 179.535 397.614 180.123 398.19C180.723 398.754 181.023 399.594 181.023 400.71V406.812C180.975 407.028 180.885 407.232 180.753 407.424C180.633 407.616 180.495 407.808 180.339 408H179.367ZM173.463 408V406.632H182.355L182.157 408H173.463ZM184.242 408V397.326H185.898V408H184.242ZM182.604 398.694L182.802 397.326H185.322V398.694H182.604ZM187.414 408L188.656 401.61L187.18 397.326H188.836L189.718 400.17H189.772C189.904 399.774 190.06 399.396 190.24 399.036C190.42 398.676 190.654 398.358 190.942 398.082C191.23 397.794 191.584 397.566 192.004 397.398C192.424 397.23 192.916 397.146 193.48 397.146C194.284 397.146 194.986 397.338 195.586 397.722C196.186 398.094 196.654 398.658 196.99 399.414C197.338 400.158 197.512 401.106 197.512 402.258V402.51C197.512 403.614 197.332 404.58 196.972 405.408C196.624 406.224 196.108 406.86 195.424 407.316C194.752 407.772 193.924 408 192.94 408H191.14L191.32 406.632H192.868C193.828 406.632 194.566 406.254 195.082 405.498C195.598 404.742 195.856 403.746 195.856 402.51V402.258C195.856 401.394 195.736 400.692 195.496 400.152C195.268 399.6 194.956 399.192 194.56 398.928C194.164 398.664 193.708 398.532 193.192 398.532C192.688 398.532 192.262 398.622 191.914 398.802C191.566 398.982 191.284 399.228 191.068 399.54C190.852 399.84 190.678 400.176 190.546 400.548C190.426 400.908 190.336 401.28 190.276 401.664L189.124 408H187.414ZM208.52 397.326C209.684 397.326 210.56 397.614 211.148 398.19C211.748 398.754 212.048 399.594 212.048 400.71V408H203.066V400.008C203.066 399.864 203.084 399.708 203.12 399.54C203.156 399.36 203.21 399.192 203.282 399.036C203.366 398.88 203.48 398.766 203.624 398.694H201.95L202.13 397.326H208.52ZM210.392 406.632V400.764C210.392 400.068 210.224 399.552 209.888 399.216C209.564 398.868 209.066 398.694 208.394 398.694H204.848C204.8 398.814 204.764 398.964 204.74 399.144C204.728 399.324 204.722 399.504 204.722 399.684V406.632H210.392ZM214.15 403.284V397.326H215.806V403.284H214.15ZM212.512 398.694L212.71 397.326H215.086V398.694H212.512ZM222.041 408L224.921 398.676H217.289L217.487 397.326H226.811L226.667 398.37L223.697 408H222.041ZM217.829 411.438V401.286L219.485 401.16V411.348L217.829 411.438ZM227.664 408V406.632H230.976C231.744 406.632 232.404 406.464 232.956 406.128C233.508 405.78 233.928 405.3 234.216 404.688C234.516 404.076 234.666 403.368 234.666 402.564C234.666 401.292 234.408 400.302 233.892 399.594C233.376 398.874 232.602 398.514 231.57 398.514C230.73 398.514 230.088 398.73 229.644 399.162C229.2 399.594 228.978 400.146 228.978 400.818C228.978 401.346 229.104 401.796 229.356 402.168C229.608 402.54 229.998 402.768 230.526 402.852C230.622 402.876 230.712 402.9 230.796 402.924C230.88 402.936 230.952 402.942 231.012 402.942L230.904 404.166C230.796 404.178 230.664 404.178 230.508 404.166C230.352 404.154 230.16 404.13 229.932 404.094C229.092 403.962 228.456 403.602 228.024 403.014C227.592 402.414 227.376 401.67 227.376 400.782C227.376 400.074 227.538 399.444 227.862 398.892C228.186 398.34 228.66 397.914 229.284 397.614C229.908 397.302 230.67 397.146 231.57 397.146C233.094 397.146 234.27 397.626 235.098 398.586C235.938 399.546 236.358 400.872 236.358 402.564C236.358 403.656 236.136 404.61 235.692 405.426C235.26 406.242 234.63 406.878 233.802 407.334C232.986 407.778 231.996 408 230.832 408H227.664ZM241.961 408.18C240.425 408.18 239.279 407.736 238.523 406.848C237.779 405.96 237.407 404.652 237.407 402.924V402.726C237.407 401.898 237.533 401.142 237.785 400.458C238.049 399.774 238.373 399.216 238.757 398.784V398.568L240.323 398.46L240.125 398.748C239.777 399.144 239.513 399.678 239.333 400.35C239.153 401.022 239.063 401.76 239.063 402.564C239.063 403.992 239.291 405.066 239.747 405.786C240.215 406.506 240.953 406.866 241.961 406.866C243.029 406.866 243.809 406.464 244.301 405.66C244.793 404.844 245.039 403.668 245.039 402.132C245.039 401.016 244.853 400.164 244.481 399.576C244.109 398.988 243.473 398.694 242.573 398.694H236.813L237.011 397.326H242.627C244.031 397.326 245.057 397.74 245.705 398.568C246.365 399.384 246.695 400.566 246.695 402.114C246.695 404.07 246.305 405.57 245.525 406.614C244.745 407.658 243.557 408.18 241.961 408.18ZM256.847 408V400.764C256.847 400.068 256.679 399.552 256.343 399.216C256.019 398.868 255.527 398.694 254.867 398.694H251.159L251.357 397.326H254.975C256.139 397.326 257.015 397.614 257.603 398.19C258.203 398.754 258.503 399.594 258.503 400.71V408H256.847ZM263.703 408.09L263.019 405.696H262.893C262.677 406.068 262.449 406.398 262.209 406.686C261.981 406.962 261.729 407.202 261.453 407.406C261.189 407.598 260.901 407.748 260.589 407.856C260.277 407.952 259.929 408 259.545 408H259.275V406.596H259.509C259.881 406.596 260.235 406.53 260.571 406.398C260.919 406.254 261.237 406.068 261.525 405.84C261.825 405.612 262.077 405.378 262.281 405.138C262.497 404.886 262.659 404.646 262.767 404.418V400.008C262.767 399.54 262.659 399.204 262.443 399C262.227 398.796 261.873 398.694 261.381 398.694H260.265L260.445 397.326H261.795C262.383 397.326 262.869 397.422 263.253 397.614C263.637 397.806 263.925 398.088 264.117 398.46C264.321 398.832 264.423 399.294 264.423 399.846V405.102L265.179 407.766L263.703 408.09ZM273.432 408C272.904 407.1 272.364 406.23 271.812 405.39C271.26 404.55 270.708 403.758 270.156 403.014C269.616 402.258 269.082 401.556 268.554 400.908C268.254 400.536 267.96 400.176 267.672 399.828C267.384 399.468 267.114 399.132 266.862 398.82C266.622 398.508 266.394 398.226 266.178 397.974C265.974 397.722 265.794 397.506 265.638 397.326H267.636C267.864 397.59 268.104 397.884 268.356 398.208C268.608 398.532 268.884 398.886 269.184 399.27C269.484 399.642 269.814 400.056 270.174 400.512C270.69 401.22 271.242 401.982 271.83 402.798C272.418 403.614 273.012 404.46 273.612 405.336C274.212 406.212 274.782 407.1 275.322 408H273.432ZM265.242 408L265.674 405.012C265.77 404.316 265.92 403.68 266.124 403.104C266.34 402.516 266.652 402.006 267.06 401.574C267.468 401.13 268.014 400.77 268.698 400.494L269.238 401.574C268.806 401.778 268.464 402.054 268.212 402.402C267.96 402.738 267.768 403.134 267.636 403.59C267.504 404.034 267.396 404.526 267.312 405.066L266.88 408H265.242ZM271.866 403.572L271.326 402.492C271.782 402.276 272.154 402 272.442 401.664C272.73 401.328 272.946 400.938 273.09 400.494C273.246 400.05 273.348 399.558 273.396 399.018L273.558 397.326H275.214L275.052 399.072C274.992 399.768 274.842 400.404 274.602 400.98C274.362 401.556 274.014 402.06 273.558 402.492C273.114 402.924 272.55 403.284 271.866 403.572ZM276.047 408L277.289 401.61L275.813 397.326H277.469L278.351 400.17H278.405C278.537 399.774 278.693 399.396 278.873 399.036C279.053 398.676 279.287 398.358 279.575 398.082C279.863 397.794 280.217 397.566 280.637 397.398C281.057 397.23 281.549 397.146 282.113 397.146C282.917 397.146 283.619 397.338 284.219 397.722C284.819 398.094 285.287 398.658 285.623 399.414C285.971 400.158 286.145 401.106 286.145 402.258V402.51C286.145 403.614 285.965 404.58 285.605 405.408C285.257 406.224 284.741 406.86 284.057 407.316C283.385 407.772 282.557 408 281.573 408H279.773L279.953 406.632H281.501C282.461 406.632 283.199 406.254 283.715 405.498C284.231 404.742 284.489 403.746 284.489 402.51V402.258C284.489 401.394 284.369 400.692 284.129 400.152C283.901 399.6 283.589 399.192 283.193 398.928C282.797 398.664 282.341 398.532 281.825 398.532C281.321 398.532 280.895 398.622 280.547 398.802C280.199 398.982 279.917 399.228 279.701 399.54C279.485 399.84 279.311 400.176 279.179 400.548C279.059 400.908 278.969 401.28 278.909 401.664L277.757 408H276.047ZM288.118 397.326H294.616L294.436 398.37L291.214 408H289.504L292.654 398.694H286.462V394.518L288.118 394.32V397.326ZM306.439 408V400.764C306.439 400.068 306.271 399.552 305.935 399.216C305.611 398.868 305.113 398.694 304.441 398.694H299.059L299.257 397.326H304.567C305.731 397.326 306.607 397.614 307.195 398.19C307.795 398.754 308.095 399.594 308.095 400.71V408H306.439ZM299.347 408V401.934L301.003 401.808V408H299.347ZM314.853 408.054C313.725 408.054 312.765 407.814 311.973 407.334C311.193 406.854 310.593 406.152 310.173 405.228C309.753 404.292 309.543 403.146 309.543 401.79V397.326H311.199V401.79C311.199 402.882 311.337 403.8 311.613 404.544C311.901 405.276 312.315 405.828 312.855 406.2C313.395 406.56 314.055 406.74 314.835 406.74H315.015C315.819 406.74 316.497 406.56 317.049 406.2C317.601 405.828 318.015 405.276 318.291 404.544C318.579 403.812 318.723 402.9 318.723 401.808V397.326H320.361V401.79C320.361 403.146 320.151 404.292 319.731 405.228C319.323 406.152 318.723 406.854 317.931 407.334C317.139 407.814 316.179 408.054 315.051 408.054H314.853ZM310.767 403.86L310.641 402.708C311.445 402.744 312.105 402.636 312.621 402.384C313.137 402.12 313.515 401.718 313.755 401.178C314.007 400.638 314.133 399.984 314.133 399.216V397.326H315.789V399.108C315.789 399.864 315.687 400.542 315.483 401.142C315.279 401.73 314.967 402.234 314.547 402.654C314.139 403.062 313.617 403.368 312.981 403.572C312.357 403.776 311.619 403.872 310.767 403.86ZM322.861 403.284V397.326H324.517V403.284H322.861ZM321.223 398.694L321.421 397.326H323.797V398.694H321.223ZM329.11 408.09L328.426 405.696H328.3C328.084 406.068 327.856 406.398 327.616 406.686C327.388 406.962 327.136 407.202 326.86 407.406C326.596 407.598 326.308 407.748 325.996 407.856C325.684 407.952 325.336 408 324.952 408H324.682V406.596H324.916C325.288 406.596 325.642 406.53 325.978 406.398C326.326 406.254 326.644 406.068 326.932 405.84C327.232 405.612 327.484 405.378 327.688 405.138C327.904 404.886 328.066 404.646 328.174 404.418V400.008C328.174 399.54 328.066 399.204 327.85 399C327.634 398.796 327.28 398.694 326.788 398.694H325.672L325.852 397.326H327.202C327.79 397.326 328.276 397.422 328.66 397.614C329.044 397.806 329.332 398.088 329.524 398.46C329.728 398.832 329.83 399.294 329.83 399.846V405.102L330.586 407.766L329.11 408.09Z" fill="#111111" fill-opacity="0.65"/>
</g>
<g id="Frame 23">
<g id="fi_11170325_5" clip-path="url(#clip2_26_6541)">
<g id="Group_6">
<path id="Vector_6" d="M352 452C351.6 452 351.333 451.867 351.067 451.6L344.4 444.934C343.867 444.4 343.867 443.6 344.4 443.067C344.933 442.534 345.733 442.534 346.267 443.067L352 448.8L365.733 435.067C366.267 434.534 367.067 434.534 367.6 435.067C368.133 435.6 368.133 436.4 367.6 436.934L352.933 451.6C352.667 451.867 352.4 452 352 452Z" fill="#F1C004"/>
</g>
</g>
<path id="&#215;&#148;&#215;&#152;&#215;&#145;&#215;&#149;&#215;&#170; &#215;&#162;&#215;&#156; &#215;&#164;&#215;&#170;&#215;&#168;&#215;&#149;&#215;&#160;&#215;&#149;&#215;&#170; &#215;&#144;&#215;&#151;&#215;&#161;&#215;&#149;&#215;&#159; &#215;&#156;&#215;&#156;&#215;&#167;&#215;&#149;&#215;&#151;&#215;&#149;&#215;&#170;" d="M101.248 447V439.764C101.248 439.068 101.08 438.552 100.744 438.216C100.42 437.868 99.9223 437.694 99.2503 437.694H94.5883V436.326H99.3763C100.54 436.326 101.416 436.614 102.004 437.19C102.604 437.754 102.904 438.594 102.904 439.71V447H101.248ZM92.5363 447L92.7343 445.632H93.3823C93.6583 445.632 93.8803 445.578 94.0483 445.47C94.2283 445.35 94.3603 445.176 94.4443 444.948C94.5403 444.72 94.5883 444.426 94.5883 444.066V436.686H96.2443V444.156C96.2443 445.08 96.0223 445.788 95.5783 446.28C95.1343 446.76 94.4923 447 93.6523 447H92.5363ZM92.8963 437.694L93.0942 436.326H95.3803V437.694H92.8963ZM105.551 447V436.326H107.207V447H105.551ZM103.913 437.694L104.111 436.326H106.631V437.694H103.913ZM114.699 436.326C115.863 436.326 116.739 436.614 117.327 437.19C117.927 437.754 118.227 438.594 118.227 439.71V447H116.571V439.764C116.571 439.068 116.403 438.552 116.067 438.216C115.743 437.868 115.251 437.694 114.591 437.694H111.387C111.315 437.802 111.237 438.006 111.153 438.306C111.069 438.606 111.027 439.074 111.027 439.71V447H109.371V440.124C109.371 439.596 109.425 439.122 109.533 438.702C109.641 438.27 109.797 437.94 110.001 437.712L109.641 437.64V436.326H114.699ZM108.435 437.694L108.615 436.326H112.575V437.694H108.435ZM120.883 447V436.326H122.539V447H120.883ZM119.245 437.694L119.443 436.326H121.963V437.694H119.245ZM128.879 447L131.759 437.676H124.127L124.325 436.326H133.649L133.505 437.37L130.535 447H128.879ZM124.667 450.438V440.286L126.323 440.16V450.348L124.667 450.438ZM135.528 436.326H142.026L141.846 437.37L138.624 447H136.914L140.064 437.694H133.872V433.518L135.528 433.32V436.326ZM143.932 436.326H150.43L150.25 437.37L147.028 447H145.318L148.468 437.694H142.276V433.518L143.932 433.32V436.326ZM156.35 450.438V436.326H158.006V450.348L156.35 450.438ZM154.712 437.694L154.91 436.326H157.43V437.694H154.712ZM161.166 447V436.326H162.822V447H161.166ZM159.528 437.694L159.726 436.326H162.246V437.694H159.528ZM169.198 447.18C167.662 447.18 166.516 446.736 165.76 445.848C165.016 444.96 164.644 443.652 164.644 441.924V441.726C164.644 440.898 164.77 440.142 165.022 439.458C165.286 438.774 165.61 438.216 165.994 437.784V437.568L167.56 437.46L167.362 437.748C167.014 438.144 166.75 438.678 166.57 439.35C166.39 440.022 166.3 440.76 166.3 441.564C166.3 442.992 166.528 444.066 166.984 444.786C167.452 445.506 168.19 445.866 169.198 445.866C170.266 445.866 171.046 445.464 171.538 444.66C172.03 443.844 172.276 442.668 172.276 441.132C172.276 440.016 172.09 439.164 171.718 438.576C171.346 437.988 170.71 437.694 169.81 437.694H164.05L164.248 436.326H169.864C171.268 436.326 172.294 436.74 172.942 437.568C173.602 438.384 173.932 439.566 173.932 441.114C173.932 443.07 173.542 444.57 172.762 445.614C171.982 446.658 170.794 447.18 169.198 447.18ZM180.88 436.326C182.044 436.326 182.92 436.614 183.508 437.19C184.108 437.754 184.408 438.594 184.408 439.71V447H182.752V439.764C182.752 439.068 182.584 438.552 182.248 438.216C181.924 437.868 181.432 437.694 180.772 437.694H177.568C177.496 437.802 177.418 438.006 177.334 438.306C177.25 438.606 177.208 439.074 177.208 439.71V447H175.552V440.124C175.552 439.596 175.606 439.122 175.714 438.702C175.822 438.27 175.978 437.94 176.182 437.712L175.822 437.64V436.326H180.88ZM174.616 437.694L174.796 436.326H178.756V437.694H174.616ZM193.58 447C193.052 446.1 192.512 445.23 191.96 444.39C191.408 443.55 190.856 442.758 190.304 442.014C189.764 441.258 189.23 440.556 188.702 439.908C188.402 439.536 188.108 439.176 187.82 438.828C187.532 438.468 187.262 438.132 187.01 437.82C186.77 437.508 186.542 437.226 186.326 436.974C186.122 436.722 185.942 436.506 185.786 436.326H187.784C188.012 436.59 188.252 436.884 188.504 437.208C188.756 437.532 189.032 437.886 189.332 438.27C189.632 438.642 189.962 439.056 190.322 439.512C190.838 440.22 191.39 440.982 191.978 441.798C192.566 442.614 193.16 443.46 193.76 444.336C194.36 445.212 194.93 446.1 195.47 447H193.58ZM185.39 447L185.822 444.012C185.918 443.316 186.068 442.68 186.272 442.104C186.488 441.516 186.8 441.006 187.208 440.574C187.616 440.13 188.162 439.77 188.846 439.494L189.386 440.574C188.954 440.778 188.612 441.054 188.36 441.402C188.108 441.738 187.916 442.134 187.784 442.59C187.652 443.034 187.544 443.526 187.46 444.066L187.028 447H185.39ZM192.014 442.572L191.474 441.492C191.93 441.276 192.302 441 192.59 440.664C192.878 440.328 193.094 439.938 193.238 439.494C193.394 439.05 193.496 438.558 193.544 438.018L193.706 436.326H195.362L195.2 438.072C195.14 438.768 194.99 439.404 194.75 439.98C194.51 440.556 194.162 441.06 193.706 441.492C193.262 441.924 192.698 442.284 192.014 442.572ZM208.309 447V439.764C208.309 439.068 208.141 438.552 207.805 438.216C207.481 437.868 206.983 437.694 206.311 437.694H201.649V436.326H206.437C207.601 436.326 208.477 436.614 209.065 437.19C209.665 437.754 209.965 438.594 209.965 439.71V447H208.309ZM199.597 447L199.795 445.632H200.443C200.719 445.632 200.941 445.578 201.109 445.47C201.289 445.35 201.421 445.176 201.505 444.948C201.601 444.72 201.649 444.426 201.649 444.066V436.686H203.305V444.156C203.305 445.08 203.083 445.788 202.639 446.28C202.195 446.76 201.553 447 200.713 447H199.597ZM199.957 437.694L200.155 436.326H202.441V437.694H199.957ZM212.611 447V436.326H214.267V447H212.611ZM210.973 437.694L211.171 436.326H213.691V437.694H210.973ZM218.537 447V438.99C218.537 438.69 218.489 438.444 218.393 438.252C218.309 438.048 218.177 437.904 217.997 437.82C217.817 437.736 217.595 437.694 217.331 437.694H216.107L216.287 436.326H217.745C218.537 436.326 219.143 436.542 219.563 436.974C219.983 437.394 220.193 438.012 220.193 438.828V447H218.537ZM215.567 447V445.632H219.329V447H215.567ZM222.845 447V436.326H224.501V447H222.845ZM221.207 437.694L221.405 436.326H223.925V437.694H221.207ZM231.346 447V439.764C231.346 439.068 231.178 438.552 230.842 438.216C230.518 437.868 230.026 437.694 229.366 437.694H225.658L225.856 436.326H229.474C230.638 436.326 231.514 436.614 232.102 437.19C232.702 437.754 233.002 438.594 233.002 439.71V447H231.346ZM242.701 447V439.764C242.701 439.068 242.533 438.552 242.197 438.216C241.873 437.868 241.375 437.694 240.703 437.694H236.041V436.326H240.829C241.993 436.326 242.869 436.614 243.457 437.19C244.057 437.754 244.357 438.594 244.357 439.71V447H242.701ZM233.989 447L234.187 445.632H234.835C235.111 445.632 235.333 445.578 235.501 445.47C235.681 445.35 235.813 445.176 235.897 444.948C235.993 444.72 236.041 444.426 236.041 444.066V436.686H237.697V444.156C237.697 445.08 237.475 445.788 237.031 446.28C236.587 446.76 235.945 447 235.105 447H233.989ZM234.349 437.694L234.547 436.326H236.833V437.694H234.349ZM245.924 447V445.632H249.236C250.004 445.632 250.664 445.464 251.216 445.128C251.768 444.78 252.188 444.3 252.476 443.688C252.776 443.076 252.926 442.368 252.926 441.564C252.926 440.292 252.668 439.302 252.152 438.594C251.636 437.874 250.862 437.514 249.83 437.514C248.99 437.514 248.348 437.73 247.904 438.162C247.46 438.594 247.238 439.146 247.238 439.818C247.238 440.346 247.364 440.796 247.616 441.168C247.868 441.54 248.258 441.768 248.786 441.852C248.882 441.876 248.972 441.9 249.056 441.924C249.14 441.936 249.212 441.942 249.272 441.942L249.164 443.166C249.056 443.178 248.924 443.178 248.768 443.166C248.612 443.154 248.42 443.13 248.192 443.094C247.352 442.962 246.716 442.602 246.284 442.014C245.852 441.414 245.636 440.67 245.636 439.782C245.636 439.074 245.798 438.444 246.122 437.892C246.446 437.34 246.92 436.914 247.544 436.614C248.168 436.302 248.93 436.146 249.83 436.146C251.354 436.146 252.53 436.626 253.358 437.586C254.198 438.546 254.618 439.872 254.618 441.564C254.618 442.656 254.396 443.61 253.952 444.426C253.52 445.242 252.89 445.878 252.062 446.334C251.246 446.778 250.256 447 249.092 447H245.924ZM260.612 436.326H267.11L266.93 437.37L263.708 447H261.998L265.148 437.694H258.956V433.518L260.612 433.32V436.326ZM267.432 447.648V446.262L271.068 445.452C271.596 445.32 272.07 445.146 272.49 444.93C272.922 444.702 273.288 444.366 273.588 443.922C273.9 443.478 274.152 442.872 274.344 442.104C274.536 441.336 274.662 440.34 274.722 439.116L274.902 436.326H276.558L276.396 439.116C276.348 440.112 276.246 440.994 276.09 441.762C275.946 442.518 275.742 443.178 275.478 443.742C275.214 444.306 274.878 444.786 274.47 445.182C274.074 445.578 273.594 445.908 273.03 446.172C272.478 446.436 271.83 446.652 271.086 446.82L267.432 447.648ZM270.276 446.244L267.918 436.434L269.52 436.218L271.374 443.886C271.434 444.126 271.452 444.384 271.428 444.66C271.404 444.924 271.344 445.194 271.248 445.47C271.164 445.734 271.05 445.992 270.906 446.244H270.276ZM289.612 447V439.764C289.612 439.068 289.444 438.552 289.108 438.216C288.784 437.868 288.286 437.694 287.614 437.694H282.952V436.326H287.74C288.904 436.326 289.78 436.614 290.368 437.19C290.968 437.754 291.268 438.594 291.268 439.71V447H289.612ZM280.9 447L281.098 445.632H281.746C282.022 445.632 282.244 445.578 282.412 445.47C282.592 445.35 282.724 445.176 282.808 444.948C282.904 444.72 282.952 444.426 282.952 444.066V436.686H284.608V444.156C284.608 445.08 284.386 445.788 283.942 446.28C283.498 446.76 282.856 447 282.016 447H280.9ZM281.26 437.694L281.458 436.326H283.744V437.694H281.26ZM293.914 447V436.326H295.57V447H293.914ZM292.276 437.694L292.474 436.326H294.994V437.694H292.276ZM302.648 447V439.764C302.648 439.068 302.48 438.552 302.144 438.216C301.82 437.868 301.322 437.694 300.65 437.694H297.284L297.464 436.326H300.776C301.94 436.326 302.816 436.614 303.404 437.19C304.004 437.754 304.304 438.594 304.304 439.71V445.812C304.256 446.028 304.166 446.232 304.034 446.424C303.914 446.616 303.776 446.808 303.62 447H302.648ZM296.744 447V445.632H305.636L305.438 447H296.744ZM310.995 447.18C309.507 447.18 308.355 446.676 307.539 445.668C306.735 444.648 306.333 443.148 306.333 441.168V436.326H307.989V441.168C307.989 442.704 308.253 443.874 308.781 444.678C309.309 445.47 310.035 445.866 310.959 445.866C311.955 445.866 312.735 445.47 313.299 444.678C313.863 443.874 314.145 442.704 314.145 441.168C314.145 440.016 313.989 439.128 313.677 438.504C313.365 437.868 312.825 437.556 312.057 437.568C311.793 437.568 311.541 437.586 311.301 437.622C311.073 437.658 310.833 437.706 310.581 437.766V436.434C310.881 436.374 311.169 436.326 311.445 436.29C311.733 436.254 312.027 436.236 312.327 436.236C313.563 436.224 314.451 436.65 314.991 437.514C315.531 438.366 315.801 439.584 315.801 441.168C315.801 443.148 315.381 444.648 314.541 445.668C313.701 446.676 312.519 447.18 310.995 447.18ZM324.049 447V439.764C324.049 439.068 323.881 438.552 323.545 438.216C323.221 437.868 322.723 437.694 322.051 437.694H316.669L316.867 436.326H322.177C323.341 436.326 324.217 436.614 324.805 437.19C325.405 437.754 325.705 438.594 325.705 439.71V447H324.049ZM316.957 447V440.934L318.613 440.808V447H316.957Z" fill="#111111" fill-opacity="0.65"/>
</g>
</g>
<g id="Link">
<path d="M135 516C135 502.745 145.745 492 159 492H285C298.255 492 309 502.745 309 516C309 529.255 298.255 540 285 540H159C145.745 540 135 529.255 135 516Z" fill="#F1C004"/>
<path id="&#215;&#156;&#215;&#164;&#215;&#168;&#215;&#152;&#215;&#153;&#215;&#157; &#215;&#160;&#215;&#149;&#215;&#161;&#215;&#164;&#215;&#153;&#215;&#157;" d="M180.74 512.558C181.804 512.558 182.607 512.81 183.148 513.314C183.689 513.809 183.96 514.546 183.96 515.526V521H176.344V515.694C176.344 515.563 176.363 515.409 176.4 515.232C176.437 515.045 176.503 514.868 176.596 514.7C176.689 514.532 176.829 514.401 177.016 514.308H175.574L175.798 512.558H180.74ZM181.832 519.25V515.568C181.832 515.148 181.725 514.835 181.51 514.63C181.305 514.415 181.011 514.308 180.628 514.308H178.584C178.537 514.439 178.505 514.579 178.486 514.728C178.477 514.877 178.472 515.031 178.472 515.19V519.25H181.832ZM186.058 517.444V512.558H188.186V517.444H186.058ZM184.91 514.308L185.148 512.558H187.248V514.308H184.91ZM189.853 521V519.25H192.821C193.325 519.25 193.749 519.147 194.095 518.942C194.44 518.727 194.701 518.433 194.879 518.06C195.065 517.677 195.159 517.225 195.159 516.702C195.159 515.918 195.005 515.302 194.697 514.854C194.389 514.397 193.894 514.168 193.213 514.168C192.662 514.168 192.261 514.285 192.009 514.518C191.766 514.751 191.645 515.055 191.645 515.428C191.645 515.689 191.705 515.913 191.827 516.1C191.957 516.287 192.144 516.413 192.387 516.478C192.471 516.506 192.555 516.534 192.639 516.562C192.723 516.581 192.793 516.59 192.849 516.59L192.681 518.116C192.55 518.135 192.401 518.139 192.233 518.13C192.065 518.111 191.855 518.079 191.603 518.032C190.987 517.911 190.497 517.617 190.133 517.15C189.778 516.674 189.601 516.077 189.601 515.358C189.601 514.789 189.736 514.285 190.007 513.846C190.277 513.398 190.679 513.048 191.211 512.796C191.752 512.544 192.419 512.418 193.213 512.418C194.519 512.418 195.532 512.801 196.251 513.566C196.969 514.322 197.329 515.367 197.329 516.702C197.329 517.589 197.142 518.354 196.769 518.998C196.405 519.642 195.868 520.137 195.159 520.482C194.459 520.827 193.609 521 192.611 521H189.853ZM202.677 521.126C201.343 521.126 200.339 520.79 199.667 520.118C199.005 519.437 198.673 518.475 198.673 517.234V517.108C198.673 516.455 198.785 515.89 199.009 515.414C199.243 514.938 199.532 514.597 199.877 514.392V514.196L201.683 514.154L201.613 514.336C201.315 514.457 201.1 514.723 200.969 515.134C200.848 515.545 200.787 516.058 200.787 516.674C200.787 517.561 200.932 518.242 201.221 518.718C201.52 519.194 202.005 519.432 202.677 519.432C203.359 519.432 203.849 519.175 204.147 518.662C204.446 518.149 204.595 517.416 204.595 516.464C204.595 515.773 204.479 515.241 204.245 514.868C204.021 514.495 203.606 514.308 202.999 514.308H198.323L198.547 512.558H203.013C204.283 512.558 205.216 512.899 205.813 513.58C206.42 514.261 206.723 515.227 206.723 516.478C206.723 517.953 206.383 519.096 205.701 519.908C205.029 520.72 204.021 521.126 202.677 521.126ZM208.74 521V512.558H210.868V521H208.74ZM207.592 514.308L207.83 512.558H210.14V514.308H207.592ZM214.478 521V515.218C214.478 514.985 214.446 514.803 214.38 514.672C214.315 514.541 214.208 514.448 214.058 514.392C213.918 514.336 213.732 514.308 213.498 514.308H212.714L212.938 512.558H214.072C214.931 512.558 215.566 512.768 215.976 513.188C216.396 513.599 216.606 514.205 216.606 515.008V521H214.478ZM212.378 521V519.25H215.5V521H212.378ZM226.992 512.558C228.056 512.558 228.859 512.81 229.4 513.314C229.941 513.809 230.212 514.546 230.212 515.526V521H222.596V515.694C222.596 515.563 222.615 515.409 222.652 515.232C222.689 515.045 222.755 514.868 222.848 514.7C222.941 514.532 223.081 514.401 223.268 514.308H221.826L222.05 512.558H226.992ZM228.084 519.25V515.568C228.084 515.148 227.977 514.835 227.762 514.63C227.557 514.415 227.263 514.308 226.88 514.308H224.836C224.789 514.439 224.757 514.579 224.738 514.728C224.729 514.877 224.724 515.031 224.724 515.19V519.25H228.084ZM232.31 517.444V512.558H234.438V517.444H232.31ZM231.162 514.308L231.4 512.558H233.5V514.308H231.162ZM239.955 521.126C238.657 521.126 237.659 520.729 236.959 519.936C236.268 519.133 235.923 517.957 235.923 516.408V512.558H238.037V516.408C238.037 517.397 238.2 518.149 238.527 518.662C238.863 519.175 239.325 519.432 239.913 519.432C240.519 519.432 240.995 519.175 241.341 518.662C241.686 518.149 241.859 517.397 241.859 516.408C241.859 515.708 241.77 515.162 241.593 514.77C241.425 514.378 241.126 514.177 240.697 514.168C240.491 514.159 240.3 514.173 240.123 514.21C239.955 514.247 239.768 514.289 239.563 514.336V512.642C239.833 512.595 240.085 512.553 240.319 512.516C240.552 512.479 240.804 512.46 241.075 512.46C242.073 512.479 242.806 512.829 243.273 513.51C243.739 514.182 243.973 515.148 243.973 516.408C243.973 517.957 243.623 519.133 242.923 519.936C242.232 520.729 241.243 521.126 239.955 521.126ZM248.853 521V515.568C248.853 515.148 248.751 514.835 248.545 514.63C248.34 514.415 248.041 514.308 247.649 514.308H244.793L245.017 512.558H247.761C248.825 512.558 249.628 512.81 250.169 513.314C250.711 513.809 250.981 514.546 250.981 515.526V521H248.853ZM252.661 521V519.25H255.629C256.133 519.25 256.558 519.147 256.903 518.942C257.249 518.727 257.51 518.433 257.687 518.06C257.874 517.677 257.967 517.225 257.967 516.702C257.967 515.918 257.813 515.302 257.505 514.854C257.197 514.397 256.703 514.168 256.021 514.168C255.471 514.168 255.069 514.285 254.817 514.518C254.575 514.751 254.453 515.055 254.453 515.428C254.453 515.689 254.514 515.913 254.635 516.1C254.766 516.287 254.953 516.413 255.195 516.478C255.279 516.506 255.363 516.534 255.447 516.562C255.531 516.581 255.601 516.59 255.657 516.59L255.489 518.116C255.359 518.135 255.209 518.139 255.041 518.13C254.873 518.111 254.663 518.079 254.411 518.032C253.795 517.911 253.305 517.617 252.941 517.15C252.587 516.674 252.409 516.077 252.409 515.358C252.409 514.789 252.545 514.285 252.815 513.846C253.086 513.398 253.487 513.048 254.019 512.796C254.561 512.544 255.228 512.418 256.021 512.418C257.328 512.418 258.341 512.801 259.059 513.566C259.778 514.322 260.137 515.367 260.137 516.702C260.137 517.589 259.951 518.354 259.577 518.998C259.213 519.642 258.677 520.137 257.967 520.482C257.267 520.827 256.418 521 255.419 521H252.661ZM262.982 512.558H267.868L267.714 513.804L265.194 521H262.982L265.376 514.308H260.854V510.584L262.982 510.36V512.558Z" fill="#111111"/>
</g>
</g>
</g>
</g>
</g>
</g>
<defs>
<filter id="filter0_d_26_6541" x="0" y="0" width="444" height="621" filterUnits="userSpaceOnUse" color-interpolation-filters="sRGB">
<feFlood flood-opacity="0" result="BackgroundImageFix"/>
<feColorMatrix in="SourceAlpha" type="matrix" values="0 0 0 0 0 0 0 0 0 0 0 0 0 0 0 0 0 0 127 0" result="hardAlpha"/>
<feMorphology radius="5" operator="dilate" in="SourceAlpha" result="effect1_dropShadow_26_6541"/>
<feOffset/>
<feGaussianBlur stdDeviation="15"/>
<feComposite in2="hardAlpha" operator="out"/>
<feColorMatrix type="matrix" values="0 0 0 0 0 0 0 0 0 0 0 0 0 0 0 0 0 0 0.07 0"/>
<feBlend mode="normal" in2="BackgroundImageFix" result="effect1_dropShadow_26_6541"/>
<feBlend mode="normal" in="SourceGraphic" in2="effect1_dropShadow_26_6541" result="shape"/>
</filter>
<clipPath id="clip0_26_6541">
<rect width="32" height="18" fill="white" transform="translate(340 202)"/>
</clipPath>
<clipPath id="clip1_26_6541">
<rect width="32" height="18" fill="white" transform="translate(340 268)"/>
</clipPath>
<clipPath id="clip2_26_6541">
<rect width="32" height="17" fill="white" transform="translate(340 435)"/>
</clipPath>
</defs>
</svg>
