<svg width="444" height="712" viewBox="0 0 444 712" fill="none" xmlns="http://www.w3.org/2000/svg">
<rect width="444" height="712" fill="#F5F5F5"/>
<g id=" for codex &#215;&#161;&#215;&#168;&#215;&#152;&#215;&#149;&#215;&#159; &#215;&#158;&#215;&#167;&#215;&#149;&#215;&#168;&#215;&#153;">
<rect width="1512" height="16008" transform="translate(-534 -14165.8)" fill="white"/>
<g id="&#215;&#148;&#215;&#151;&#215;&#145;&#215;&#153;&#215;&#156;&#215;&#149;&#215;&#170; &#215;&#169;&#215;&#156;&#215;&#160;&#215;&#149;">
<g id="Frame 26">
<g id="packges">
<g id="popular" filter="url(#filter0_d_26_6541)">
<g clip-path="url(#clip0_26_6541)">
<rect x="35" y="35" width="374" height="642" rx="20" fill="#F1C004"/>
<path id="&#215;&#151;&#215;&#145;&#215;&#153;&#215;&#156;&#215;&#170; &#215;&#144;&#215;&#168;&#215;&#153;&#215;&#150;&#215;&#148; + &#215;&#164;&#215;&#168;&#215;&#153;&#215;&#167;&#215;&#148;" d="M94.7418 154V142.63C94.7418 141.91 94.5518 141.37 94.1718 141.01C93.8118 140.65 93.3118 140.47 92.6718 140.47H83.1318L83.7318 135.73H92.9418C95.4418 135.73 97.3218 136.3 98.5818 137.44C99.8618 138.58 100.502 140.28 100.502 142.54V154H94.7418ZM83.4318 154V144.52L89.1918 144.22V154H83.4318ZM110.323 154L114.103 140.41H102.043L102.643 135.73H120.553L120.253 139.06L116.083 154H110.323ZM102.643 159.4V143.92L108.403 143.62V159.1L102.643 159.4ZM123.449 146.56V135.73H129.209V146.56H123.449ZM121.199 140.47L121.799 135.73H126.659V140.47H121.199ZM139.082 154V142.63C139.082 141.91 138.892 141.37 138.512 141.01C138.152 140.65 137.652 140.47 137.012 140.47H130.922L131.522 135.73H137.282C139.782 135.73 141.662 136.3 142.922 137.44C144.202 138.58 144.842 140.28 144.842 142.54V154H139.082ZM146.923 154V149.26H153.883C154.803 149.26 155.573 149.08 156.193 148.72C156.833 148.36 157.313 147.84 157.633 147.16C157.953 146.48 158.113 145.66 158.113 144.7C158.113 143.3 157.853 142.2 157.333 141.4C156.813 140.58 155.903 140.17 154.603 140.17C153.583 140.17 152.873 140.35 152.473 140.71C152.073 141.05 151.873 141.5 151.873 142.06C151.873 142.42 151.953 142.73 152.113 142.99C152.293 143.25 152.533 143.45 152.833 143.59C153.013 143.67 153.203 143.74 153.403 143.8C153.603 143.86 153.773 143.89 153.913 143.89L153.433 147.97C153.113 148.03 152.733 148.04 152.293 148C151.853 147.96 151.313 147.87 150.673 147.73C149.393 147.45 148.353 146.8 147.553 145.78C146.773 144.74 146.383 143.44 146.383 141.88C146.383 140.62 146.683 139.51 147.283 138.55C147.883 137.57 148.793 136.81 150.013 136.27C151.233 135.71 152.763 135.43 154.603 135.43C157.583 135.43 159.883 136.26 161.503 137.92C163.143 139.56 163.963 141.82 163.963 144.7C163.963 146.66 163.543 148.34 162.703 149.74C161.883 151.12 160.673 152.18 159.073 152.92C157.493 153.64 155.563 154 153.283 154H146.923ZM181.704 141.46H187.164V145.39H181.704V150.67H177.774V145.39H172.314V141.46H177.774V136.09H181.704V141.46ZM207.738 154V142.63C207.738 141.91 207.548 141.37 207.168 141.01C206.808 140.65 206.308 140.47 205.668 140.47H196.128L196.728 135.73H205.938C208.438 135.73 210.318 136.3 211.578 137.44C212.858 138.58 213.498 140.28 213.498 142.54V154H207.738ZM196.428 154V144.52L202.188 144.22V154H196.428ZM217.079 153.91C216.919 153.25 216.769 152.57 216.629 151.87C216.489 151.15 216.369 150.45 216.269 149.77C216.169 149.07 216.089 148.41 216.029 147.79C215.989 147.17 215.969 146.62 215.969 146.14C215.969 145.46 216.049 144.77 216.209 144.07C216.389 143.37 216.759 142.7 217.319 142.06C217.899 141.42 218.789 140.85 219.989 140.35L224.879 140.47C223.799 140.81 223.009 141.23 222.509 141.73C222.029 142.23 221.739 142.79 221.639 143.41C221.539 144.03 221.519 144.68 221.579 145.36C221.619 145.84 221.709 146.49 221.849 147.31C221.989 148.13 222.139 148.98 222.299 149.86C222.479 150.74 222.639 151.55 222.779 152.29C222.919 153.03 223.019 153.57 223.079 153.91H217.079ZM215.099 140.47V135.73H225.479L224.879 140.47H215.099ZM228.242 146.56V135.73H234.002V146.56H228.242ZM225.992 140.47L226.592 135.73H231.452V140.47H225.992ZM243.875 154V142.63C243.875 141.91 243.685 141.37 243.305 141.01C242.945 140.65 242.445 140.47 241.805 140.47H235.715L236.315 135.73H242.075C244.575 135.73 246.455 136.3 247.715 137.44C248.995 138.58 249.635 140.28 249.635 142.54V154H243.875ZM264.136 154C263.256 152.48 262.426 151.09 261.646 149.83C260.886 148.57 260.106 147.36 259.306 146.2C258.506 145.02 257.596 143.81 256.576 142.57C256.236 142.15 255.816 141.62 255.316 140.98C254.816 140.32 254.296 139.65 253.756 138.97C253.236 138.27 252.746 137.63 252.286 137.05C251.846 136.47 251.496 136.03 251.236 135.73H258.316C258.716 136.21 259.156 136.8 259.636 137.5C260.136 138.18 260.606 138.84 261.046 139.48C261.486 140.12 261.816 140.62 262.036 140.98C262.996 142.48 263.966 143.94 264.946 145.36C265.926 146.78 266.906 148.2 267.886 149.62C268.886 151.02 269.866 152.48 270.826 154H264.136ZM250.876 154L251.596 149.26C251.756 148.22 252.016 147.21 252.376 146.23C252.756 145.25 253.356 144.38 254.176 143.62C254.996 142.84 256.146 142.28 257.626 141.94L259.276 145.63C258.756 145.77 258.366 146.05 258.106 146.47C257.866 146.89 257.696 147.38 257.596 147.94C257.496 148.5 257.396 149.07 257.296 149.65L256.606 154H250.876ZM264.016 146.71L262.396 143.02C263.036 142.86 263.496 142.57 263.776 142.15C264.056 141.73 264.246 141.24 264.346 140.68C264.466 140.1 264.556 139.54 264.616 139L265.036 135.73H270.766L270.376 139.39C270.276 140.41 270.006 141.42 269.566 142.42C269.146 143.4 268.486 144.27 267.586 145.03C266.706 145.79 265.516 146.35 264.016 146.71ZM292.485 154V142.63C292.485 141.91 292.295 141.37 291.915 141.01C291.555 140.65 291.055 140.47 290.415 140.47H281.655V135.73H290.685C293.185 135.73 295.065 136.3 296.325 137.44C297.605 138.58 298.245 140.28 298.245 142.54V154H292.485ZM278.565 154L279.165 149.26H280.245C280.565 149.26 280.825 149.2 281.025 149.08C281.225 148.96 281.375 148.78 281.475 148.54C281.595 148.3 281.655 148.01 281.655 147.67V136.78H287.415V147.37C287.415 149.55 286.915 151.2 285.915 152.32C284.915 153.44 283.435 154 281.475 154H278.565ZM278.925 140.47L279.525 135.73H284.985V140.47H278.925ZM305.257 135.73H315.487L315.127 139.03L309.757 154H303.757L308.797 140.47H299.497V131.8L305.257 131.2V135.73ZM318.541 146.56V135.73H324.301V146.56H318.541ZM316.291 140.47L316.891 135.73H321.751V140.47H316.291ZM334.744 154V142.63C334.744 141.91 334.554 141.37 334.174 141.01C333.814 140.65 333.314 140.47 332.674 140.47H326.614L327.214 135.73H332.944C335.444 135.73 337.324 136.3 338.584 137.44C339.864 138.58 340.504 140.28 340.504 142.54V149.59C340.304 150.33 339.954 151.08 339.454 151.84C338.954 152.6 338.454 153.32 337.954 154H334.744ZM325.714 154V149.26H342.784L342.184 154H325.714ZM354.155 135.73C356.655 135.73 358.535 136.3 359.795 137.44C361.075 138.58 361.715 140.28 361.715 142.54V154H355.955V142.63C355.955 141.91 355.765 141.37 355.385 141.01C355.025 140.65 354.525 140.47 353.885 140.47H350.555C350.455 140.61 350.375 140.82 350.315 141.1C350.275 141.38 350.255 141.91 350.255 142.69V154H344.495V144.52C344.495 143.8 344.555 143.13 344.675 142.51C344.815 141.89 345.155 141.25 345.695 140.59V140.29V135.73H354.155ZM342.995 140.47L343.595 135.73H353.255V140.47H342.995Z" fill="#111111"/>
<path id="&#215;&#148;&#215;&#145;&#215;&#151;&#215;&#153;&#215;&#168;&#215;&#148; &#215;&#148;&#215;&#164;&#215;&#149;&#215;&#164;&#215;&#149;&#215;&#156;&#215;&#144;&#215;&#168;&#215;&#153;&#215;&#170;" d="M133.484 193V183.688C133.484 182.968 133.308 182.432 132.956 182.08C132.604 181.712 132.092 181.528 131.42 181.528H124.724V178.528H131.612C133.436 178.528 134.812 178.96 135.74 179.824C136.668 180.672 137.132 181.936 137.132 183.616V193H133.484ZM122.156 193L122.54 190H123.404C123.708 190 123.956 189.944 124.148 189.832C124.34 189.704 124.484 189.52 124.58 189.28C124.676 189.04 124.724 188.744 124.724 188.392V179.224H128.372V188.296C128.372 189.832 128.012 191 127.292 191.8C126.588 192.6 125.54 193 124.148 193H122.156ZM122.516 181.528L122.924 178.528H126.764V181.528H122.516ZM140 186.904V178.528H143.648V186.904H140ZM138.032 181.528L138.44 178.528H142.04V181.528H138.032ZM151.985 193V183.688C151.985 182.968 151.809 182.432 151.457 182.08C151.105 181.712 150.593 181.528 149.921 181.528H145.025L145.409 178.528H150.113C151.937 178.528 153.313 178.96 154.241 179.824C155.169 180.672 155.633 181.936 155.633 183.616V193H151.985ZM167.521 193C166.817 191.784 166.129 190.656 165.457 189.616C164.801 188.56 164.129 187.552 163.441 186.592C162.769 185.616 162.049 184.664 161.281 183.736C160.961 183.336 160.601 182.888 160.201 182.392C159.817 181.88 159.425 181.376 159.025 180.88C158.641 180.384 158.289 179.928 157.969 179.512C157.649 179.096 157.385 178.768 157.177 178.528H161.641C161.945 178.896 162.281 179.336 162.649 179.848C163.017 180.344 163.385 180.848 163.753 181.36C164.137 181.872 164.473 182.336 164.761 182.752C165.497 183.856 166.257 184.968 167.041 186.088C167.825 187.192 168.617 188.32 169.417 189.472C170.217 190.608 170.993 191.784 171.745 193H167.521ZM156.769 193L157.345 189.136C157.489 188.256 157.705 187.432 157.993 186.664C158.281 185.88 158.729 185.184 159.337 184.576C159.945 183.968 160.785 183.512 161.857 183.208L162.937 185.56C162.457 185.736 162.089 186.016 161.833 186.4C161.577 186.784 161.393 187.232 161.281 187.744C161.169 188.24 161.065 188.776 160.969 189.352L160.417 193H156.769ZM166.633 187.144L165.553 184.792C166.113 184.6 166.529 184.312 166.801 183.928C167.089 183.544 167.297 183.096 167.425 182.584C167.569 182.072 167.665 181.544 167.713 181L168.025 178.528H171.649L171.361 181.216C171.281 182.08 171.073 182.904 170.737 183.688C170.417 184.472 169.921 185.16 169.249 185.752C168.577 186.344 167.705 186.808 166.633 187.144ZM175.635 178.528H184.011L183.747 180.664L179.427 193H175.635L179.739 181.528H171.987V175.144L175.635 174.76V178.528ZM186.531 193V178.528H190.179V193H186.531ZM184.563 181.528L184.971 178.528H188.931V181.528H184.563ZM192.177 193V190H197.265C198.129 190 198.857 189.824 199.449 189.472C200.041 189.104 200.489 188.6 200.793 187.96C201.113 187.304 201.273 186.528 201.273 185.632C201.273 184.288 201.009 183.232 200.481 182.464C199.953 181.68 199.105 181.288 197.937 181.288C196.993 181.288 196.305 181.488 195.873 181.888C195.457 182.288 195.249 182.808 195.249 183.448C195.249 183.896 195.353 184.28 195.561 184.6C195.785 184.92 196.105 185.136 196.521 185.248C196.665 185.296 196.809 185.344 196.953 185.392C197.097 185.424 197.217 185.44 197.313 185.44L197.025 188.056C196.801 188.088 196.545 188.096 196.257 188.08C195.969 188.048 195.609 187.992 195.177 187.912C194.121 187.704 193.281 187.2 192.657 186.4C192.049 185.584 191.745 184.56 191.745 183.328C191.745 182.352 191.977 181.488 192.441 180.736C192.905 179.968 193.593 179.368 194.505 178.936C195.433 178.504 196.577 178.288 197.937 178.288C200.177 178.288 201.913 178.944 203.145 180.256C204.377 181.552 204.993 183.344 204.993 185.632C204.993 187.152 204.673 188.464 204.033 189.568C203.409 190.672 202.489 191.52 201.273 192.112C200.073 192.704 198.617 193 196.905 193H192.177ZM207.242 193V178.528H210.89V193H207.242ZM205.274 181.528L205.682 178.528H209.642V181.528H205.274ZM212.888 193V190H217.976C218.84 190 219.568 189.824 220.16 189.472C220.752 189.104 221.2 188.6 221.504 187.96C221.824 187.304 221.984 186.528 221.984 185.632C221.984 184.288 221.72 183.232 221.192 182.464C220.664 181.68 219.816 181.288 218.648 181.288C217.704 181.288 217.016 181.488 216.584 181.888C216.168 182.288 215.96 182.808 215.96 183.448C215.96 183.896 216.064 184.28 216.272 184.6C216.496 184.92 216.816 185.136 217.232 185.248C217.376 185.296 217.52 185.344 217.664 185.392C217.808 185.424 217.928 185.44 218.024 185.44L217.736 188.056C217.512 188.088 217.256 188.096 216.968 188.08C216.68 188.048 216.32 187.992 215.888 187.912C214.832 187.704 213.992 187.2 213.368 186.4C212.76 185.584 212.456 184.56 212.456 183.328C212.456 182.352 212.688 181.488 213.152 180.736C213.616 179.968 214.304 179.368 215.216 178.936C216.144 178.504 217.288 178.288 218.648 178.288C220.888 178.288 222.624 178.944 223.856 180.256C225.088 181.552 225.704 183.344 225.704 185.632C225.704 187.152 225.384 188.464 224.744 189.568C224.12 190.672 223.2 191.52 221.984 192.112C220.784 192.704 219.328 193 217.616 193H212.888ZM236.342 193V183.688C236.342 182.968 236.158 182.432 235.79 182.08C235.438 181.712 234.934 181.528 234.278 181.528H226.814L227.222 178.528H234.47C236.294 178.528 237.67 178.96 238.598 179.824C239.526 180.672 239.99 181.936 239.99 183.616V193H236.342ZM227.126 193V185.2L230.774 185.008V193H227.126ZM256.607 193V183.688C256.607 182.968 256.423 182.432 256.055 182.08C255.703 181.712 255.199 181.528 254.543 181.528H247.079L247.487 178.528H254.735C256.559 178.528 257.935 178.96 258.863 179.824C259.791 180.672 260.255 181.936 260.255 183.616V193H256.607ZM247.391 193V185.2L251.039 185.008V193H247.391ZM268.5 193V183.688C268.5 182.968 268.324 182.432 267.972 182.08C267.62 181.712 267.108 181.528 266.436 181.528H261.54L261.924 178.528H266.628C268.452 178.528 269.828 178.96 270.756 179.824C271.684 180.672 272.148 181.936 272.148 183.616V193H268.5ZM275.023 186.904V178.528H278.671V186.904H275.023ZM273.055 181.528L273.463 178.528H277.063V181.528H273.055ZM288.64 178.528C290.464 178.528 291.84 178.96 292.768 179.824C293.696 180.672 294.16 181.936 294.16 183.616V193H290.512V183.688C290.512 182.968 290.336 182.432 289.984 182.08C289.632 181.712 289.12 181.528 288.448 181.528H285.136C285.056 181.656 284.976 181.872 284.896 182.176C284.832 182.464 284.8 182.968 284.8 183.688V193H281.152V184.792C281.152 184.152 281.208 183.576 281.32 183.064C281.448 182.536 281.696 182.048 282.064 181.6L281.872 181.432V178.528H288.64ZM279.952 181.528L280.336 178.528H287.08V181.528H279.952ZM302.869 193V183.688C302.869 182.968 302.693 182.432 302.341 182.08C301.989 181.712 301.485 181.528 300.829 181.528H296.101L296.509 178.528H301.021C302.829 178.528 304.197 178.96 305.125 179.824C306.053 180.672 306.517 181.936 306.517 183.616V190.24C306.405 190.72 306.189 191.192 305.869 191.656C305.565 192.12 305.253 192.568 304.933 193H302.869ZM295.381 193V190H308.317L307.933 193H295.381ZM318.639 193V183.688C318.639 182.968 318.455 182.432 318.087 182.08C317.735 181.712 317.231 181.528 316.575 181.528H309.111L309.519 178.528H316.767C318.591 178.528 319.967 178.96 320.895 179.824C321.823 180.672 322.287 181.936 322.287 183.616V193H318.639ZM309.423 193V185.2L313.071 185.008V193H309.423Z" fill="white"/>
<g id="Frame 20">
<g id="Frame 17">
<g id="fi_11170325">
<g id="Group">
<path id="Vector" d="M357 262C356.6 262 356.333 261.867 356.067 261.6L349.4 254.934C348.867 254.4 348.867 253.6 349.4 253.067C349.933 252.534 350.733 252.534 351.267 253.067L357 258.8L370.733 245.067C371.267 244.534 372.067 244.534 372.6 245.067C373.133 245.6 373.133 246.4 372.6 246.934L357.933 261.6C357.667 261.867 357.4 262 357 262Z" fill="white"/>
</g>
</g>
<path id="&#215;&#144;&#215;&#168;&#215;&#153;&#215;&#150;&#215;&#148; &#215;&#158;&#215;&#167;&#215;&#166;&#215;&#149;&#215;&#162;&#215;&#153;&#215;&#170; &#215;&#162;&#215;&#157; &#215;&#144;&#215;&#168;&#215;&#146;&#215;&#150;&#215;&#153;&#215;&#157; &#215;&#144;&#215;&#167;&#215;&#149;&#215;&#156;&#215;&#149;&#215;&#146;&#215;&#153;&#215;&#153;&#215;&#157; &#215;&#144;&#215;&#153;&#215;&#155;&#215;&#149;&#215;&#170;&#215;&#153;&#215;&#153;&#215;&#157;" d="M97.4266 246.326C98.5906 246.326 99.4666 246.614 100.055 247.19C100.655 247.754 100.955 248.594 100.955 249.71V257H91.9726V249.008C91.9726 248.864 91.9906 248.708 92.0266 248.54C92.0626 248.36 92.1166 248.192 92.1886 248.036C92.2726 247.88 92.3866 247.766 92.5306 247.694H90.8566L91.0366 246.326H97.4266ZM99.2986 255.632V249.764C99.2986 249.068 99.1306 248.552 98.7946 248.216C98.4706 247.868 97.9726 247.694 97.3006 247.694H93.7546C93.7066 247.814 93.6706 247.964 93.6466 248.144C93.6346 248.324 93.6286 248.504 93.6286 248.684V255.632H99.2986ZM103.056 252.284V246.326H104.712V252.284H103.056ZM101.418 247.694L101.616 246.326H103.992V247.694H101.418ZM107.365 252.284V246.326H109.021V252.284H107.365ZM105.727 247.694L105.925 246.326H108.301V247.694H105.727ZM113.613 257.09L112.929 254.696H112.803C112.587 255.068 112.359 255.398 112.119 255.686C111.891 255.962 111.639 256.202 111.363 256.406C111.099 256.598 110.811 256.748 110.499 256.856C110.187 256.952 109.839 257 109.455 257H109.185V255.596H109.419C109.791 255.596 110.145 255.53 110.481 255.398C110.829 255.254 111.147 255.068 111.435 254.84C111.735 254.612 111.987 254.378 112.191 254.138C112.407 253.886 112.569 253.646 112.677 253.418V249.008C112.677 248.54 112.569 248.204 112.353 248C112.137 247.796 111.783 247.694 111.291 247.694H110.175L110.355 246.326H111.705C112.293 246.326 112.779 246.422 113.163 246.614C113.547 246.806 113.835 247.088 114.027 247.46C114.231 247.832 114.333 248.294 114.333 248.846V254.102L115.089 256.766L113.613 257.09ZM116.826 257V246.326H118.482V257H116.826ZM115.188 247.694L115.386 246.326H117.906V247.694H115.188ZM121.186 246.326H127.684L127.504 247.37L124.282 257H122.572L125.722 247.694H119.53V243.518L121.186 243.32V246.326ZM129.644 257V246.326H131.3V257H129.644ZM128.006 247.694L128.204 246.326H130.724V247.694H128.006ZM137.64 257L140.52 247.676H132.888L133.086 246.326H142.41L142.266 247.37L139.296 257H137.64ZM133.428 260.438V250.286L135.084 250.16V260.348L133.428 260.438ZM150.684 257C150.156 256.1 149.616 255.23 149.064 254.39C148.512 253.55 147.96 252.758 147.408 252.014C146.868 251.258 146.334 250.556 145.806 249.908C145.506 249.536 145.212 249.176 144.924 248.828C144.636 248.468 144.366 248.132 144.114 247.82C143.874 247.508 143.646 247.226 143.43 246.974C143.226 246.722 143.046 246.506 142.89 246.326H144.888C145.116 246.59 145.356 246.884 145.608 247.208C145.86 247.532 146.136 247.886 146.436 248.27C146.736 248.642 147.066 249.056 147.426 249.512C147.942 250.22 148.494 250.982 149.082 251.798C149.67 252.614 150.264 253.46 150.864 254.336C151.464 255.212 152.034 256.1 152.574 257H150.684ZM142.494 257L142.926 254.012C143.022 253.316 143.172 252.68 143.376 252.104C143.592 251.516 143.904 251.006 144.312 250.574C144.72 250.13 145.266 249.77 145.95 249.494L146.49 250.574C146.058 250.778 145.716 251.054 145.464 251.402C145.212 251.738 145.02 252.134 144.888 252.59C144.756 253.034 144.648 253.526 144.564 254.066L144.132 257H142.494ZM149.118 252.572L148.578 251.492C149.034 251.276 149.406 251 149.694 250.664C149.982 250.328 150.198 249.938 150.342 249.494C150.498 249.05 150.6 248.558 150.648 248.018L150.81 246.326H152.466L152.304 248.072C152.244 248.768 152.094 249.404 151.854 249.98C151.614 250.556 151.266 251.06 150.81 251.492C150.366 251.924 149.802 252.284 149.118 252.572ZM163.522 246.326C164.686 246.326 165.562 246.614 166.15 247.19C166.75 247.754 167.05 248.594 167.05 249.71V257H158.068V249.008C158.068 248.864 158.086 248.708 158.122 248.54C158.158 248.36 158.212 248.192 158.284 248.036C158.368 247.88 158.482 247.766 158.626 247.694H156.952L157.132 246.326H163.522ZM165.394 255.632V249.764C165.394 249.068 165.226 248.552 164.89 248.216C164.566 247.868 164.068 247.694 163.396 247.694H159.85C159.802 247.814 159.766 247.964 159.742 248.144C159.73 248.324 159.724 248.504 159.724 248.684V255.632H165.394ZM169.152 252.284V246.326H170.808V252.284H169.152ZM167.514 247.694L167.712 246.326H170.088V247.694H167.514ZM173.317 256.982C173.233 256.466 173.149 255.92 173.065 255.344C172.981 254.768 172.909 254.204 172.849 253.652C172.789 253.088 172.741 252.572 172.705 252.104C172.681 251.636 172.669 251.246 172.669 250.934C172.669 250.55 172.723 250.148 172.831 249.728C172.939 249.308 173.137 248.918 173.425 248.558C173.713 248.186 174.115 247.886 174.631 247.658L176.323 247.694C175.711 247.874 175.255 248.132 174.955 248.468C174.667 248.804 174.481 249.176 174.397 249.584C174.313 249.98 174.277 250.37 174.289 250.754C174.301 251.066 174.331 251.48 174.379 251.996C174.439 252.5 174.505 253.052 174.577 253.652C174.649 254.24 174.727 254.828 174.811 255.416C174.895 256.004 174.967 256.526 175.027 256.982H173.317ZM171.895 247.694V246.326H176.521L176.323 247.694H171.895ZM180.922 257.09L180.238 254.696H180.112C179.896 255.068 179.668 255.398 179.428 255.686C179.2 255.962 178.948 256.202 178.672 256.406C178.408 256.598 178.12 256.748 177.808 256.856C177.496 256.952 177.148 257 176.764 257H176.494V255.596H176.728C177.1 255.596 177.454 255.53 177.79 255.398C178.138 255.254 178.456 255.068 178.744 254.84C179.044 254.612 179.296 254.378 179.5 254.138C179.716 253.886 179.878 253.646 179.986 253.418V249.008C179.986 248.54 179.878 248.204 179.662 248C179.446 247.796 179.092 247.694 178.6 247.694H177.484L177.664 246.326H179.014C179.602 246.326 180.088 246.422 180.472 246.614C180.856 246.806 181.144 247.088 181.336 247.46C181.54 247.832 181.642 248.294 181.642 248.846V254.102L182.398 256.766L180.922 257.09ZM188.221 257V249.764C188.221 249.068 188.053 248.552 187.717 248.216C187.393 247.868 186.901 247.694 186.241 247.694H182.533L182.731 246.326H186.349C187.513 246.326 188.389 246.614 188.977 247.19C189.577 247.754 189.877 248.594 189.877 249.71V257H188.221ZM199.072 257C198.544 256.1 198.004 255.23 197.452 254.39C196.9 253.55 196.348 252.758 195.796 252.014C195.256 251.258 194.722 250.556 194.194 249.908C193.894 249.536 193.6 249.176 193.312 248.828C193.024 248.468 192.754 248.132 192.502 247.82C192.262 247.508 192.034 247.226 191.818 246.974C191.614 246.722 191.434 246.506 191.278 246.326H193.276C193.504 246.59 193.744 246.884 193.996 247.208C194.248 247.532 194.524 247.886 194.824 248.27C195.124 248.642 195.454 249.056 195.814 249.512C196.33 250.22 196.882 250.982 197.47 251.798C198.058 252.614 198.652 253.46 199.252 254.336C199.852 255.212 200.422 256.1 200.962 257H199.072ZM190.882 257L191.314 254.012C191.41 253.316 191.56 252.68 191.764 252.104C191.98 251.516 192.292 251.006 192.7 250.574C193.108 250.13 193.654 249.77 194.338 249.494L194.878 250.574C194.446 250.778 194.104 251.054 193.852 251.402C193.6 251.738 193.408 252.134 193.276 252.59C193.144 253.034 193.036 253.526 192.952 254.066L192.52 257H190.882ZM197.506 252.572L196.966 251.492C197.422 251.276 197.794 251 198.082 250.664C198.37 250.328 198.586 249.938 198.73 249.494C198.886 249.05 198.988 248.558 199.036 248.018L199.198 246.326H200.854L200.692 248.072C200.632 248.768 200.482 249.404 200.242 249.98C200.002 250.556 199.654 251.06 199.198 251.492C198.754 251.924 198.19 252.284 197.506 252.572ZM211.911 246.326C213.075 246.326 213.951 246.614 214.539 247.19C215.139 247.754 215.439 248.594 215.439 249.71V257H206.457V249.008C206.457 248.864 206.475 248.708 206.511 248.54C206.547 248.36 206.601 248.192 206.673 248.036C206.757 247.88 206.871 247.766 207.015 247.694H205.341L205.521 246.326H211.911ZM213.783 255.632V249.764C213.783 249.068 213.615 248.552 213.279 248.216C212.955 247.868 212.457 247.694 211.785 247.694H208.239C208.191 247.814 208.155 247.964 208.131 248.144C208.119 248.324 208.113 248.504 208.113 248.684V255.632H213.783ZM216.448 257.648V256.262L220.084 255.452C220.612 255.32 221.086 255.146 221.506 254.93C221.938 254.702 222.304 254.366 222.604 253.922C222.916 253.478 223.168 252.872 223.36 252.104C223.552 251.336 223.678 250.34 223.738 249.116L223.918 246.326H225.574L225.412 249.116C225.364 250.112 225.262 250.994 225.106 251.762C224.962 252.518 224.758 253.178 224.494 253.742C224.23 254.306 223.894 254.786 223.486 255.182C223.09 255.578 222.61 255.908 222.046 256.172C221.494 256.436 220.846 256.652 220.102 256.82L216.448 257.648ZM219.292 256.244L216.934 246.434L218.536 246.218L220.39 253.886C220.45 254.126 220.468 254.384 220.444 254.66C220.42 254.924 220.36 255.194 220.264 255.47C220.18 255.734 220.066 255.992 219.922 256.244H219.292ZM238.627 257V249.764C238.627 249.068 238.459 248.552 238.123 248.216C237.799 247.868 237.301 247.694 236.629 247.694H231.967V246.326H236.755C237.919 246.326 238.795 246.614 239.383 247.19C239.983 247.754 240.283 248.594 240.283 249.71V257H238.627ZM229.915 257L230.113 255.632H230.761C231.037 255.632 231.259 255.578 231.427 255.47C231.607 255.35 231.739 255.176 231.823 254.948C231.919 254.72 231.967 254.426 231.967 254.066V246.686H233.623V254.156C233.623 255.08 233.401 255.788 232.957 256.28C232.513 256.76 231.871 257 231.031 257H229.915ZM230.275 247.694L230.473 246.326H232.759V247.694H230.275ZM242.578 252.284V246.326H244.234V252.284H242.578ZM240.94 247.694L241.138 246.326H243.514V247.694H240.94ZM245.248 257.648V256.262L248.884 255.452C249.412 255.32 249.886 255.146 250.306 254.93C250.738 254.702 251.104 254.366 251.404 253.922C251.716 253.478 251.968 252.872 252.16 252.104C252.352 251.336 252.478 250.34 252.538 249.116L252.718 246.326H254.374L254.212 249.116C254.164 250.112 254.062 250.994 253.906 251.762C253.762 252.518 253.558 253.178 253.294 253.742C253.03 254.306 252.694 254.786 252.286 255.182C251.89 255.578 251.41 255.908 250.846 256.172C250.294 256.436 249.646 256.652 248.902 256.82L245.248 257.648ZM248.092 256.244L245.734 246.434L247.336 246.218L249.19 253.886C249.25 254.126 249.268 254.384 249.244 254.66C249.22 254.924 249.16 255.194 249.064 255.47C248.98 255.734 248.866 255.992 248.722 256.244H248.092ZM256.556 257V246.326H258.212V257H256.556ZM254.918 247.694L255.116 246.326H257.636V247.694H254.918ZM266.154 256.91L259.44 246.326H261.384L264.678 251.726L267.396 255.956L266.154 256.91ZM259.422 257V255.632H266.82L267.396 255.956L267.198 257H259.422ZM264.444 252.788L263.958 251.654C264.342 251.522 264.654 251.312 264.894 251.024C265.146 250.724 265.344 250.388 265.488 250.016C265.632 249.644 265.734 249.278 265.794 248.918C265.866 248.546 265.92 248.222 265.956 247.946L266.154 246.326H267.81L267.612 248.126C267.576 248.498 267.492 248.912 267.36 249.368C267.24 249.824 267.06 250.28 266.82 250.736C266.58 251.192 266.262 251.606 265.866 251.978C265.482 252.338 265.008 252.608 264.444 252.788ZM273.554 257L276.434 247.676H268.802L269 246.326H278.324L278.18 247.37L275.21 257H273.554ZM269.342 260.438V250.286L270.998 250.16V260.348L269.342 260.438ZM279.016 257L280.258 250.61L278.782 246.326H280.438L281.32 249.17H281.374C281.506 248.774 281.662 248.396 281.842 248.036C282.022 247.676 282.256 247.358 282.544 247.082C282.832 246.794 283.186 246.566 283.606 246.398C284.026 246.23 284.518 246.146 285.082 246.146C285.886 246.146 286.588 246.338 287.188 246.722C287.788 247.094 288.256 247.658 288.592 248.414C288.94 249.158 289.114 250.106 289.114 251.258V251.51C289.114 252.614 288.934 253.58 288.574 254.408C288.226 255.224 287.71 255.86 287.026 256.316C286.354 256.772 285.526 257 284.542 257H282.742L282.922 255.632H284.47C285.43 255.632 286.168 255.254 286.684 254.498C287.2 253.742 287.458 252.746 287.458 251.51V251.258C287.458 250.394 287.338 249.692 287.098 249.152C286.87 248.6 286.558 248.192 286.162 247.928C285.766 247.664 285.31 247.532 284.794 247.532C284.29 247.532 283.864 247.622 283.516 247.802C283.168 247.982 282.886 248.228 282.67 248.54C282.454 248.84 282.28 249.176 282.148 249.548C282.028 249.908 281.938 250.28 281.878 250.664L280.726 257H279.016ZM301.004 257V249.764C301.004 249.068 300.836 248.552 300.5 248.216C300.176 247.868 299.678 247.694 299.006 247.694H293.624L293.822 246.326H299.132C300.296 246.326 301.172 246.614 301.76 247.19C302.36 247.754 302.66 248.594 302.66 249.71V257H301.004ZM293.912 257V250.934L295.568 250.808V257H293.912ZM305.133 256.982C305.049 256.466 304.965 255.92 304.881 255.344C304.797 254.768 304.725 254.204 304.665 253.652C304.605 253.088 304.557 252.572 304.521 252.104C304.497 251.636 304.485 251.246 304.485 250.934C304.485 250.55 304.539 250.148 304.647 249.728C304.755 249.308 304.953 248.918 305.241 248.558C305.529 248.186 305.931 247.886 306.447 247.658L308.139 247.694C307.527 247.874 307.071 248.132 306.771 248.468C306.483 248.804 306.297 249.176 306.213 249.584C306.129 249.98 306.093 250.37 306.105 250.754C306.117 251.066 306.147 251.48 306.195 251.996C306.255 252.5 306.321 253.052 306.393 253.652C306.465 254.24 306.543 254.828 306.627 255.416C306.711 256.004 306.783 256.526 306.843 256.982H305.133ZM303.711 247.694V246.326H308.337L308.139 247.694H303.711ZM310.218 252.284V246.326H311.874V252.284H310.218ZM308.58 247.694L308.778 246.326H311.154V247.694H308.58ZM318.613 257V249.764C318.613 249.068 318.445 248.552 318.109 248.216C317.785 247.868 317.293 247.694 316.633 247.694H312.925L313.123 246.326H316.741C317.905 246.326 318.781 246.614 319.369 247.19C319.969 247.754 320.269 248.594 320.269 249.71V257H318.613ZM329.465 257C328.937 256.1 328.397 255.23 327.845 254.39C327.293 253.55 326.741 252.758 326.189 252.014C325.649 251.258 325.115 250.556 324.587 249.908C324.287 249.536 323.993 249.176 323.705 248.828C323.417 248.468 323.147 248.132 322.895 247.82C322.655 247.508 322.427 247.226 322.211 246.974C322.007 246.722 321.827 246.506 321.671 246.326H323.669C323.897 246.59 324.137 246.884 324.389 247.208C324.641 247.532 324.917 247.886 325.217 248.27C325.517 248.642 325.847 249.056 326.207 249.512C326.723 250.22 327.275 250.982 327.863 251.798C328.451 252.614 329.045 253.46 329.645 254.336C330.245 255.212 330.815 256.1 331.355 257H329.465ZM321.275 257L321.707 254.012C321.803 253.316 321.953 252.68 322.157 252.104C322.373 251.516 322.685 251.006 323.093 250.574C323.501 250.13 324.047 249.77 324.731 249.494L325.271 250.574C324.839 250.778 324.497 251.054 324.245 251.402C323.993 251.738 323.801 252.134 323.669 252.59C323.537 253.034 323.429 253.526 323.345 254.066L322.913 257H321.275ZM327.899 252.572L327.359 251.492C327.815 251.276 328.187 251 328.475 250.664C328.763 250.328 328.979 249.938 329.123 249.494C329.279 249.05 329.381 248.558 329.429 248.018L329.591 246.326H331.247L331.085 248.072C331.025 248.768 330.875 249.404 330.635 249.98C330.395 250.556 330.047 251.06 329.591 251.492C329.147 251.924 328.583 252.284 327.899 252.572ZM281.132 272.326C282.296 272.326 283.172 272.614 283.76 273.19C284.36 273.754 284.66 274.594 284.66 275.71V283H275.678V275.008C275.678 274.864 275.696 274.708 275.732 274.54C275.768 274.36 275.822 274.192 275.894 274.036C275.978 273.88 276.092 273.766 276.236 273.694H274.562L274.742 272.326H281.132ZM283.004 281.632V275.764C283.004 275.068 282.836 274.552 282.5 274.216C282.176 273.868 281.678 273.694 281.006 273.694H277.46C277.412 273.814 277.376 273.964 277.352 274.144C277.34 274.324 277.334 274.504 277.334 274.684V281.632H283.004ZM286.761 278.284V272.326H288.417V278.284H286.761ZM285.123 273.694L285.321 272.326H287.697V273.694H285.123ZM291.07 278.284V272.326H292.726V278.284H291.07ZM289.432 273.694L289.63 272.326H292.006V273.694H289.432ZM302.153 283V275.764C302.153 275.068 301.985 274.552 301.649 274.216C301.325 273.868 300.827 273.694 300.155 273.694H295.493V272.326H300.281C301.445 272.326 302.321 272.614 302.909 273.19C303.509 273.754 303.809 274.594 303.809 275.71V283H302.153ZM293.441 283L293.639 281.632H294.287C294.563 281.632 294.785 281.578 294.953 281.47C295.133 281.35 295.265 281.176 295.349 280.948C295.445 280.72 295.493 280.426 295.493 280.066V272.686H297.149V280.156C297.149 281.08 296.927 281.788 296.483 282.28C296.039 282.76 295.397 283 294.557 283H293.441ZM293.801 273.694L293.999 272.326H296.285V273.694H293.801ZM306.455 283V272.326H308.111V283H306.455ZM304.817 273.694L305.015 272.326H307.535V273.694H304.817ZM309.357 283V281.632H312.309C313.305 281.632 314.049 281.296 314.541 280.624C315.045 279.952 315.297 278.98 315.297 277.708C315.297 276.4 315.045 275.404 314.541 274.72C314.049 274.036 313.305 273.694 312.309 273.694H309.357L309.555 272.326H312.309C313.845 272.326 315.009 272.788 315.801 273.712C316.605 274.636 317.007 275.968 317.007 277.708C317.007 279.424 316.605 280.738 315.801 281.65C315.009 282.55 313.845 283 312.309 283H309.357ZM318.992 278.284V272.326H320.648V278.284H318.992ZM317.354 273.694L317.552 272.326H319.928V273.694H317.354ZM329.465 283C328.937 282.1 328.397 281.23 327.845 280.39C327.293 279.55 326.741 278.758 326.189 278.014C325.649 277.258 325.115 276.556 324.587 275.908C324.287 275.536 323.993 275.176 323.705 274.828C323.417 274.468 323.147 274.132 322.895 273.82C322.655 273.508 322.427 273.226 322.211 272.974C322.007 272.722 321.827 272.506 321.671 272.326H323.669C323.897 272.59 324.137 272.884 324.389 273.208C324.641 273.532 324.917 273.886 325.217 274.27C325.517 274.642 325.847 275.056 326.207 275.512C326.723 276.22 327.275 276.982 327.863 277.798C328.451 278.614 329.045 279.46 329.645 280.336C330.245 281.212 330.815 282.1 331.355 283H329.465ZM321.275 283L321.707 280.012C321.803 279.316 321.953 278.68 322.157 278.104C322.373 277.516 322.685 277.006 323.093 276.574C323.501 276.13 324.047 275.77 324.731 275.494L325.271 276.574C324.839 276.778 324.497 277.054 324.245 277.402C323.993 277.738 323.801 278.134 323.669 278.59C323.537 279.034 323.429 279.526 323.345 280.066L322.913 283H321.275ZM327.899 278.572L327.359 277.492C327.815 277.276 328.187 277 328.475 276.664C328.763 276.328 328.979 275.938 329.123 275.494C329.279 275.05 329.381 274.558 329.429 274.018L329.591 272.326H331.247L331.085 274.072C331.025 274.768 330.875 275.404 330.635 275.98C330.395 276.556 330.047 277.06 329.591 277.492C329.147 277.924 328.583 278.284 327.899 278.572Z" fill="#111111" fill-opacity="0.65"/>
</g>
<g id="Frame 19">
<g id="fi_11170325_2">
<g id="Group_2">
<path id="Vector_2" d="M357 334C356.6 334 356.333 333.867 356.067 333.6L349.4 326.934C348.867 326.4 348.867 325.6 349.4 325.067C349.933 324.534 350.733 324.534 351.267 325.067L357 330.8L370.733 317.067C371.267 316.534 372.067 316.534 372.6 317.067C373.133 317.6 373.133 318.4 372.6 318.934L357.933 333.6C357.667 333.867 357.4 334 357 334Z" fill="white"/>
</g>
</g>
<path id="&#215;&#164;&#215;&#168;&#215;&#153;&#215;&#167;&#215;&#148; &#215;&#145;&#215;&#145;&#215;&#153;&#215;&#170; &#215;&#148;&#215;&#151;&#215;&#147;&#215;&#169;" d="M206.808 329.054C205.68 329.054 204.72 328.814 203.928 328.334C203.148 327.854 202.548 327.152 202.128 326.228C201.708 325.292 201.498 324.146 201.498 322.79V318.326H203.154V322.79C203.154 323.882 203.292 324.8 203.568 325.544C203.856 326.276 204.27 326.828 204.81 327.2C205.35 327.56 206.01 327.74 206.79 327.74H206.97C207.774 327.74 208.452 327.56 209.004 327.2C209.556 326.828 209.97 326.276 210.246 325.544C210.534 324.812 210.678 323.9 210.678 322.808V318.326H212.316V322.79C212.316 324.146 212.106 325.292 211.686 326.228C211.278 327.152 210.678 327.854 209.886 328.334C209.094 328.814 208.134 329.054 207.006 329.054H206.808ZM202.722 324.86L202.596 323.708C203.4 323.744 204.06 323.636 204.576 323.384C205.092 323.12 205.47 322.718 205.71 322.178C205.962 321.638 206.088 320.984 206.088 320.216V318.326H207.744V320.108C207.744 320.864 207.642 321.542 207.438 322.142C207.234 322.73 206.922 323.234 206.502 323.654C206.094 324.062 205.572 324.368 204.936 324.572C204.312 324.776 203.574 324.872 202.722 324.86ZM213.178 319.694V318.326H221.692L221.512 319.694H213.178ZM218.29 329V321.008C218.29 320.864 218.308 320.708 218.344 320.54C218.38 320.36 218.434 320.192 218.506 320.036C218.59 319.88 218.704 319.766 218.848 319.694H220.144C220.06 319.778 220.006 319.91 219.982 320.09C219.958 320.27 219.946 320.468 219.946 320.684V329H218.29ZM228.306 318.326C229.47 318.326 230.346 318.614 230.934 319.19C231.534 319.754 231.834 320.594 231.834 321.71V329H230.178V321.764C230.178 321.068 230.01 320.552 229.674 320.216C229.35 319.868 228.858 319.694 228.198 319.694H224.994C224.922 319.802 224.844 320.006 224.76 320.306C224.676 320.606 224.634 321.074 224.634 321.71V329H222.978V322.124C222.978 321.596 223.032 321.122 223.14 320.702C223.248 320.27 223.404 319.94 223.608 319.712L223.248 319.64V318.326H228.306ZM222.042 319.694L222.222 318.326H226.182V319.694H222.042ZM240.502 329V321.764C240.502 321.068 240.334 320.552 239.998 320.216C239.674 319.868 239.176 319.694 238.504 319.694H233.122L233.32 318.326H238.63C239.794 318.326 240.67 318.614 241.258 319.19C241.858 319.754 242.158 320.594 242.158 321.71V329H240.502ZM233.41 329V322.934L235.066 322.808V329H233.41ZM255.647 329V321.764C255.647 321.068 255.479 320.552 255.143 320.216C254.819 319.868 254.321 319.694 253.649 319.694H248.987V318.326H253.775C254.939 318.326 255.815 318.614 256.403 319.19C257.003 319.754 257.303 320.594 257.303 321.71V329H255.647ZM246.935 329L247.133 327.632H247.781C248.057 327.632 248.279 327.578 248.447 327.47C248.627 327.35 248.759 327.176 248.843 326.948C248.939 326.72 248.987 326.426 248.987 326.066V318.686H250.643V326.156C250.643 327.08 250.421 327.788 249.977 328.28C249.533 328.76 248.891 329 248.051 329H246.935ZM247.295 319.694L247.493 318.326H249.779V319.694H247.295ZM259.597 324.284V318.326H261.253V324.284H259.597ZM257.959 319.694L258.157 318.326H260.533V319.694H257.959ZM268.226 329V321.764C268.226 321.068 268.058 320.552 267.722 320.216C267.398 319.868 266.9 319.694 266.228 319.694H262.862L263.042 318.326H266.354C267.518 318.326 268.394 318.614 268.982 319.19C269.582 319.754 269.882 320.594 269.882 321.71V327.812C269.834 328.028 269.744 328.232 269.612 328.424C269.492 328.616 269.354 328.808 269.198 329H268.226ZM262.322 329V327.632H271.214L271.016 329H262.322ZM277.527 329V321.764C277.527 321.068 277.359 320.552 277.023 320.216C276.699 319.868 276.201 319.694 275.529 319.694H272.163L272.343 318.326H275.655C276.819 318.326 277.695 318.614 278.283 319.19C278.883 319.754 279.183 320.594 279.183 321.71V327.812C279.135 328.028 279.045 328.232 278.913 328.424C278.793 328.616 278.655 328.808 278.499 329H277.527ZM271.623 329V327.632H280.515L280.317 329H271.623ZM292.371 329V321.764C292.371 321.068 292.203 320.552 291.867 320.216C291.543 319.868 291.045 319.694 290.373 319.694H284.991L285.189 318.326H290.499C291.663 318.326 292.539 318.614 293.127 319.19C293.727 319.754 294.027 320.594 294.027 321.71V329H292.371ZM285.279 329V322.934L286.935 322.808V329H285.279ZM300.226 329L303.106 319.676H295.474L295.672 318.326H304.996L304.852 319.37L301.882 329H300.226ZM296.014 332.438V322.286L297.67 322.16V332.348L296.014 332.438ZM306.929 324.284V318.326H308.585V324.284H306.929ZM305.291 319.694L305.489 318.326H307.865V319.694H305.291ZM315.324 329V321.764C315.324 321.068 315.156 320.552 314.82 320.216C314.496 319.868 314.004 319.694 313.344 319.694H309.636L309.834 318.326H313.452C314.616 318.326 315.492 318.614 316.08 319.19C316.68 319.754 316.98 320.594 316.98 321.71V329H315.324ZM318.58 329V327.632H321.892C322.66 327.632 323.32 327.464 323.872 327.128C324.424 326.78 324.844 326.3 325.132 325.688C325.432 325.076 325.582 324.368 325.582 323.564C325.582 322.292 325.324 321.302 324.808 320.594C324.292 319.874 323.518 319.514 322.486 319.514C321.646 319.514 321.004 319.73 320.56 320.162C320.116 320.594 319.894 321.146 319.894 321.818C319.894 322.346 320.02 322.796 320.272 323.168C320.524 323.54 320.914 323.768 321.442 323.852C321.538 323.876 321.628 323.9 321.712 323.924C321.796 323.936 321.868 323.942 321.928 323.942L321.82 325.166C321.712 325.178 321.58 325.178 321.424 325.166C321.268 325.154 321.076 325.13 320.848 325.094C320.008 324.962 319.372 324.602 318.94 324.014C318.508 323.414 318.292 322.67 318.292 321.782C318.292 321.074 318.454 320.444 318.778 319.892C319.102 319.34 319.576 318.914 320.2 318.614C320.824 318.302 321.586 318.146 322.486 318.146C324.01 318.146 325.186 318.626 326.014 319.586C326.854 320.546 327.274 321.872 327.274 323.564C327.274 324.656 327.052 325.61 326.608 326.426C326.176 327.242 325.546 327.878 324.718 328.334C323.902 328.778 322.912 329 321.748 329H318.58Z" fill="#111111" fill-opacity="0.65"/>
</g>
<g id="Frame 20_2">
<g id="fi_11170325_3">
<g id="Group_3">
<path id="Vector_3" d="M357 386C356.6 386 356.333 385.867 356.067 385.6L349.4 378.934C348.867 378.4 348.867 377.6 349.4 377.067C349.933 376.534 350.733 376.534 351.267 377.067L357 382.8L370.733 369.067C371.267 368.534 372.067 368.534 372.6 369.067C373.133 369.6 373.133 370.4 372.6 370.934L357.933 385.6C357.667 385.867 357.4 386 357 386Z" fill="white"/>
</g>
</g>
<path id="&#215;&#161;&#215;&#153;&#215;&#147;&#215;&#149;&#215;&#168; &#215;&#158;&#215;&#156;&#215;&#144; &#215;&#145;&#215;&#170;&#215;&#149;&#215;&#154; &#215;&#148;&#215;&#144;&#215;&#168;&#215;&#149;&#215;&#160;&#215;&#149;&#215;&#170; &#215;&#149;&#215;&#148;&#215;&#151;&#215;&#147;&#215;&#168;&#215;&#153;&#215;&#157; &#226;&#128;&#147; &#215;&#148;&#215;&#164;&#215;&#168;&#215;&#153;&#215;&#152;&#215;&#153;&#215;&#157; &#215;&#158;&#215;&#149;&#215;&#160;&#215;&#151;&#215;&#153;&#215;&#157; &#215;&#149;&#215;&#158;&#215;&#161;&#215;&#149;&#215;&#147;&#215;&#168;&#215;&#153;&#215;&#157; &#215;&#156;&#215;&#164;&#215;&#153; &#215;&#169;&#215;&#153;&#215;&#158;&#215;&#149;&#215;&#169; &#215;&#153;&#215;&#149;&#215;&#158;&#215;&#153;&#215;&#149;&#215;&#158;&#215;&#153;" d="M92.4188 376.716V375.528H100.033V376.716H92.4188ZM111.02 370.326C112.184 370.326 113.06 370.614 113.648 371.19C114.248 371.754 114.548 372.594 114.548 373.71V381H105.566V373.008C105.566 372.864 105.584 372.708 105.62 372.54C105.656 372.36 105.71 372.192 105.782 372.036C105.866 371.88 105.98 371.766 106.124 371.694H104.45L104.63 370.326H111.02ZM112.892 379.632V373.764C112.892 373.068 112.724 372.552 112.388 372.216C112.064 371.868 111.566 371.694 110.894 371.694H107.348C107.3 371.814 107.264 371.964 107.24 372.144C107.228 372.324 107.222 372.504 107.222 372.684V379.632H112.892ZM116.65 376.284V370.326H118.306V376.284H116.65ZM115.012 371.694L115.21 370.326H117.586V371.694H115.012ZM125.045 381V373.764C125.045 373.068 124.877 372.552 124.541 372.216C124.217 371.868 123.725 371.694 123.065 371.694H119.357L119.555 370.326H123.173C124.337 370.326 125.213 370.614 125.801 371.19C126.401 371.754 126.701 372.594 126.701 373.71V381H125.045ZM127.092 371.694V370.326H135.606L135.426 371.694H127.092ZM132.204 381V373.008C132.204 372.864 132.222 372.708 132.258 372.54C132.294 372.36 132.348 372.192 132.42 372.036C132.504 371.88 132.618 371.766 132.762 371.694H134.058C133.974 371.778 133.92 371.91 133.896 372.09C133.872 372.27 133.86 372.468 133.86 372.684V381H132.204ZM142.22 370.326C143.384 370.326 144.26 370.614 144.848 371.19C145.448 371.754 145.748 372.594 145.748 373.71V381H144.092V373.764C144.092 373.068 143.924 372.552 143.588 372.216C143.264 371.868 142.772 371.694 142.112 371.694H138.908C138.836 371.802 138.758 372.006 138.674 372.306C138.59 372.606 138.548 373.074 138.548 373.71V381H136.892V374.124C136.892 373.596 136.946 373.122 137.054 372.702C137.162 372.27 137.318 371.94 137.522 371.712L137.162 371.64V370.326H142.22ZM135.956 371.694L136.136 370.326H140.096V371.694H135.956ZM154.416 381V373.764C154.416 373.068 154.248 372.552 153.912 372.216C153.588 371.868 153.09 371.694 152.418 371.694H147.036L147.234 370.326H152.544C153.708 370.326 154.584 370.614 155.172 371.19C155.772 371.754 156.072 372.594 156.072 373.71V381H154.416ZM147.324 381V374.934L148.98 374.808V381H147.324ZM158.689 381V370.326H160.345V381H158.689ZM157.051 371.694L157.249 370.326H159.769V371.694H157.051ZM173.975 381V373.764C173.975 373.068 173.807 372.552 173.471 372.216C173.147 371.868 172.649 371.694 171.977 371.694H167.315V370.326H172.103C173.267 370.326 174.143 370.614 174.731 371.19C175.331 371.754 175.631 372.594 175.631 373.71V381H173.975ZM165.263 381L165.461 379.632H166.109C166.385 379.632 166.607 379.578 166.775 379.47C166.955 379.35 167.087 379.176 167.171 378.948C167.267 378.72 167.315 378.426 167.315 378.066V370.686H168.971V378.156C168.971 379.08 168.749 379.788 168.305 380.28C167.861 380.76 167.219 381 166.379 381H165.263ZM165.623 371.694L165.821 370.326H168.107V371.694H165.623ZM178.277 381V370.326H179.933V381H178.277ZM176.639 371.694L176.837 370.326H179.357V371.694H176.639ZM184.203 381V372.99C184.203 372.69 184.155 372.444 184.059 372.252C183.975 372.048 183.843 371.904 183.663 371.82C183.483 371.736 183.261 371.694 182.997 371.694H181.773L181.953 370.326H183.411C184.203 370.326 184.809 370.542 185.229 370.974C185.649 371.394 185.859 372.012 185.859 372.828V381H184.203ZM181.233 381V379.632H184.995V381H181.233ZM188.511 381V370.326H190.167V381H188.511ZM186.873 371.694L187.071 370.326H189.591V371.694H186.873ZM197.012 381V373.764C197.012 373.068 196.844 372.552 196.508 372.216C196.184 371.868 195.692 371.694 195.032 371.694H191.324L191.522 370.326H195.14C196.304 370.326 197.18 370.614 197.768 371.19C198.368 371.754 198.668 372.594 198.668 373.71V381H197.012ZM207.863 381C207.335 380.1 206.795 379.23 206.243 378.39C205.691 377.55 205.139 376.758 204.587 376.014C204.047 375.258 203.513 374.556 202.985 373.908C202.685 373.536 202.391 373.176 202.103 372.828C201.815 372.468 201.545 372.132 201.293 371.82C201.053 371.508 200.825 371.226 200.609 370.974C200.405 370.722 200.225 370.506 200.069 370.326H202.067C202.295 370.59 202.535 370.884 202.787 371.208C203.039 371.532 203.315 371.886 203.615 372.27C203.915 372.642 204.245 373.056 204.605 373.512C205.121 374.22 205.673 374.982 206.261 375.798C206.849 376.614 207.443 377.46 208.043 378.336C208.643 379.212 209.213 380.1 209.753 381H207.863ZM199.673 381L200.105 378.012C200.201 377.316 200.351 376.68 200.555 376.104C200.771 375.516 201.083 375.006 201.491 374.574C201.899 374.13 202.445 373.77 203.129 373.494L203.669 374.574C203.237 374.778 202.895 375.054 202.643 375.402C202.391 375.738 202.199 376.134 202.067 376.59C201.935 377.034 201.827 377.526 201.743 378.066L201.311 381H199.673ZM206.297 376.572L205.757 375.492C206.213 375.276 206.585 375 206.873 374.664C207.161 374.328 207.377 373.938 207.521 373.494C207.677 373.05 207.779 372.558 207.827 372.018L207.989 370.326H209.645L209.483 372.072C209.423 372.768 209.273 373.404 209.033 373.98C208.793 374.556 208.445 375.06 207.989 375.492C207.545 375.924 206.981 376.284 206.297 376.572ZM217.732 381V373.764C217.732 373.068 217.564 372.552 217.228 372.216C216.904 371.868 216.406 371.694 215.734 371.694H210.352L210.55 370.326H215.86C217.024 370.326 217.9 370.614 218.488 371.19C219.088 371.754 219.388 372.594 219.388 373.71V381H217.732ZM210.64 381V374.934L212.296 374.808V381H210.64ZM230.519 384.438V374.232C230.519 373.416 230.339 372.792 229.979 372.36C229.619 371.916 229.115 371.694 228.467 371.694H224.309L224.489 370.326H228.521C229.709 370.326 230.615 370.668 231.239 371.352C231.863 372.024 232.175 372.984 232.175 374.232V384.348L230.519 384.438ZM234.666 381V370.326H236.322V381H234.666ZM233.028 371.694L233.226 370.326H235.746V371.694H233.028ZM246.1 381V373.764C246.1 373.068 245.932 372.552 245.596 372.216C245.272 371.868 244.774 371.694 244.102 371.694H239.44V370.326H244.228C245.392 370.326 246.268 370.614 246.856 371.19C247.456 371.754 247.756 372.594 247.756 373.71V381H246.1ZM237.388 381L237.586 379.632H238.234C238.51 379.632 238.732 379.578 238.9 379.47C239.08 379.35 239.212 379.176 239.296 378.948C239.392 378.72 239.44 378.426 239.44 378.066V370.686H241.096V378.156C241.096 379.08 240.874 379.788 240.43 380.28C239.986 380.76 239.344 381 238.504 381H237.388ZM237.748 371.694L237.946 370.326H240.232V371.694H237.748ZM254.722 381V373.764C254.722 373.068 254.554 372.552 254.218 372.216C253.894 371.868 253.396 371.694 252.724 371.694H249.358L249.538 370.326H252.85C254.014 370.326 254.89 370.614 255.478 371.19C256.078 371.754 256.378 372.594 256.378 373.71V379.812C256.33 380.028 256.24 380.232 256.108 380.424C255.988 380.616 255.85 380.808 255.694 381H254.722ZM248.818 381V379.632H257.71L257.512 381H248.818ZM270.07 381C269.542 380.1 269.002 379.23 268.45 378.39C267.898 377.55 267.346 376.758 266.794 376.014C266.254 375.258 265.72 374.556 265.192 373.908C264.892 373.536 264.598 373.176 264.31 372.828C264.022 372.468 263.752 372.132 263.5 371.82C263.26 371.508 263.032 371.226 262.816 370.974C262.612 370.722 262.432 370.506 262.276 370.326H264.274C264.502 370.59 264.742 370.884 264.994 371.208C265.246 371.532 265.522 371.886 265.822 372.27C266.122 372.642 266.452 373.056 266.812 373.512C267.328 374.22 267.88 374.982 268.468 375.798C269.056 376.614 269.65 377.46 270.25 378.336C270.85 379.212 271.42 380.1 271.96 381H270.07ZM261.88 381L262.312 378.012C262.408 377.316 262.558 376.68 262.762 376.104C262.978 375.516 263.29 375.006 263.698 374.574C264.106 374.13 264.652 373.77 265.336 373.494L265.876 374.574C265.444 374.778 265.102 375.054 264.85 375.402C264.598 375.738 264.406 376.134 264.274 376.59C264.142 377.034 264.034 377.526 263.95 378.066L263.518 381H261.88ZM268.504 376.572L267.964 375.492C268.42 375.276 268.792 375 269.08 374.664C269.368 374.328 269.584 373.938 269.728 373.494C269.884 373.05 269.986 372.558 270.034 372.018L270.196 370.326H271.852L271.69 372.072C271.63 372.768 271.48 373.404 271.24 373.98C271 374.556 270.652 375.06 270.196 375.492C269.752 375.924 269.188 376.284 268.504 376.572ZM273.873 370.326H280.371L280.191 371.37L276.969 381H275.259L278.409 371.694H272.217V367.518L273.873 367.32V370.326ZM281.09 381L282.332 374.61L280.856 370.326H282.512L283.394 373.17H283.448C283.58 372.774 283.736 372.396 283.916 372.036C284.096 371.676 284.33 371.358 284.618 371.082C284.906 370.794 285.26 370.566 285.68 370.398C286.1 370.23 286.592 370.146 287.156 370.146C287.96 370.146 288.662 370.338 289.262 370.722C289.862 371.094 290.33 371.658 290.666 372.414C291.014 373.158 291.188 374.106 291.188 375.258V375.51C291.188 376.614 291.008 377.58 290.648 378.408C290.3 379.224 289.784 379.86 289.1 380.316C288.428 380.772 287.6 381 286.616 381H284.816L284.996 379.632H286.544C287.504 379.632 288.242 379.254 288.758 378.498C289.274 377.742 289.532 376.746 289.532 375.51V375.258C289.532 374.394 289.412 373.692 289.172 373.152C288.944 372.6 288.632 372.192 288.236 371.928C287.84 371.664 287.384 371.532 286.868 371.532C286.364 371.532 285.938 371.622 285.59 371.802C285.242 371.982 284.96 372.228 284.744 372.54C284.528 372.84 284.354 373.176 284.222 373.548C284.102 373.908 284.012 374.28 283.952 374.664L282.8 381H281.09ZM301.152 381V373.764C301.152 373.068 300.984 372.552 300.648 372.216C300.324 371.868 299.832 371.694 299.172 371.694H295.464L295.662 370.326H299.28C300.444 370.326 301.32 370.614 301.908 371.19C302.508 371.754 302.808 372.594 302.808 373.71V381H301.152ZM305.277 381V370.326H306.933V381H305.277ZM303.639 371.694L303.837 370.326H306.357V371.694H303.639ZM308.053 371.694V370.326H316.567L316.387 371.694H308.053ZM313.165 381V373.008C313.165 372.864 313.183 372.708 313.219 372.54C313.255 372.36 313.309 372.192 313.381 372.036C313.465 371.88 313.579 371.766 313.723 371.694H315.019C314.935 371.778 314.881 371.91 314.857 372.09C314.833 372.27 314.821 372.468 314.821 372.684V381H313.165ZM318.447 376.284V370.326H320.103V376.284H318.447ZM316.809 371.694L317.007 370.326H319.383V371.694H316.809ZM326.374 381.18C324.838 381.18 323.692 380.736 322.936 379.848C322.192 378.96 321.82 377.652 321.82 375.924V375.726C321.82 374.898 321.946 374.142 322.198 373.458C322.462 372.774 322.786 372.216 323.17 371.784V371.568L324.736 371.46L324.538 371.748C324.19 372.144 323.926 372.678 323.746 373.35C323.566 374.022 323.476 374.76 323.476 375.564C323.476 376.992 323.704 378.066 324.16 378.786C324.628 379.506 325.366 379.866 326.374 379.866C327.442 379.866 328.222 379.464 328.714 378.66C329.206 377.844 329.452 376.668 329.452 375.132C329.452 374.016 329.266 373.164 328.894 372.576C328.522 371.988 327.886 371.694 326.986 371.694H321.226L321.424 370.326H327.04C328.444 370.326 329.47 370.74 330.118 371.568C330.778 372.384 331.108 373.566 331.108 375.114C331.108 377.07 330.718 378.57 329.938 379.614C329.158 380.658 327.97 381.18 326.374 381.18ZM89.2999 405.054C88.1719 405.054 87.2119 404.814 86.4199 404.334C85.6399 403.854 85.0399 403.152 84.6199 402.228C84.1999 401.292 83.9899 400.146 83.9899 398.79V394.326H85.6459V398.79C85.6459 399.882 85.7839 400.8 86.0599 401.544C86.3479 402.276 86.7619 402.828 87.3019 403.2C87.8419 403.56 88.5019 403.74 89.2819 403.74H89.4619C90.2659 403.74 90.9439 403.56 91.4959 403.2C92.0479 402.828 92.4619 402.276 92.7379 401.544C93.0259 400.812 93.1699 399.9 93.1699 398.808V394.326H94.8079V398.79C94.8079 400.146 94.5979 401.292 94.1779 402.228C93.7699 403.152 93.1699 403.854 92.3779 404.334C91.5859 404.814 90.6259 405.054 89.4979 405.054H89.2999ZM85.2139 400.86L85.0879 399.708C85.8919 399.744 86.5519 399.636 87.0679 399.384C87.5839 399.12 87.9619 398.718 88.2019 398.178C88.4539 397.638 88.5799 396.984 88.5799 396.216V394.326H90.2359V396.108C90.2359 396.864 90.1339 397.542 89.9299 398.142C89.7259 398.73 89.4139 399.234 88.9939 399.654C88.5859 400.062 88.0639 400.368 87.4279 400.572C86.8039 400.776 86.0659 400.872 85.2139 400.86ZM97.3083 405V394.326H98.9643V405H97.3083ZM95.6703 395.694L95.8683 394.326H98.3883V395.694H95.6703ZM100.48 405L101.722 398.61L100.246 394.326H101.902L102.784 397.17H102.838C102.97 396.774 103.126 396.396 103.306 396.036C103.486 395.676 103.72 395.358 104.008 395.082C104.296 394.794 104.65 394.566 105.07 394.398C105.49 394.23 105.982 394.146 106.546 394.146C107.35 394.146 108.052 394.338 108.652 394.722C109.252 395.094 109.72 395.658 110.056 396.414C110.404 397.158 110.578 398.106 110.578 399.258V399.51C110.578 400.614 110.398 401.58 110.038 402.408C109.69 403.224 109.174 403.86 108.49 404.316C107.818 404.772 106.99 405 106.006 405H104.206L104.386 403.632H105.934C106.894 403.632 107.632 403.254 108.148 402.498C108.664 401.742 108.922 400.746 108.922 399.51V399.258C108.922 398.394 108.802 397.692 108.562 397.152C108.334 396.6 108.022 396.192 107.626 395.928C107.23 395.664 106.774 395.532 106.258 395.532C105.754 395.532 105.328 395.622 104.98 395.802C104.632 395.982 104.35 396.228 104.134 396.54C103.918 396.84 103.744 397.176 103.612 397.548C103.492 397.908 103.402 398.28 103.342 398.664L102.19 405H100.48ZM112.465 400.284V394.326H114.121V400.284H112.465ZM110.827 395.694L111.025 394.326H113.401V395.694H110.827ZM120.913 405.054C119.785 405.054 118.825 404.814 118.033 404.334C117.253 403.854 116.653 403.152 116.233 402.228C115.813 401.292 115.603 400.146 115.603 398.79V394.326H117.259V398.79C117.259 399.882 117.397 400.8 117.673 401.544C117.961 402.276 118.375 402.828 118.915 403.2C119.455 403.56 120.115 403.74 120.895 403.74H121.075C121.879 403.74 122.557 403.56 123.109 403.2C123.661 402.828 124.075 402.276 124.351 401.544C124.639 400.812 124.783 399.9 124.783 398.808V394.326H126.421V398.79C126.421 400.146 126.211 401.292 125.791 402.228C125.383 403.152 124.783 403.854 123.991 404.334C123.199 404.814 122.239 405.054 121.111 405.054H120.913ZM116.827 400.86L116.701 399.708C117.505 399.744 118.165 399.636 118.681 399.384C119.197 399.12 119.575 398.718 119.815 398.178C120.067 397.638 120.193 396.984 120.193 396.216V394.326H121.849V396.108C121.849 396.864 121.747 397.542 121.543 398.142C121.339 398.73 121.027 399.234 120.607 399.654C120.199 400.062 119.677 400.368 119.041 400.572C118.417 400.776 117.679 400.872 116.827 400.86ZM132.773 400.284V394.326H134.429V400.284H132.773ZM131.135 395.694L131.333 394.326H133.709V395.694H131.135ZM136.002 405V403.632H139.314C140.082 403.632 140.742 403.464 141.294 403.128C141.846 402.78 142.266 402.3 142.554 401.688C142.854 401.076 143.004 400.368 143.004 399.564C143.004 398.292 142.746 397.302 142.23 396.594C141.714 395.874 140.94 395.514 139.908 395.514C139.068 395.514 138.426 395.73 137.982 396.162C137.538 396.594 137.316 397.146 137.316 397.818C137.316 398.346 137.442 398.796 137.694 399.168C137.946 399.54 138.336 399.768 138.864 399.852C138.96 399.876 139.05 399.9 139.134 399.924C139.218 399.936 139.29 399.942 139.35 399.942L139.242 401.166C139.134 401.178 139.002 401.178 138.846 401.166C138.69 401.154 138.498 401.13 138.27 401.094C137.43 400.962 136.794 400.602 136.362 400.014C135.93 399.414 135.714 398.67 135.714 397.782C135.714 397.074 135.876 396.444 136.2 395.892C136.524 395.34 136.998 394.914 137.622 394.614C138.246 394.302 139.008 394.146 139.908 394.146C141.432 394.146 142.608 394.626 143.436 395.586C144.276 396.546 144.696 397.872 144.696 399.564C144.696 400.656 144.474 401.61 144.03 402.426C143.598 403.242 142.968 403.878 142.14 404.334C141.324 404.778 140.334 405 139.17 405H136.002ZM146.557 394.326H153.055L152.875 395.37L149.653 405H147.943L151.093 395.694H144.901V391.518L146.557 391.32V394.326ZM163.997 394.326C165.161 394.326 166.037 394.614 166.625 395.19C167.225 395.754 167.525 396.594 167.525 397.71V405H158.543V397.008C158.543 396.864 158.561 396.708 158.597 396.54C158.633 396.36 158.687 396.192 158.759 396.036C158.843 395.88 158.957 395.766 159.101 395.694H157.427L157.607 394.326H163.997ZM165.869 403.632V397.764C165.869 397.068 165.701 396.552 165.365 396.216C165.041 395.868 164.543 395.694 163.871 395.694H160.325C160.277 395.814 160.241 395.964 160.217 396.144C160.205 396.324 160.199 396.504 160.199 396.684V403.632H165.869ZM169.627 400.284V394.326H171.283V400.284H169.627ZM167.989 395.694L168.187 394.326H170.563V395.694H167.989ZM178.021 405V397.764C178.021 397.068 177.853 396.552 177.517 396.216C177.193 395.868 176.701 395.694 176.041 395.694H172.333L172.531 394.326H176.149C177.313 394.326 178.189 394.614 178.777 395.19C179.377 395.754 179.677 396.594 179.677 397.71V405H178.021ZM180.069 395.694V394.326H188.583L188.403 395.694H180.069ZM185.181 405V397.008C185.181 396.864 185.199 396.708 185.235 396.54C185.271 396.36 185.325 396.192 185.397 396.036C185.481 395.88 185.595 395.766 185.739 395.694H187.035C186.951 395.778 186.897 395.91 186.873 396.09C186.849 396.27 186.837 396.468 186.837 396.684V405H185.181ZM190.463 405V394.326H192.119V405H190.463ZM188.825 395.694L189.023 394.326H191.543V395.694H188.825ZM198.495 405.18C196.959 405.18 195.813 404.736 195.057 403.848C194.313 402.96 193.941 401.652 193.941 399.924V399.726C193.941 398.898 194.067 398.142 194.319 397.458C194.583 396.774 194.907 396.216 195.291 395.784V395.568L196.857 395.46L196.659 395.748C196.311 396.144 196.047 396.678 195.867 397.35C195.687 398.022 195.597 398.76 195.597 399.564C195.597 400.992 195.825 402.066 196.281 402.786C196.749 403.506 197.487 403.866 198.495 403.866C199.563 403.866 200.343 403.464 200.835 402.66C201.327 401.844 201.573 400.668 201.573 399.132C201.573 398.016 201.387 397.164 201.015 396.576C200.643 395.988 200.007 395.694 199.107 395.694H193.347L193.545 394.326H199.161C200.565 394.326 201.591 394.74 202.239 395.568C202.899 396.384 203.229 397.566 203.229 399.114C203.229 401.07 202.839 402.57 202.059 403.614C201.279 404.658 200.091 405.18 198.495 405.18ZM203.814 405L205.056 398.61L203.58 394.326H205.236L206.118 397.17H206.172C206.304 396.774 206.46 396.396 206.64 396.036C206.82 395.676 207.054 395.358 207.342 395.082C207.63 394.794 207.984 394.566 208.404 394.398C208.824 394.23 209.316 394.146 209.88 394.146C210.684 394.146 211.386 394.338 211.986 394.722C212.586 395.094 213.054 395.658 213.39 396.414C213.738 397.158 213.912 398.106 213.912 399.258V399.51C213.912 400.614 213.732 401.58 213.372 402.408C213.024 403.224 212.508 403.86 211.824 404.316C211.152 404.772 210.324 405 209.34 405H207.54L207.72 403.632H209.268C210.228 403.632 210.966 403.254 211.482 402.498C211.998 401.742 212.256 400.746 212.256 399.51V399.258C212.256 398.394 212.136 397.692 211.896 397.152C211.668 396.6 211.356 396.192 210.96 395.928C210.564 395.664 210.108 395.532 209.592 395.532C209.088 395.532 208.662 395.622 208.314 395.802C207.966 395.982 207.684 396.228 207.468 396.54C207.252 396.84 207.078 397.176 206.946 397.548C206.826 397.908 206.736 398.28 206.676 398.664L205.524 405H203.814ZM215.939 405V394.326H217.595V405H215.939ZM214.301 395.694L214.499 394.326H217.019V395.694H214.301ZM229.335 394.326C230.499 394.326 231.375 394.614 231.963 395.19C232.563 395.754 232.863 396.594 232.863 397.71V405H223.881V397.008C223.881 396.864 223.899 396.708 223.935 396.54C223.971 396.36 224.025 396.192 224.097 396.036C224.181 395.88 224.295 395.766 224.439 395.694H222.765L222.945 394.326H229.335ZM231.207 403.632V397.764C231.207 397.068 231.039 396.552 230.703 396.216C230.379 395.868 229.881 395.694 229.209 395.694H225.663C225.615 395.814 225.579 395.964 225.555 396.144C225.543 396.324 225.537 396.504 225.537 396.684V403.632H231.207ZM234.965 400.284V394.326H236.621V400.284H234.965ZM233.327 395.694L233.525 394.326H235.901V395.694H233.327ZM244.007 394.326C245.171 394.326 246.047 394.614 246.635 395.19C247.235 395.754 247.535 396.594 247.535 397.71V405H245.879V397.764C245.879 397.068 245.711 396.552 245.375 396.216C245.051 395.868 244.559 395.694 243.899 395.694H240.695C240.623 395.802 240.545 396.006 240.461 396.306C240.377 396.606 240.335 397.074 240.335 397.71V405H238.679V398.124C238.679 397.596 238.733 397.122 238.841 396.702C238.949 396.27 239.105 395.94 239.309 395.712L238.949 395.64V394.326H244.007ZM237.743 395.694L237.923 394.326H241.883V395.694H237.743ZM251.703 405V396.99C251.703 396.69 251.655 396.444 251.559 396.252C251.475 396.048 251.343 395.904 251.163 395.82C250.983 395.736 250.761 395.694 250.497 395.694H249.273L249.453 394.326H250.911C251.703 394.326 252.309 394.542 252.729 394.974C253.149 395.394 253.359 396.012 253.359 396.828V405H251.703ZM248.733 405V403.632H252.495V405H248.733ZM256.011 405V394.326H257.667V405H256.011ZM254.373 395.694L254.571 394.326H257.091V395.694H254.373ZM259.184 405L260.426 398.61L258.95 394.326H260.606L261.488 397.17H261.542C261.674 396.774 261.83 396.396 262.01 396.036C262.19 395.676 262.424 395.358 262.712 395.082C263 394.794 263.354 394.566 263.774 394.398C264.194 394.23 264.686 394.146 265.25 394.146C266.054 394.146 266.756 394.338 267.356 394.722C267.956 395.094 268.424 395.658 268.76 396.414C269.108 397.158 269.282 398.106 269.282 399.258V399.51C269.282 400.614 269.102 401.58 268.742 402.408C268.394 403.224 267.878 403.86 267.194 404.316C266.522 404.772 265.694 405 264.71 405H262.91L263.09 403.632H264.638C265.598 403.632 266.336 403.254 266.852 402.498C267.368 401.742 267.626 400.746 267.626 399.51V399.258C267.626 398.394 267.506 397.692 267.266 397.152C267.038 396.6 266.726 396.192 266.33 395.928C265.934 395.664 265.478 395.532 264.962 395.532C264.458 395.532 264.032 395.622 263.684 395.802C263.336 395.982 263.054 396.228 262.838 396.54C262.622 396.84 262.448 397.176 262.316 397.548C262.196 397.908 262.106 398.28 262.046 398.664L260.894 405H259.184ZM280.29 394.326C281.454 394.326 282.33 394.614 282.918 395.19C283.518 395.754 283.818 396.594 283.818 397.71V405H274.836V397.008C274.836 396.864 274.854 396.708 274.89 396.54C274.926 396.36 274.98 396.192 275.052 396.036C275.136 395.88 275.25 395.766 275.394 395.694H273.72L273.9 394.326H280.29ZM282.162 403.632V397.764C282.162 397.068 281.994 396.552 281.658 396.216C281.334 395.868 280.836 395.694 280.164 395.694H276.618C276.57 395.814 276.534 395.964 276.51 396.144C276.498 396.324 276.492 396.504 276.492 396.684V403.632H282.162ZM285.92 400.284V394.326H287.576V400.284H285.92ZM284.282 395.694L284.48 394.326H286.856V395.694H284.282ZM293.594 405.18C292.106 405.18 290.954 404.676 290.138 403.668C289.334 402.648 288.932 401.148 288.932 399.168V394.326H290.588V399.168C290.588 400.704 290.852 401.874 291.38 402.678C291.908 403.47 292.634 403.866 293.558 403.866C294.554 403.866 295.334 403.47 295.898 402.678C296.462 401.874 296.744 400.704 296.744 399.168C296.744 398.016 296.588 397.128 296.276 396.504C295.964 395.868 295.424 395.556 294.656 395.568C294.392 395.568 294.14 395.586 293.9 395.622C293.672 395.658 293.432 395.706 293.18 395.766V394.434C293.48 394.374 293.768 394.326 294.044 394.29C294.332 394.254 294.626 394.236 294.926 394.236C296.162 394.224 297.05 394.65 297.59 395.514C298.13 396.366 298.4 397.584 298.4 399.168C298.4 401.148 297.98 402.648 297.14 403.668C296.3 404.676 295.118 405.18 293.594 405.18ZM300.496 400.284V394.326H302.152V400.284H300.496ZM298.858 395.694L299.056 394.326H301.432V395.694H298.858ZM308.89 405V397.764C308.89 397.068 308.722 396.552 308.386 396.216C308.062 395.868 307.57 395.694 306.91 395.694H303.202L303.4 394.326H307.018C308.182 394.326 309.058 394.614 309.646 395.19C310.246 395.754 310.546 396.594 310.546 397.71V405H308.89ZM312.146 405V403.632H315.458C316.226 403.632 316.886 403.464 317.438 403.128C317.99 402.78 318.41 402.3 318.698 401.688C318.998 401.076 319.148 400.368 319.148 399.564C319.148 398.292 318.89 397.302 318.374 396.594C317.858 395.874 317.084 395.514 316.052 395.514C315.212 395.514 314.57 395.73 314.126 396.162C313.682 396.594 313.46 397.146 313.46 397.818C313.46 398.346 313.586 398.796 313.838 399.168C314.09 399.54 314.48 399.768 315.008 399.852C315.104 399.876 315.194 399.9 315.278 399.924C315.362 399.936 315.434 399.942 315.494 399.942L315.386 401.166C315.278 401.178 315.146 401.178 314.99 401.166C314.834 401.154 314.642 401.13 314.414 401.094C313.574 400.962 312.938 400.602 312.506 400.014C312.074 399.414 311.858 398.67 311.858 397.782C311.858 397.074 312.02 396.444 312.344 395.892C312.668 395.34 313.142 394.914 313.766 394.614C314.39 394.302 315.152 394.146 316.052 394.146C317.576 394.146 318.752 394.626 319.58 395.586C320.42 396.546 320.84 397.872 320.84 399.564C320.84 400.656 320.618 401.61 320.174 402.426C319.742 403.242 319.112 403.878 318.284 404.334C317.468 404.778 316.478 405 315.314 405H312.146ZM329.049 405V397.764C329.049 397.068 328.881 396.552 328.545 396.216C328.221 395.868 327.723 395.694 327.051 395.694H321.669L321.867 394.326H327.177C328.341 394.326 329.217 394.614 329.805 395.19C330.405 395.754 330.705 396.594 330.705 397.71V405H329.049ZM321.957 405V398.934L323.613 398.808V405H321.957ZM289.802 424.284V418.326H291.458V424.284H289.802ZM288.164 419.694L288.362 418.326H290.738V419.694H288.164ZM292.869 429L294.111 422.61L292.635 418.326H294.291L295.173 421.17H295.227C295.359 420.774 295.515 420.396 295.695 420.036C295.875 419.676 296.109 419.358 296.397 419.082C296.685 418.794 297.039 418.566 297.459 418.398C297.879 418.23 298.371 418.146 298.935 418.146C299.739 418.146 300.441 418.338 301.041 418.722C301.641 419.094 302.109 419.658 302.445 420.414C302.793 421.158 302.967 422.106 302.967 423.258V423.51C302.967 424.614 302.787 425.58 302.427 426.408C302.079 427.224 301.563 427.86 300.879 428.316C300.207 428.772 299.379 429 298.395 429H296.595L296.775 427.632H298.323C299.283 427.632 300.021 427.254 300.537 426.498C301.053 425.742 301.311 424.746 301.311 423.51V423.258C301.311 422.394 301.191 421.692 300.951 421.152C300.723 420.6 300.411 420.192 300.015 419.928C299.619 419.664 299.163 419.532 298.647 419.532C298.143 419.532 297.717 419.622 297.369 419.802C297.021 419.982 296.739 420.228 296.523 420.54C296.307 420.84 296.133 421.176 296.001 421.548C295.881 421.908 295.791 422.28 295.731 422.664L294.579 429H292.869ZM304.994 429V418.326H306.65V429H304.994ZM303.356 419.694L303.554 418.326H306.074V419.694H303.356ZM309.408 424.284V418.326H311.064V424.284H309.408ZM307.77 419.694L307.968 418.326H310.344V419.694H307.77ZM312.475 429L313.717 422.61L312.241 418.326H313.897L314.779 421.17H314.833C314.965 420.774 315.121 420.396 315.301 420.036C315.481 419.676 315.715 419.358 316.003 419.082C316.291 418.794 316.645 418.566 317.065 418.398C317.485 418.23 317.977 418.146 318.541 418.146C319.345 418.146 320.047 418.338 320.647 418.722C321.247 419.094 321.715 419.658 322.051 420.414C322.399 421.158 322.573 422.106 322.573 423.258V423.51C322.573 424.614 322.393 425.58 322.033 426.408C321.685 427.224 321.169 427.86 320.485 428.316C319.813 428.772 318.985 429 318.001 429H316.201L316.381 427.632H317.929C318.889 427.632 319.627 427.254 320.143 426.498C320.659 425.742 320.917 424.746 320.917 423.51V423.258C320.917 422.394 320.797 421.692 320.557 421.152C320.329 420.6 320.017 420.192 319.621 419.928C319.225 419.664 318.769 419.532 318.253 419.532C317.749 419.532 317.323 419.622 316.975 419.802C316.627 419.982 316.345 420.228 316.129 420.54C315.913 420.84 315.739 421.176 315.607 421.548C315.487 421.908 315.397 422.28 315.337 422.664L314.185 429H312.475ZM324.599 429V418.326H326.255V429H324.599ZM322.961 419.694L323.159 418.326H325.679V419.694H322.961ZM329.013 424.284V418.326H330.669V424.284H329.013ZM327.375 419.694L327.573 418.326H329.949V419.694H327.375Z" fill="#111111" fill-opacity="0.65"/>
</g>
<g id="Frame 21">
<g id="fi_11170325_4">
<g id="Group_4">
<path id="Vector_4" d="M357 473C356.6 473 356.333 472.867 356.067 472.6L349.4 465.934C348.867 465.4 348.867 464.6 349.4 464.067C349.933 463.534 350.733 463.534 351.267 464.067L357 469.8L370.733 456.067C371.267 455.534 372.067 455.534 372.6 456.067C373.133 456.6 373.133 457.4 372.6 457.934L357.933 472.6C357.667 472.867 357.4 473 357 473Z" fill="white"/>
</g>
</g>
<path id="&#215;&#169;&#215;&#158;&#215;&#153;&#215;&#168;&#215;&#148; &#215;&#162;&#215;&#156; &#215;&#161;&#215;&#147;&#215;&#168; &#215;&#149;&#215;&#170;&#215;&#155;&#215;&#149;&#215;&#156;&#215;&#148; &#215;&#156;&#215;&#144;&#215;&#149;&#215;&#168;&#215;&#154; &#215;&#155;&#215;&#156; &#215;&#148;&#215;&#170;&#215;&#148;&#215;&#156;&#215;&#153;&#215;&#154;" d="M119.762 457.326H126.26L126.08 458.37L122.858 468H121.148L124.298 458.694H118.106V454.518L119.762 454.32V457.326ZM126.708 468V466.632H129.66C130.656 466.632 131.4 466.296 131.892 465.624C132.396 464.952 132.648 463.98 132.648 462.708C132.648 461.4 132.396 460.404 131.892 459.72C131.4 459.036 130.656 458.694 129.66 458.694H126.708L126.906 457.326H129.66C131.196 457.326 132.36 457.788 133.152 458.712C133.956 459.636 134.358 460.968 134.358 462.708C134.358 464.424 133.956 465.738 133.152 466.65C132.36 467.55 131.196 468 129.66 468H126.708ZM144.998 471.438V461.232C144.998 460.416 144.818 459.792 144.458 459.36C144.098 458.916 143.594 458.694 142.946 458.694H138.788L138.968 457.326H143C144.188 457.326 145.094 457.668 145.718 458.352C146.342 459.024 146.654 459.984 146.654 461.232V471.348L144.998 471.438ZM152.967 468V460.764C152.967 460.068 152.799 459.552 152.463 459.216C152.139 458.868 151.647 458.694 150.987 458.694H147.279L147.477 457.326H151.095C152.259 457.326 153.135 457.614 153.723 458.19C154.323 458.754 154.623 459.594 154.623 460.71V468H152.967ZM157.092 468V457.326H158.748V468H157.092ZM155.454 458.694L155.652 457.326H158.172V458.694H155.454ZM168.022 468C167.494 467.1 166.954 466.23 166.402 465.39C165.85 464.55 165.298 463.758 164.746 463.014C164.206 462.258 163.672 461.556 163.144 460.908C162.844 460.536 162.55 460.176 162.262 459.828C161.974 459.468 161.704 459.132 161.452 458.82C161.212 458.508 160.984 458.226 160.768 457.974C160.564 457.722 160.384 457.506 160.228 457.326H162.226C162.454 457.59 162.694 457.884 162.946 458.208C163.198 458.532 163.474 458.886 163.774 459.27C164.074 459.642 164.404 460.056 164.764 460.512C165.28 461.22 165.832 461.982 166.42 462.798C167.008 463.614 167.602 464.46 168.202 465.336C168.802 466.212 169.372 467.1 169.912 468H168.022ZM159.832 468L160.264 465.012C160.36 464.316 160.51 463.68 160.714 463.104C160.93 462.516 161.242 462.006 161.65 461.574C162.058 461.13 162.604 460.77 163.288 460.494L163.828 461.574C163.396 461.778 163.054 462.054 162.802 462.402C162.55 462.738 162.358 463.134 162.226 463.59C162.094 464.034 161.986 464.526 161.902 465.066L161.47 468H159.832ZM166.456 463.572L165.916 462.492C166.372 462.276 166.744 462 167.032 461.664C167.32 461.328 167.536 460.938 167.68 460.494C167.836 460.05 167.938 459.558 167.986 459.018L168.148 457.326H169.804L169.642 459.072C169.582 459.768 169.432 460.404 169.192 460.98C168.952 461.556 168.604 462.06 168.148 462.492C167.704 462.924 167.14 463.284 166.456 463.572ZM171.825 457.326H178.323L178.143 458.37L174.921 468H173.211L176.361 458.694H170.169V454.518L171.825 454.32V457.326ZM190.147 468V460.764C190.147 460.068 189.979 459.552 189.643 459.216C189.319 458.868 188.821 458.694 188.149 458.694H182.767L182.965 457.326H188.275C189.439 457.326 190.315 457.614 190.902 458.19C191.503 458.754 191.803 459.594 191.803 460.71V468H190.147ZM183.055 468V461.934L184.711 461.808V468H183.055ZM194.366 457.326H200.864L200.684 458.37L197.462 468H195.752L198.902 458.694H192.71V454.518L194.366 454.32V457.326ZM202.824 468V457.326H204.48V468H202.824ZM201.186 458.694L201.384 457.326H203.904V458.694H201.186ZM205.726 468V466.632H208.678C209.674 466.632 210.418 466.296 210.91 465.624C211.414 464.952 211.666 463.98 211.666 462.708C211.666 461.4 211.414 460.404 210.91 459.72C210.418 459.036 209.674 458.694 208.678 458.694H205.726L205.924 457.326H208.678C210.214 457.326 211.378 457.788 212.17 458.712C212.974 459.636 213.376 460.968 213.376 462.708C213.376 464.424 212.974 465.738 212.17 466.65C211.378 467.55 210.214 468 208.678 468H205.726ZM222.188 468V460.764C222.188 460.068 222.02 459.552 221.684 459.216C221.36 458.868 220.862 458.694 220.19 458.694H215.528V457.326H220.316C221.48 457.326 222.356 457.614 222.944 458.19C223.544 458.754 223.844 459.594 223.844 460.71V468H222.188ZM213.476 468L213.674 466.632H214.322C214.598 466.632 214.82 466.578 214.988 466.47C215.168 466.35 215.3 466.176 215.384 465.948C215.48 465.72 215.528 465.426 215.528 465.066V457.686H217.184V465.156C217.184 466.08 216.962 466.788 216.518 467.28C216.074 467.76 215.432 468 214.592 468H213.476ZM213.836 458.694L214.034 457.326H216.32V458.694H213.836ZM226.49 468V457.326H228.146V468H226.49ZM224.852 458.694L225.05 457.326H227.57V458.694H224.852ZM238.842 468V460.764C238.842 460.068 238.674 459.552 238.338 459.216C238.014 458.868 237.522 458.694 236.862 458.694H233.154L233.352 457.326H236.97C238.134 457.326 239.01 457.614 239.598 458.19C240.198 458.754 240.498 459.594 240.498 460.71V468H238.842ZM240.889 458.694V457.326H249.403L249.223 458.694H240.889ZM246.001 468V460.008C246.001 459.864 246.019 459.708 246.055 459.54C246.091 459.36 246.145 459.192 246.217 459.036C246.301 458.88 246.415 458.766 246.559 458.694H247.855C247.771 458.778 247.717 458.91 247.693 459.09C247.669 459.27 247.657 459.468 247.657 459.684V468H246.001ZM254.901 468.18C253.365 468.18 252.219 467.736 251.463 466.848C250.719 465.96 250.347 464.652 250.347 462.924V462.726C250.347 461.898 250.473 461.142 250.725 460.458C250.989 459.774 251.313 459.216 251.697 458.784V458.568L253.263 458.46L253.065 458.748C252.717 459.144 252.453 459.678 252.273 460.35C252.093 461.022 252.003 461.76 252.003 462.564C252.003 463.992 252.231 465.066 252.687 465.786C253.155 466.506 253.893 466.866 254.901 466.866C255.969 466.866 256.749 466.464 257.241 465.66C257.733 464.844 257.979 463.668 257.979 462.132C257.979 461.016 257.793 460.164 257.421 459.576C257.049 458.988 256.413 458.694 255.513 458.694H249.753L249.951 457.326H255.567C256.971 457.326 257.997 457.74 258.645 458.568C259.305 459.384 259.635 460.566 259.635 462.114C259.635 464.07 259.245 465.57 258.465 466.614C257.685 467.658 256.497 468.18 254.901 468.18ZM265.647 457.326H272.145L271.965 458.37L268.743 468H267.033L270.183 458.694H263.991V454.518L265.647 454.32V457.326ZM272.467 468.648V467.262L276.103 466.452C276.631 466.32 277.105 466.146 277.525 465.93C277.957 465.702 278.323 465.366 278.623 464.922C278.935 464.478 279.187 463.872 279.379 463.104C279.571 462.336 279.697 461.34 279.757 460.116L279.937 457.326H281.593L281.431 460.116C281.383 461.112 281.281 461.994 281.125 462.762C280.981 463.518 280.777 464.178 280.513 464.742C280.249 465.306 279.913 465.786 279.505 466.182C279.109 466.578 278.629 466.908 278.065 467.172C277.513 467.436 276.865 467.652 276.121 467.82L272.467 468.648ZM275.311 467.244L272.953 457.434L274.555 457.218L276.409 464.886C276.469 465.126 276.487 465.384 276.463 465.66C276.439 465.924 276.379 466.194 276.283 466.47C276.199 466.734 276.085 466.992 275.941 467.244H275.311ZM293.639 468V460.764C293.639 460.068 293.471 459.552 293.135 459.216C292.811 458.868 292.313 458.694 291.641 458.694H286.259L286.457 457.326H291.767C292.931 457.326 293.807 457.614 294.395 458.19C294.995 458.754 295.295 459.594 295.295 460.71V468H293.639ZM286.547 468V461.934L288.203 461.808V468H286.547ZM301.998 468V460.764C301.998 460.068 301.83 459.552 301.494 459.216C301.17 458.868 300.678 458.694 300.018 458.694H296.31L296.508 457.326H300.126C301.29 457.326 302.166 457.614 302.754 458.19C303.354 458.754 303.654 459.594 303.654 460.71V468H301.998ZM305.982 463.284V457.326H307.638V463.284H305.982ZM304.344 458.694L304.542 457.326H306.918V458.694H304.344ZM309.049 468L310.291 461.61L308.815 457.326H310.471L311.353 460.17H311.407C311.539 459.774 311.695 459.396 311.875 459.036C312.055 458.676 312.289 458.358 312.577 458.082C312.865 457.794 313.219 457.566 313.639 457.398C314.059 457.23 314.551 457.146 315.115 457.146C315.919 457.146 316.621 457.338 317.221 457.722C317.821 458.094 318.289 458.658 318.625 459.414C318.973 460.158 319.147 461.106 319.147 462.258V462.51C319.147 463.614 318.967 464.58 318.607 465.408C318.259 466.224 317.743 466.86 317.059 467.316C316.387 467.772 315.559 468 314.575 468H312.775L312.955 466.632H314.503C315.463 466.632 316.201 466.254 316.717 465.498C317.233 464.742 317.491 463.746 317.491 462.51V462.258C317.491 461.394 317.371 460.692 317.131 460.152C316.903 459.6 316.591 459.192 316.195 458.928C315.799 458.664 315.343 458.532 314.827 458.532C314.323 458.532 313.897 458.622 313.549 458.802C313.201 458.982 312.919 459.228 312.703 459.54C312.487 459.84 312.313 460.176 312.181 460.548C312.061 460.908 311.971 461.28 311.911 461.664L310.759 468H309.049ZM325.314 468.054C324.186 468.054 323.226 467.814 322.434 467.334C321.654 466.854 321.054 466.152 320.634 465.228C320.214 464.292 320.004 463.146 320.004 461.79V457.326H321.66V461.79C321.66 462.882 321.798 463.8 322.074 464.544C322.362 465.276 322.776 465.828 323.316 466.2C323.856 466.56 324.516 466.74 325.296 466.74H325.476C326.28 466.74 326.958 466.56 327.51 466.2C328.062 465.828 328.476 465.276 328.752 464.544C329.04 463.812 329.184 462.9 329.184 461.808V457.326H330.822V461.79C330.822 463.146 330.612 464.292 330.192 465.228C329.784 466.152 329.184 466.854 328.392 467.334C327.6 467.814 326.64 468.054 325.512 468.054H325.314ZM321.228 463.86L321.102 462.708C321.906 462.744 322.566 462.636 323.082 462.384C323.598 462.12 323.976 461.718 324.216 461.178C324.468 460.638 324.594 459.984 324.594 459.216V457.326H326.25V459.108C326.25 459.864 326.148 460.542 325.944 461.142C325.74 461.73 325.428 462.234 325.008 462.654C324.6 463.062 324.078 463.368 323.442 463.572C322.818 463.776 322.08 463.872 321.228 463.86ZM284.57 497.438V487.232C284.57 486.416 284.39 485.792 284.03 485.36C283.67 484.916 283.166 484.694 282.518 484.694H278.36L278.54 483.326H282.572C283.76 483.326 284.666 483.668 285.29 484.352C285.914 485.024 286.226 485.984 286.226 487.232V497.348L284.57 497.438ZM288.717 489.284V483.326H290.373V489.284H288.717ZM287.079 484.694L287.277 483.326H289.653V484.694H287.079ZM292.971 483.326H299.469L299.289 484.37L296.067 494H294.357L297.507 484.694H291.315V480.518L292.971 480.32V483.326ZM307.441 494V486.764C307.441 486.068 307.273 485.552 306.937 485.216C306.613 484.868 306.115 484.694 305.443 484.694H300.061L300.259 483.326H305.569C306.733 483.326 307.609 483.614 308.197 484.19C308.797 484.754 309.097 485.594 309.097 486.71V494H307.441ZM300.349 494V487.934L302.005 487.808V494H300.349ZM318.735 494V486.764C318.735 486.068 318.567 485.552 318.231 485.216C317.907 484.868 317.409 484.694 316.737 484.694H312.075V483.326H316.863C318.027 483.326 318.903 483.614 319.491 484.19C320.091 484.754 320.391 485.594 320.391 486.71V494H318.735ZM310.023 494L310.221 492.632H310.869C311.145 492.632 311.367 492.578 311.535 492.47C311.715 492.35 311.847 492.176 311.931 491.948C312.027 491.72 312.075 491.426 312.075 491.066V483.686H313.731V491.156C313.731 492.08 313.509 492.788 313.065 493.28C312.621 493.76 311.979 494 311.139 494H310.023ZM310.383 484.694L310.581 483.326H312.867V484.694H310.383ZM329.049 494V486.764C329.049 486.068 328.881 485.552 328.545 485.216C328.221 484.868 327.723 484.694 327.051 484.694H321.669L321.867 483.326H327.177C328.341 483.326 329.217 483.614 329.805 484.19C330.405 484.754 330.705 485.594 330.705 486.71V494H329.049ZM321.957 494V487.934L323.613 487.808V494H321.957Z" fill="#111111" fill-opacity="0.65"/>
</g>
</g>
<g id="Link">
<path d="M135 572C135 558.745 145.745 548 159 548H285C298.255 548 309 558.745 309 572C309 585.255 298.255 596 285 596H159C145.745 596 135 585.255 135 572Z" fill="black"/>
<path id="&#215;&#156;&#215;&#164;&#215;&#168;&#215;&#152;&#215;&#153;&#215;&#157; &#215;&#160;&#215;&#149;&#215;&#161;&#215;&#164;&#215;&#153;&#215;&#157;" d="M180.74 568.558C181.804 568.558 182.607 568.81 183.148 569.314C183.689 569.809 183.96 570.546 183.96 571.526V577H176.344V571.694C176.344 571.563 176.363 571.409 176.4 571.232C176.437 571.045 176.503 570.868 176.596 570.7C176.689 570.532 176.829 570.401 177.016 570.308H175.574L175.798 568.558H180.74ZM181.832 575.25V571.568C181.832 571.148 181.725 570.835 181.51 570.63C181.305 570.415 181.011 570.308 180.628 570.308H178.584C178.537 570.439 178.505 570.579 178.486 570.728C178.477 570.877 178.472 571.031 178.472 571.19V575.25H181.832ZM186.058 573.444V568.558H188.186V573.444H186.058ZM184.91 570.308L185.148 568.558H187.248V570.308H184.91ZM189.853 577V575.25H192.821C193.325 575.25 193.749 575.147 194.095 574.942C194.44 574.727 194.701 574.433 194.879 574.06C195.065 573.677 195.159 573.225 195.159 572.702C195.159 571.918 195.005 571.302 194.697 570.854C194.389 570.397 193.894 570.168 193.213 570.168C192.662 570.168 192.261 570.285 192.009 570.518C191.766 570.751 191.645 571.055 191.645 571.428C191.645 571.689 191.705 571.913 191.827 572.1C191.957 572.287 192.144 572.413 192.387 572.478C192.471 572.506 192.555 572.534 192.639 572.562C192.723 572.581 192.793 572.59 192.849 572.59L192.681 574.116C192.55 574.135 192.401 574.139 192.233 574.13C192.065 574.111 191.855 574.079 191.603 574.032C190.987 573.911 190.497 573.617 190.133 573.15C189.778 572.674 189.601 572.077 189.601 571.358C189.601 570.789 189.736 570.285 190.007 569.846C190.277 569.398 190.679 569.048 191.211 568.796C191.752 568.544 192.419 568.418 193.213 568.418C194.519 568.418 195.532 568.801 196.251 569.566C196.969 570.322 197.329 571.367 197.329 572.702C197.329 573.589 197.142 574.354 196.769 574.998C196.405 575.642 195.868 576.137 195.159 576.482C194.459 576.827 193.609 577 192.611 577H189.853ZM202.677 577.126C201.343 577.126 200.339 576.79 199.667 576.118C199.005 575.437 198.673 574.475 198.673 573.234V573.108C198.673 572.455 198.785 571.89 199.009 571.414C199.243 570.938 199.532 570.597 199.877 570.392V570.196L201.683 570.154L201.613 570.336C201.315 570.457 201.1 570.723 200.969 571.134C200.848 571.545 200.787 572.058 200.787 572.674C200.787 573.561 200.932 574.242 201.221 574.718C201.52 575.194 202.005 575.432 202.677 575.432C203.359 575.432 203.849 575.175 204.147 574.662C204.446 574.149 204.595 573.416 204.595 572.464C204.595 571.773 204.479 571.241 204.245 570.868C204.021 570.495 203.606 570.308 202.999 570.308H198.323L198.547 568.558H203.013C204.283 568.558 205.216 568.899 205.813 569.58C206.42 570.261 206.723 571.227 206.723 572.478C206.723 573.953 206.383 575.096 205.701 575.908C205.029 576.72 204.021 577.126 202.677 577.126ZM208.74 577V568.558H210.868V577H208.74ZM207.592 570.308L207.83 568.558H210.14V570.308H207.592ZM214.478 577V571.218C214.478 570.985 214.446 570.803 214.38 570.672C214.315 570.541 214.208 570.448 214.058 570.392C213.918 570.336 213.732 570.308 213.498 570.308H212.714L212.938 568.558H214.072C214.931 568.558 215.566 568.768 215.976 569.188C216.396 569.599 216.606 570.205 216.606 571.008V577H214.478ZM212.378 577V575.25H215.5V577H212.378ZM226.992 568.558C228.056 568.558 228.859 568.81 229.4 569.314C229.941 569.809 230.212 570.546 230.212 571.526V577H222.596V571.694C222.596 571.563 222.615 571.409 222.652 571.232C222.689 571.045 222.755 570.868 222.848 570.7C222.941 570.532 223.081 570.401 223.268 570.308H221.826L222.05 568.558H226.992ZM228.084 575.25V571.568C228.084 571.148 227.977 570.835 227.762 570.63C227.557 570.415 227.263 570.308 226.88 570.308H224.836C224.789 570.439 224.757 570.579 224.738 570.728C224.729 570.877 224.724 571.031 224.724 571.19V575.25H228.084ZM232.31 573.444V568.558H234.438V573.444H232.31ZM231.162 570.308L231.4 568.558H233.5V570.308H231.162ZM239.955 577.126C238.657 577.126 237.659 576.729 236.959 575.936C236.268 575.133 235.923 573.957 235.923 572.408V568.558H238.037V572.408C238.037 573.397 238.2 574.149 238.527 574.662C238.863 575.175 239.325 575.432 239.913 575.432C240.519 575.432 240.995 575.175 241.341 574.662C241.686 574.149 241.859 573.397 241.859 572.408C241.859 571.708 241.77 571.162 241.593 570.77C241.425 570.378 241.126 570.177 240.697 570.168C240.491 570.159 240.3 570.173 240.123 570.21C239.955 570.247 239.768 570.289 239.563 570.336V568.642C239.833 568.595 240.085 568.553 240.319 568.516C240.552 568.479 240.804 568.46 241.075 568.46C242.073 568.479 242.806 568.829 243.273 569.51C243.739 570.182 243.973 571.148 243.973 572.408C243.973 573.957 243.623 575.133 242.923 575.936C242.232 576.729 241.243 577.126 239.955 577.126ZM248.853 577V571.568C248.853 571.148 248.751 570.835 248.545 570.63C248.34 570.415 248.041 570.308 247.649 570.308H244.793L245.017 568.558H247.761C248.825 568.558 249.628 568.81 250.169 569.314C250.711 569.809 250.981 570.546 250.981 571.526V577H248.853ZM252.661 577V575.25H255.629C256.133 575.25 256.558 575.147 256.903 574.942C257.249 574.727 257.51 574.433 257.687 574.06C257.874 573.677 257.967 573.225 257.967 572.702C257.967 571.918 257.813 571.302 257.505 570.854C257.197 570.397 256.703 570.168 256.021 570.168C255.471 570.168 255.069 570.285 254.817 570.518C254.575 570.751 254.453 571.055 254.453 571.428C254.453 571.689 254.514 571.913 254.635 572.1C254.766 572.287 254.953 572.413 255.195 572.478C255.279 572.506 255.363 572.534 255.447 572.562C255.531 572.581 255.601 572.59 255.657 572.59L255.489 574.116C255.359 574.135 255.209 574.139 255.041 574.13C254.873 574.111 254.663 574.079 254.411 574.032C253.795 573.911 253.305 573.617 252.941 573.15C252.587 572.674 252.409 572.077 252.409 571.358C252.409 570.789 252.545 570.285 252.815 569.846C253.086 569.398 253.487 569.048 254.019 568.796C254.561 568.544 255.228 568.418 256.021 568.418C257.328 568.418 258.341 568.801 259.059 569.566C259.778 570.322 260.137 571.367 260.137 572.702C260.137 573.589 259.951 574.354 259.577 574.998C259.213 575.642 258.677 576.137 257.967 576.482C257.267 576.827 256.418 577 255.419 577H252.661ZM262.982 568.558H267.868L267.714 569.804L265.194 577H262.982L265.376 570.308H260.854V566.584L262.982 566.36V568.558Z" fill="white"/>
</g>
<g id="single" filter="url(#filter1_d_26_6541)">
<path d="M35 45C35 39.4772 39.4772 35 45 35H399C404.523 35 409 39.4772 409 45V84H35V45Z" fill="black"/>
<path id="&#215;&#148;&#215;&#155;&#215;&#153; &#215;&#164;&#215;&#149;&#215;&#164;&#215;&#149;&#215;&#156;&#215;&#144;&#215;&#168;&#215;&#153;" d="M155.512 60.944V56.058H157.64V60.944H155.512ZM154.364 57.808L154.602 56.058H156.702V57.808H154.364ZM168.087 64.5V59.068C168.087 58.648 167.984 58.3353 167.779 58.13C167.573 57.9153 167.275 57.808 166.883 57.808H164.027L164.251 56.058H166.995C168.059 56.058 168.861 56.31 169.403 56.814C169.944 57.3087 170.215 58.046 170.215 59.026V64.5H168.087ZM182.733 64.5C182.322 63.7907 181.921 63.1327 181.529 62.526C181.146 61.91 180.754 61.322 180.353 60.762C179.961 60.1927 179.541 59.6373 179.093 59.096C178.906 58.8627 178.696 58.6013 178.463 58.312C178.239 58.0133 178.01 57.7193 177.777 57.43C177.553 57.1407 177.347 56.8747 177.161 56.632C176.974 56.3893 176.82 56.198 176.699 56.058H179.303C179.48 56.2727 179.676 56.5293 179.891 56.828C180.105 57.1173 180.32 57.4113 180.535 57.71C180.759 58.0087 180.955 58.2793 181.123 58.522C181.552 59.166 181.995 59.8147 182.453 60.468C182.91 61.112 183.372 61.77 183.839 62.442C184.305 63.1047 184.758 63.7907 185.197 64.5H182.733ZM176.461 64.5L176.797 62.246C176.881 61.7327 177.007 61.252 177.175 60.804C177.343 60.3467 177.604 59.9407 177.959 59.586C178.313 59.2313 178.803 58.9653 179.429 58.788L180.059 60.16C179.779 60.2627 179.564 60.426 179.415 60.65C179.265 60.874 179.158 61.1353 179.093 61.434C179.027 61.7233 178.967 62.036 178.911 62.372L178.589 64.5H176.461ZM182.215 61.084L181.585 59.712C181.911 59.6 182.154 59.432 182.313 59.208C182.481 58.984 182.602 58.7227 182.677 58.424C182.761 58.1253 182.817 57.8173 182.845 57.5L183.027 56.058H185.141L184.973 57.626C184.926 58.13 184.805 58.6107 184.609 59.068C184.422 59.5253 184.133 59.9267 183.741 60.272C183.349 60.6173 182.84 60.888 182.215 61.084ZM193.05 56.058H197.936L197.782 57.304L195.262 64.5H193.05L195.444 57.808H190.922V54.084L193.05 53.86V56.058ZM204.989 64.5V56.058H207.117V64.5H204.989ZM203.841 57.808L204.079 56.058H206.389V57.808H203.841ZM213.865 64.5V62.75H216.833C217.337 62.75 217.762 62.6473 218.107 62.442C218.453 62.2273 218.714 61.9333 218.891 61.56C219.078 61.1773 219.171 60.7247 219.171 60.202C219.171 59.418 219.017 58.802 218.709 58.354C218.401 57.8967 217.907 57.668 217.225 57.668C216.675 57.668 216.273 57.7847 216.021 58.018C215.779 58.2513 215.657 58.5547 215.657 58.928C215.657 59.1893 215.718 59.4133 215.839 59.6C215.97 59.7867 216.157 59.9127 216.399 59.978C216.483 60.006 216.567 60.034 216.651 60.062C216.735 60.0807 216.805 60.09 216.861 60.09L216.693 61.616C216.563 61.6347 216.413 61.6393 216.245 61.63C216.077 61.6113 215.867 61.5787 215.615 61.532C214.999 61.4107 214.509 61.1167 214.145 60.65C213.791 60.174 213.613 59.5767 213.613 58.858C213.613 58.2887 213.749 57.7847 214.019 57.346C214.29 56.898 214.691 56.548 215.223 56.296C215.765 56.044 216.432 55.918 217.225 55.918C218.532 55.918 219.545 56.3007 220.263 57.066C220.982 57.822 221.341 58.8673 221.341 60.202C221.341 61.0887 221.155 61.854 220.781 62.498C220.417 63.142 219.881 63.6367 219.171 63.982C218.471 64.3273 217.622 64.5 216.623 64.5H213.865ZM228.237 64.5V56.058H230.365V64.5H228.237ZM227.089 57.808L227.327 56.058H229.637V57.808H227.089ZM237.113 64.5V62.75H240.081C240.585 62.75 241.01 62.6473 241.355 62.442C241.701 62.2273 241.962 61.9333 242.139 61.56C242.326 61.1773 242.419 60.7247 242.419 60.202C242.419 59.418 242.265 58.802 241.957 58.354C241.649 57.8967 241.155 57.668 240.473 57.668C239.923 57.668 239.521 57.7847 239.269 58.018C239.027 58.2513 238.905 58.5547 238.905 58.928C238.905 59.1893 238.966 59.4133 239.087 59.6C239.218 59.7867 239.405 59.9127 239.647 59.978C239.731 60.006 239.815 60.034 239.899 60.062C239.983 60.0807 240.053 60.09 240.109 60.09L239.941 61.616C239.811 61.6347 239.661 61.6393 239.493 61.63C239.325 61.6113 239.115 61.5787 238.863 61.532C238.247 61.4107 237.757 61.1167 237.393 60.65C237.039 60.174 236.861 59.5767 236.861 58.858C236.861 58.2887 236.997 57.7847 237.267 57.346C237.538 56.898 237.939 56.548 238.471 56.296C239.013 56.044 239.68 55.918 240.473 55.918C241.78 55.918 242.793 56.3007 243.511 57.066C244.23 57.822 244.589 58.8673 244.589 60.202C244.589 61.0887 244.403 61.854 244.029 62.498C243.665 63.142 243.129 63.6367 242.419 63.982C241.719 64.3273 240.87 64.5 239.871 64.5H237.113ZM260.532 60.944V56.058H262.66V60.944H260.532ZM259.384 57.808L259.622 56.058H261.722V57.808H259.384ZM268.99 64.5V62.75H271.482C272.098 62.75 272.551 62.54 272.84 62.12C273.139 61.7 273.288 61.112 273.288 60.356C273.288 59.544 273.139 58.9187 272.84 58.48C272.551 58.032 272.098 57.808 271.482 57.808H268.99L269.214 56.058H271.482C272.78 56.058 273.764 56.436 274.436 57.192C275.118 57.9387 275.458 58.9933 275.458 60.356C275.458 61.672 275.118 62.694 274.436 63.422C273.764 64.1407 272.78 64.5 271.482 64.5H268.99ZM287.197 64.5V59.068C287.197 58.648 287.089 58.3353 286.875 58.13C286.669 57.9153 286.375 57.808 285.993 57.808H281.639L281.877 56.058H286.105C287.169 56.058 287.971 56.31 288.513 56.814C289.054 57.3087 289.325 58.046 289.325 59.026V64.5H287.197ZM281.821 64.5V59.95L283.949 59.838V64.5H281.821Z" fill="white"/>
</g>
</g>
</g>
</g>
</g>
</g>
</g>
<defs>
<filter id="filter0_d_26_6541" x="0" y="0" width="444" height="712" filterUnits="userSpaceOnUse" color-interpolation-filters="sRGB">
<feFlood flood-opacity="0" result="BackgroundImageFix"/>
<feColorMatrix in="SourceAlpha" type="matrix" values="0 0 0 0 0 0 0 0 0 0 0 0 0 0 0 0 0 0 127 0" result="hardAlpha"/>
<feMorphology radius="5" operator="dilate" in="SourceAlpha" result="effect1_dropShadow_26_6541"/>
<feOffset/>
<feGaussianBlur stdDeviation="15"/>
<feComposite in2="hardAlpha" operator="out"/>
<feColorMatrix type="matrix" values="0 0 0 0 0 0 0 0 0 0 0 0 0 0 0 0 0 0 0.07 0"/>
<feBlend mode="normal" in2="BackgroundImageFix" result="effect1_dropShadow_26_6541"/>
<feBlend mode="normal" in="SourceGraphic" in2="effect1_dropShadow_26_6541" result="shape"/>
</filter>
<filter id="filter1_d_26_6541" x="0" y="0" width="444" height="119" filterUnits="userSpaceOnUse" color-interpolation-filters="sRGB">
<feFlood flood-opacity="0" result="BackgroundImageFix"/>
<feColorMatrix in="SourceAlpha" type="matrix" values="0 0 0 0 0 0 0 0 0 0 0 0 0 0 0 0 0 0 127 0" result="hardAlpha"/>
<feMorphology radius="5" operator="dilate" in="SourceAlpha" result="effect1_dropShadow_26_6541"/>
<feOffset/>
<feGaussianBlur stdDeviation="15"/>
<feComposite in2="hardAlpha" operator="out"/>
<feColorMatrix type="matrix" values="0 0 0 0 0 0 0 0 0 0 0 0 0 0 0 0 0 0 0.07 0"/>
<feBlend mode="normal" in2="BackgroundImageFix" result="effect1_dropShadow_26_6541"/>
<feBlend mode="normal" in="SourceGraphic" in2="effect1_dropShadow_26_6541" result="shape"/>
</filter>
<clipPath id="clip0_26_6541">
<rect x="35" y="35" width="374" height="642" rx="20" fill="white"/>
</clipPath>
</defs>
</svg>
