<svg preserveAspectRatio="none" width="100%" height="100%" overflow="visible" style="display: block;" viewBox="0 0 33.8028 33.8028" fill="none" xmlns="http://www.w3.org/2000/svg">
<g id="Group">
<path id="Vector" d="M16.9014 0C7.56701 0 0 7.56701 0 16.9014C0 26.2358 7.56701 33.8028 16.9014 33.8028C26.2358 33.8028 33.8028 26.2358 33.8028 16.9014C33.8028 7.56701 26.2358 0 16.9014 0ZM16.9014 32.2663C8.41558 32.2663 1.53651 25.3872 1.53651 16.9014C1.53651 8.41558 8.41558 1.53651 16.9014 1.53651C25.3872 1.53651 32.2663 8.41558 32.2663 16.9014C32.2663 25.3872 25.3872 32.2663 16.9014 32.2663Z" fill="white"/>
<path id="Vector_2" d="M21.5108 9.21893H12.2919C10.5948 9.21893 9.21896 10.5947 9.21896 12.2919V21.5108C9.21896 23.2079 10.5948 24.5838 12.2919 24.5838H21.5108C23.208 24.5838 24.5838 23.2079 24.5838 21.5108V12.2919C24.5839 10.5947 23.208 9.21893 21.5108 9.21893ZM19.9743 11.5237H22.2791V13.8284H19.9743V11.5237ZM16.9014 13.8285C18.5985 13.8285 19.9743 15.2043 19.9743 16.9014C19.9743 18.5985 18.5985 19.9744 16.9014 19.9744C15.2042 19.9744 13.8284 18.5985 13.8284 16.9014C13.8284 15.2043 15.2042 13.8285 16.9014 13.8285ZM23.0474 21.5109C23.0474 22.3594 22.3594 23.0474 21.5108 23.0474H12.2919C11.4433 23.0474 10.7554 22.3594 10.7554 21.5109V16.1331H12.3687C11.9073 18.6367 13.5628 21.0403 16.0664 21.5017C18.57 21.9631 20.9736 20.3076 21.435 17.804C21.4898 17.5064 21.5153 17.204 21.5108 16.9014C21.507 16.6436 21.4813 16.3866 21.434 16.1332H23.0473V21.5109H23.0474Z" fill="white"/>
</g>
</svg>
