<svg preserveAspectRatio="none" width="100%" height="100%" overflow="visible" style="display: block;" viewBox="0 0 33.8028 33.8028" fill="none" xmlns="http://www.w3.org/2000/svg">
<g id="fi_665211">
<rect width="33.8028" height="33.8028" rx="16.9014" fill="#111111"/>
<rect width="33.8028" height="33.8028" rx="16.9014" fill="#F1C004"/>
<path id="Vector" d="M16.92 6.54897C19.6711 6.55011 22.2528 7.62069 24.1945 9.56459C26.1362 11.5084 27.2044 14.0919 27.2032 16.84C27.2009 22.5093 22.5868 27.1222 16.92 27.1222H16.9161C15.1952 27.1217 13.5038 26.6904 12.0021 25.8712L11.9288 25.8302L11.8478 25.8517L6.63781 27.2179L8.03039 22.1339L8.05383 22.048L8.00988 21.9718C7.11018 20.4127 6.63607 18.6437 6.63683 16.8312C6.63921 11.1621 11.2526 6.54905 16.92 6.54897ZM16.9239 7.89955C11.9962 7.89955 7.9883 11.9065 7.98644 16.8322C7.98571 18.5197 8.4583 20.1636 9.35265 21.5861L9.50988 21.8371L8.65344 24.9669L8.55676 25.3195L8.91125 25.2267L12.1261 24.383L12.3693 24.5275C13.7413 25.3414 15.3135 25.7719 16.9161 25.7726H16.92C21.8444 25.7726 25.8515 21.765 25.8536 16.839C25.8544 14.4524 24.9257 12.207 23.2394 10.5187C21.5531 8.83059 19.3095 7.9004 16.9239 7.89955ZM13.2052 12.1964C13.3793 12.1964 13.5494 12.1979 13.6964 12.2052C13.8287 12.2118 13.8425 12.1981 13.8927 12.2218C13.9257 12.2375 14.0055 12.2924 14.1027 12.5255C14.2117 12.7876 14.3967 13.2402 14.5636 13.6456C14.7273 14.0433 14.8787 14.4102 14.9161 14.4855H14.9171C14.9696 14.5903 14.9828 14.6674 14.9386 14.756C14.9043 14.8247 14.8223 14.9474 14.7042 15.1066C14.5892 15.2617 14.4489 15.44 14.3077 15.6154C14.2911 15.636 14.2433 15.6916 14.2169 15.7257C14.1835 15.7689 14.1444 15.8244 14.1173 15.8917C14.0559 16.0446 14.0713 16.2107 14.1749 16.3888C14.3314 16.6571 14.8705 17.5394 15.6749 18.257C16.7039 19.1747 17.5885 19.4691 17.8302 19.59C17.9751 19.6625 18.1245 19.7109 18.2755 19.6925C18.4351 19.673 18.5549 19.5842 18.6515 19.4738C18.8024 19.3013 19.3151 18.7 19.4991 18.424C19.5635 18.3273 19.6018 18.3222 19.6173 18.3205C19.656 18.316 19.7139 18.3283 19.84 18.3742C19.9475 18.4133 20.3181 18.5878 20.7091 18.7765C21.0931 18.9619 21.4793 19.1527 21.6095 19.2179C21.7529 19.2897 21.8467 19.3306 21.9279 19.3751C21.965 19.3955 21.9895 19.4119 22.006 19.4249L22.0255 19.4435C22.0147 19.4255 22.0258 19.435 22.0314 19.506C22.0361 19.5661 22.0353 19.65 22.0265 19.7521C22.0089 19.9557 21.9585 20.2222 21.8556 20.5109C21.7707 20.7485 21.5046 21.0091 21.1622 21.2287C20.9094 21.3907 20.644 21.5116 20.4376 21.5753L20.253 21.6203C19.8187 21.6851 19.2825 21.7098 18.6964 21.5236C18.3186 21.4037 17.8379 21.245 17.2218 20.9787C14.6545 19.8702 12.9701 17.2779 12.8273 17.0871C12.7639 17.0025 12.5057 16.6581 12.2628 16.1798C12.0184 15.6985 11.799 15.0988 11.7989 14.5011C11.7989 13.2988 12.4218 12.7177 12.6612 12.4562C12.8549 12.2447 13.0789 12.1964 13.2052 12.1964Z" fill="black" stroke="#040404" stroke-width="0.422536"/>
</g>
</svg>
