<svg preserveAspectRatio="none" width="100%" height="100%" overflow="visible" style="display: block;" viewBox="0 0 33.8028 33.8028" fill="none" xmlns="http://www.w3.org/2000/svg">
<g id="Group">
<path id="Vector" d="M15.3649 13.0602V14.5967H13.8284V16.9014H15.3649V23.8156H18.4378V16.9014H20.4814L20.7426 14.5967H18.4378V13.2522C18.4378 12.63 18.4993 12.2996 19.4596 12.2996H20.7426V9.98715H18.6837C16.2253 9.98721 15.3649 11.1395 15.3649 13.0602Z" fill="white"/>
<path id="Vector_2" d="M16.9014 0C7.56701 0 0 7.56701 0 16.9014C0 26.2358 7.56701 33.8028 16.9014 33.8028C26.2358 33.8028 33.8028 26.2358 33.8028 16.9014C33.8028 7.56701 26.2358 0 16.9014 0ZM16.9014 32.2663C8.41558 32.2663 1.53651 25.3872 1.53651 16.9014C1.53651 8.41558 8.41558 1.53651 16.9014 1.53651C25.3872 1.53651 32.2663 8.41558 32.2663 16.9014C32.2663 25.3872 25.3872 32.2663 16.9014 32.2663Z" fill="white"/>
</g>
</svg>
