<svg preserveAspectRatio="none" width="100%" height="100%" overflow="visible" style="display: block;" viewBox="0 0 15.2113 17.3135" fill="none" xmlns="http://www.w3.org/2000/svg">
<g id="Group">
<path id="Vector" d="M15.2031 4.33508C14.2135 4.33508 13.3004 4.00724 12.5672 3.45419C11.7262 2.82018 11.122 1.89018 10.9087 0.818265C10.8558 0.55342 10.8274 0.280108 10.8247 2.28882e-05H7.99776V7.72456L7.99437 11.9556C7.99437 13.0868 7.25775 14.046 6.23664 14.3833C5.9403 14.4812 5.62025 14.5276 5.28699 14.5093C4.86161 14.4859 4.46299 14.3575 4.11652 14.1503C3.37922 13.7093 2.87934 12.9094 2.86579 11.9943C2.84445 10.564 4.00069 9.39796 5.42991 9.39796C5.71203 9.39796 5.98297 9.44402 6.23664 9.52767V7.41636V6.65739C5.96908 6.61776 5.69679 6.5971 5.42144 6.5971C3.8571 6.5971 2.39401 7.24736 1.34818 8.41885C0.557709 9.30415 0.0835615 10.4336 0.0104073 11.618C-0.0854381 13.1739 0.483877 14.6529 1.58796 15.7441C1.75019 15.9043 1.92054 16.053 2.09869 16.1901C3.04529 16.9186 4.20255 17.3135 5.42144 17.3135C5.69679 17.3135 5.96908 17.2932 6.23664 17.2536C7.37527 17.0849 8.42584 16.5637 9.25492 15.7441C10.2737 14.7372 10.8365 13.4004 10.8426 11.9777L10.8281 5.65931C11.3141 6.03422 11.8455 6.34445 12.4158 6.58525C13.3028 6.95949 14.2433 7.14915 15.2112 7.14881V5.09609V4.33441C15.2119 4.33508 15.2038 4.33508 15.2031 4.33508Z" fill="white"/>
</g>
</svg>
