<svg preserveAspectRatio="none" width="100%" height="100%" overflow="visible" style="display: block;" viewBox="0 0 16 16" fill="none" xmlns="http://www.w3.org/2000/svg">
<g id="Icon">
<path id="Vector" d="M7.68335 1.5296C7.71257 1.47058 7.7577 1.42089 7.81365 1.38615C7.86961 1.35142 7.93416 1.33301 8.00002 1.33301C8.06588 1.33301 8.13043 1.35142 8.18639 1.38615C8.24234 1.42089 8.28747 1.47058 8.31669 1.5296L9.85669 4.64894C9.95814 4.85425 10.1079 5.03188 10.2931 5.16657C10.4783 5.30127 10.6934 5.38901 10.92 5.42227L14.364 5.92627C14.4293 5.93573 14.4906 5.96325 14.541 6.00574C14.5914 6.04822 14.629 6.10397 14.6494 6.16667C14.6698 6.22938 14.6722 6.29654 14.6564 6.36056C14.6406 6.42458 14.6072 6.4829 14.56 6.52894L12.0694 8.95427C11.9051 9.11434 11.7822 9.31193 11.7112 9.53002C11.6403 9.74812 11.6234 9.9802 11.662 10.2063L12.25 13.6329C12.2615 13.6982 12.2545 13.7653 12.2297 13.8267C12.2049 13.8881 12.1633 13.9413 12.1097 13.9803C12.0561 14.0192 11.9927 14.0423 11.9266 14.0469C11.8605 14.0515 11.7945 14.0374 11.736 14.0063L8.65735 12.3876C8.4545 12.2811 8.22881 12.2254 7.99969 12.2254C7.77057 12.2254 7.54487 12.2811 7.34202 12.3876L4.26402 14.0063C4.20557 14.0372 4.13962 14.0511 4.07365 14.0464C4.00769 14.0418 3.94437 14.0186 3.89088 13.9797C3.8374 13.9409 3.79591 13.8877 3.77112 13.8264C3.74634 13.7651 3.73926 13.6981 3.75069 13.6329L4.33802 10.2069C4.37682 9.98076 4.36001 9.74854 4.28905 9.5303C4.21808 9.31207 4.09509 9.11437 3.93069 8.95427L1.44002 6.5296C1.39242 6.48363 1.35868 6.4252 1.34266 6.36099C1.32664 6.29677 1.32898 6.22935 1.34941 6.1664C1.36983 6.10345 1.40753 6.0475 1.4582 6.00493C1.50888 5.96235 1.57049 5.93487 1.63602 5.9256L5.07935 5.42227C5.30619 5.38927 5.52161 5.30164 5.70708 5.16693C5.89254 5.03221 6.04249 4.85445 6.14402 4.64894L7.68335 1.5296Z" fill="#F1C004" stroke="#F1C004" stroke-width="1.33333" stroke-linecap="round" stroke-linejoin="round"/>
</g>
</svg>
